<svg height="53" viewBox="0 0 53 53" width="53" xmlns="http://www.w3.org/2000/svg"><path d="m5.50828489 32.7736556c.06264766.1493938.14227188.2911274.23725781.4223438.36656953.5172883.84311407.9470023 1.39539063 1.2583359l2.82846094 1.6330625-2.61894532 14.852836c-.05776172.3275234-.18077968.6401406-.36168359.9196328-.18090391.2790781-.41605.5192344-.69144297.7055625-.27543437.1867422-.58552578.3159297-.91188984.3805234-.32636407.0645938-.66237578.0629375-.98807735-.0049687-.64113437-.1507188-1.199125-.5436641-1.55733047-1.0964375-.35820546-.5527735-.48888359-1.2227266-.36474765-1.8694922zm22.42769531-19.5064843c.2745234 0 .5378672.109064.7320625.3031765.1618294.161795.2644249.3716096.2941282.5959213l.0089656.1360584v5.5227656c.1220449.0907108.2329101.1950934.3306741.3109817l.0933259.1196433.0828125.1175938c.1507187.2150227.2579609.4576219.3151015.7140094.0567266.2564289.0629375.5215117.0173906.7802179-.0455468.2587063-.1416093.5058602-.2828046.727425-.112625.1772519-.252545.3352913-.414248.4685426l-.1252755.0952035-.0157344.0111797v28.0059453c0 .2745235-.1088984.5378672-.3030937.7320625s-.4575391.3030938-.7320625.3030938-.5378258-.1088985-.7319797-.3030938c-.1617604-.1618294-.2644594-.3716786-.2941991-.5960008l-.0089775-.1360617v-26.5583828l-2.5978281 1.8202188-1.2835937.8993437c-.5199383.3640852-1.1631844.5067297-1.7882946.3965477-.5625618-.0991638-1.0689793-.3958057-1.4300553-.8331774l-.1148533-.150925-1.9460937-2.7775312-1.3709609 7.870914 4.4478593 2.5671875 1.2268672.708461c.006625.0037265.0115938.0095234.0186328.01325.1069524.0648422.2086047.1380898.3039219.219039.0418203.0351954.0799141.072461.1188359.1105547.0517579.0509297.1010313.1039297.1469922.159.0616125.0725438.1184633.1490625.1701797.2289766.0190469.0302266.0376797.0600391.0554844.0910937.0614055.1046336.1142812.214029.1581719.3271094.0057968.0153203.0115937.0306406.0169765.046375.0296745.081736.0546563.1650729.0748227.2495938l.0266226.1276172.0078672.0484453c.0187157.1199953.0277422.2412742.0269141.3627187 0 .0351953-.0028984.0708047-.0028984.1064141-.0048032.0949859-.0155688.1895992-.0322969.2832187-.012836.0708047-.0285703.1411953-.0480313.2111719-.0149062.0521719-.0289843.1039297-.0480312.1556875-.0417375.1177594-.0931227.231875-.1536172.3411875l-.0046065.0105586-.0049169.0105586-.0111797.0194609-1.3374219 2.3166797-3.8507813 6.6664063c-.162975.2828047-.3801507.5308281-.639064.7295781-.2588719.1991641-.5544297.3449141-.8697797.4297969-.31535.0844687-.6442399.106-.9679539.0633515-.3236727-.0426484-.635793-.1486484-.9185149-.311789-.2828875-.1631407-.5308695-.3801094-.7297851-.6388985-.1988742-.2592031-.3448313-.5544297-.4294242-.8699453-.084593-.3155156-.1062071-.6442812-.0636-.9680781.0340525-.2587063.108703-.5102575.2208139-.7453258l.0910579-.1730648 3.8482969-6.6664063-9.65635155-5.5765937c-.48403906-.3116649-.86866172-.756368-1.10198593-1.2824344-.2041587-.4602719-.2843639-.9646408-.23454077-1.4632598l.02933139-.2131965 2.0835625-11.9428046c.13349375-.7569891.56225547-1.4300063 1.19192031-1.8709.57242255-.4008125 1.26827685-.5799818 1.95883325-.5089808l.2068793.0288339 4.4934062.7916875c.6306089.1108652 1.2042349.4281298 1.6324658.8987585l.1372373.1624837.0157344-.0111797 4.0992188 5.8552578 4.5364687-3.1762734.1415059-.087067.1483379-.0748315v-5.3c0-.2745234.109064-.5378258.3031765-.7319797.1941539-.1941125.4574563-.3031765.7319797-.3031765zm-26.06929218 1.7649c.38234531-.1115899.78526953-.133618 1.17751093-.0643453l4.06733594.7171562c-.4246625.4201492-.70829531.9618672-.8115625 1.55025l-2.17134375 11.3742969-2.25829687-.3780391c-.26885079-.0474101-.51463829-.1821047-.69926875-.3832148-.18463047-.2011102-.29787657-.4574563-.32222344-.7293711l-.83847656-9.3656797c-.03556797-.3967133.02070312-.7962836.16446562-1.1677391.14380391-.3714554.37120703-.7047757.66461172-.9741648s.64490234-.4675594 1.02724766-.5791492zm13.16088508-15.0320713.2201243.01730398c.3663418.04359992.7194566.16010862 1.038809.3418426l.1873957.11680594 2.1787969 1.48234375c.3987007.27138899.7295367.63098571.9668359 1.05089063 2.4620156-.39128906 4.2453828-.18466774 4.5766328.68776195.3221406.85503492-.8231562 2.1527068-2.8520625 3.45700367.1956445.7651875.2261195 1.56325157.0894375 2.34110938-.1274484.7229117-.3960508 1.4136508-.7904453 2.0327984-.3943945.6191063-.9068797 1.1544891-1.5082227 1.5755493-.6013015.4210601-1.2796601.7195578-1.9963195.8784335-.7166594.1589172-1.4576242.1750657-2.1805359.0476172-.8395946-.1479859-1.6340563-.4865234-2.3223524-.9895679-.6882961-.5030446-1.252125-1.1571805-1.6480929-1.9121821-2.55269536.4285547-4.40852348.2298047-4.7451563-.662914-.32959375-.87450003.87657032-2.21109378 2.99160157-3.54520315-.08181185-.3922207-.08756847-.79571311-.01779702-1.18874373l.05092202-.23438908.65835937-2.55186305c.11047186-.42864164.32234766-.82444813.61778126-1.15405844.2462292-.27467181.5444462-.49666567.8766316-.65360762l.2032434-.08625996 2.3249609-.87532646c.2761797-.10410341.5663455-.16289589.8593453-.17502167z" fill="#fff" transform="translate(13.261996 .00229)"/></svg>