<svg height="54" viewBox="0 0 53 54" width="53" xmlns="http://www.w3.org/2000/svg"><g fill="none" fill-rule="evenodd" transform="translate(0 .969338)"><g fill="#fff" fill-rule="nonzero"><path d="m29.2377968 7.96488075c.7470791-3.04515252-1.1206186-6.04859063-4.1504392-6.79945016-3.0298206-.75085952-6.0181369 1.12628929-6.765216 4.17144182-.747079 3.04515252 1.1206186 6.04859059 4.1504393 6.79945019 3.0298206.7508595 6.0596412-1.1680037 6.7652159-4.17144185z"/><path d="m24.3817829 14.3889011c-.8715922-.7508595-2.1582284-.6674306-2.9053074.2085721-.7470791.8760028-.6640703 2.1691498.2075219 2.9200093l6.8897291 5.9234474c.8715923.7508595 2.1582284.6674307 2.9053075-.2085721s.6640703-2.1691497-.207522-2.9200093z"/><path d="m10.3532983 50.5135873h13.7794583c.5810615 0 1.0791142-.5005731 1.0791142-1.0845749v-3.7125832h5.1050402c.5810615 0 1.0376098-.4588586 1.0376098-1.0845749v-3.7125832h5.1050403c.5810615 0 1.0376098-.4588586 1.0376098-1.0428605v-3.7125832h4.8975183c.5810615 0 1.0791142-.500573 1.0791142-1.0845748 0-.5840019-.4980527-1.0845749-1.0791142-1.0845749h-5.8936237c-.5810615 0-1.0376098.500573-1.0376098 1.0845749v3.7125832h-5.1465447c-.6225659 0-1.0376098.500573-1.0376098 1.0845748v3.7125833h-5.1465446c-.5810615 0-1.0376098.4588586-1.0376098 1.0428604v3.7542976h-12.7418485c-.62256586 0-1.03760978.4588586-1.03760978 1.0428605-.04150439.5840018.41504392 1.0845749 1.03760978 1.0845749z"/><path d="m29.7773539 33.4941047c.3320352-1.3348614-.4565483-2.6697228-1.7431845-3.0034381-1.3281405-.3337154-2.6562811.4588586-2.9883162 1.7520055l-2.1997328 8.5097413c-.3320351 1.3348614.4565483 2.6697228 1.7431845 3.0034381 1.3281405.3337154 2.6562811-.4588586 2.9883162-1.7520055z"/><path d="m11.2248906 45.6747148c-.5395571 1.2514325.0415044 2.7114371 1.2866361 3.2537246 1.2451318.5422874 2.6977855-.0417144 3.2373426-1.293147l3.9014129-6.5491636c.5395571-1.2514326-.0415044-2.7114372-1.2866362-3.2537247-1.2451317-.5422874-2.6977855.0417145-3.2373426 1.293147z"/><path d="m15.8318781 32.6181019-.7885834 6.7577357c-.207522 1.3348614.7055746 2.5862939 2.0337152 2.794866 1.3281405.2085721 2.5732723-.7091451 2.7807943-2.0440065l.6225658-5.8817329z"/><path d="m37.829206 23.9832173c1.162123 0 2.0752196-.9177172 2.0752196-2.0857209s-.9130966-2.0857209-2.0752196-2.0857209h-7.6368082c-1.1621229 0-2.0752196.9177172-2.0752196 2.0857209s.9130967 2.0857209 2.0752196 2.0857209z"/><path d="m28.1586826 30.4906666-5.0220315-1.9188633 2.8222987-9.5943162c.6640703-2.2525785-.6225659-4.588586-2.863803-5.2560166l-.2490264-.0834289c-2.2412372-.6674307-4.5654831.6257163-5.2295534 2.8782949l-3.0298207 10.4286045c-.5395571 1.8771488.415044 3.8377265 2.2412372 4.5468716l9.7950366 3.7125832c1.2866362.4171442 2.6562811-.2502865 3.1128294-1.5434335.4150439-1.3348613-.2905307-2.7114371-1.5771669-3.1702957z"/><path d="m26.0419586 27.8626582 2.2827416 1.1262893 13.9869802-6.5074492.0830088-2.2525786z"/><path d="m8.81763581 35.9135409v2.1691498l4.89751829-2.294293v-2.1691498z"/></g><path d="m0 0h53v53h-53z"/></g></svg>