<svg height="53" viewBox="0 0 53 53" width="53" xmlns="http://www.w3.org/2000/svg"><g fill="none" fill-rule="evenodd"><g fill="#fff" fill-rule="nonzero"><path d="m23.860022 21.4883306c2.8222987 1.3348614 6.1011457.1251432 7.4707906-2.7114372 1.3281406-2.8365804.1245132-6.1320195-2.6977855-7.5085953-2.8222986-1.37657577-6.1011456-.1251432-7.4707906 2.7114372-1.3281405 2.8365804-.0830087 6.2154483 2.6977855 7.5085953z"/><path d="m12.1972878 14.9808813c1.6186713.7508596 3.4448646.0834289 4.233448-1.5434334.7470791-1.6268623.0830088-3.46229674-1.5356625-4.25487068-1.6186713-.79257395-3.4448646-.08342884-4.233448 1.54343348-.74707907 1.5851479-.0415044 3.5040111 1.5356625 4.2548706z"/><path d="m26.5163031 24.4917687c-1.1621229 0-2.0752196.9177172-2.0752196 2.0857209s.9130967 2.0857209 2.0752196 2.0857209h18.0544107c1.162123 0 2.0752196-.9177172 2.0752196-2.0857209s-.9130966-2.0857209-2.0752196-2.0857209z"/><path d="m12.5708273 24.4917687c-1.1621229 0-2.0752196.9177172-2.0752196 2.0857209s.9130967 2.0857209 2.0752196 2.0857209h20.1296303c1.162123 0 2.0752196-.9177172 2.0752196-2.0857209s-.9130966-2.0857209-2.0752196-2.0857209z"/><path d="m10.5371121 27.0363482c.2905308 1.1262893 1.369645 1.79372 2.4902636 1.5434335 1.1206185-.292001 1.7846888-1.3765758 1.5356625-2.5028651l-2.1997328-9.0937432c-.2905308-1.1262893-1.369645-1.79372-2.49026356-1.5434335-1.12061859.2502866-1.78468887 1.3765758-1.53566252 2.5028651z"/><path d="m22.0753332 37.5483816c1.1206186.6674307 2.0337152 1.1680037 3.278847 1.1680037 1.2451317 0 2.1582284-.500573 3.2788469-1.1680037.1660176-.0834289.2905308-.1668577.4565484-.2502865l2.5732723-9.7194595-2.4902636-3.0868669h-7.0557466l-2.9468119 2.9617237-2.1997328 8.3011692c2.2827416.1668577 3.8599085 1.0428604 5.1050403 1.79372z"/><path d="m4.64348841 42.2203964h1.86769765c4.89751834 0 6.01813684-3.0451525 9.42149704-3.0451525s4.5239788 3.0451525 9.4214971 3.0451525c4.8975182 0 6.0181368-3.0451525 9.421497-3.0451525s4.5239788 3.0451525 9.4214971 3.0451525h1.8676976c.5810615 0 .9961054-.4588586.9961054-1.001146 0-.5840019-.4565483-1.0428605-.9961054-1.0428605h-1.8676976c-3.5278734 0-4.7315008-3.0451525-9.4214971-3.0451525s-5.8936237 3.0451525-9.421497 3.0451525c-3.5278734 0-4.7315008-3.0451525-9.4214971-3.0451525-4.7315007 0-5.8936237 3.0451525-9.42149704 3.0451525h-1.86769765c-.58106149 0-1.03760981.4588586-1.03760981 1.0428605 0 .5422874.45654832 1.001146 1.03760981 1.001146z"/></g><path d="m0 0h53v53h-53z"/></g></svg>