<svg height="53" viewBox="0 0 53 53" width="53" xmlns="http://www.w3.org/2000/svg"><g fill="#fff" fill-rule="evenodd" transform="translate(7)"><path d="m18.0786496 13.3708597c3.6922608 0 6.6854303-2.9931686 6.6854303-6.68542986 0-3.69226081-2.9931695-6.68542984-6.6854303-6.68542984-3.6922613 0-6.6854308 2.99316903-6.6854308 6.68542984 0 3.69226126 2.9931695 6.68542986 6.6854308 6.68542986z"/><path d="m36.6549008 15.35514h-19.8130839c-2.7356916 0-4.953271 2.217578-4.953271 4.953271v14.3253535c0 .1391864.0069346.276394.0208037.4116178.1882243 2.0179631 1.8852145 3.5960757 3.9497378 3.5901313h.0034673l.3541589-.0009901 13.4060289-.038637-.0064393 11.3826182c-.0009902 1.6677648 1.3502627 3.0205046 3.018029 3.0214953 1.6677668.0009896 3.0205046-1.3502652 3.0214948-3.0180295l.0079247-14.4407662v-.0302135c.0009897-1.6415135-1.3269798-2.9729528-2.9665134-2.9734476l-8.4260098-.0044594v-12.224178h12.3831774c1.3675987 0 2.4766355-1.1090363 2.4766355-2.4766355 0-1.3675986-1.1090368-2.4766354-2.4766355-2.4766354z"/><path d="m10.9330688 39.5444497-1.43941953 4.013638-7.28229998 2.0258858c-1.6068411.4467856-2.54697193 2.1120768-2.10018689 3.7189174.44678504 1.6068411 2.11207573 2.5469714 3.71891684 2.1001859l3.16662564-.8806916.07033595-.0198131 5.57342147-1.5503728c.1164024-.0321963.2298323-.0718224.3402902-.117392.7702337-.318 1.3775037-.9485539 1.6623173-1.7435539l1.9674392-5.4857456-.7603271.0019798c-1.9208785 0-3.6604677-.7900472-4.9176079-2.0630379z"/></g></svg>