<svg height="53" viewBox="0 0 53 53" width="53" xmlns="http://www.w3.org/2000/svg"><g fill="#fff" transform="translate(2)"><path d="m22.7642399 38.5299745-1.0291094-.646561-.6600309-.4144275.020654-.005388c-.8679182-.5055748-1.5454602-1.2545078-1.9715618-2.128712l-1.8341676 4.4240032-8.44525283 3.563718c-1.37394194.5706798-2.02544185 2.147121-1.45476205 3.5210629.5706798 1.373942 2.14712102 2.0254419 3.52106298 1.4547621l7.816652-3.3324827c1.7223664-.734116 3.0900223-2.112099 3.8115663-3.8398534l.9056343-2.168224-.00898-.0053881-.672603-.4225095z"/><path d="m17.0197259 32.7172123-1.6572614-4.7122617c-.6631739.3704256-1.416148.5783129-2.1969601.5783129-.9280843 0-1.8211465-.2819724-2.5826516-.8149362-.98600538-.690114-1.6437913-1.7232644-1.8530256-2.9086261-.20878529-1.1853616.05612508-2.3810503.74623905-3.3670557l4.58699045-6.5513682-5.16754826-14.68501019c-.12033217-.34168948-.60525285-.34168948-.72558502 0l-6.77586853 19.25134659c-.17511025.4979417.19576427 1.0187824.72558502 1.0187824h2.2095321l-4.28705802 12.1912652c-.16792624.4768386.18723326.9761273.69460397.9761273h15.58840394c.5073707 0 .8625302-.4992887.694604-.9761273z"/><path d="m31.9480989 13.8461647c3.2970116.5814559 6.440465-1.6199942 7.0219208-4.91700588.5814559-3.29701164-1.6199942-6.44046506-4.9170059-7.02192088-3.2970116-.58145133-6.440465 1.61999428-7.0219209 4.91700592-.5814558 3.29701164 1.6199943 6.44046504 4.917006 7.02192084z"/><path d="m47.6316909 21.119975c-.711217-1.0156395-2.111201-1.2625898-3.1268404-.5513728l-4.8325938 3.3836687-4.4042472-6.3735639c-.4063455-.6470099-1.0457224-1.1503396-1.8418006-1.3645129l-4.7782647-1.2859378c-.3192394-.0857592-.6402749-.1189852-.9541263-.1050662v-.003592h-9.6023275v.004939c-.7314221.006735-1.4489251.3493225-1.9001707.9940874l-4.8743509 6.9617548c-.716156 1.0228234-.4678586 2.4326854.5549648 3.1488414 1.0228235.716156 2.4326854.4674097 3.1488415-.5554138l4.2461989-6.0642025h4.9147609l-3.2534585 11.4432301c-.5639448 1.9271107.2276433 3.9296535 1.8157585 4.986601l10.2098254 6.360094 2.137692 8.8075964c.3322604 1.450272 1.7771445 2.3568043 3.2274165 2.0240948 1.4502721-.3322605 2.3563553-1.7771445 2.0240949-3.2274165l-2.1736121-8.6401192c-.3560575-1.414801-1.1853617-2.6576347-2.3397423-3.53139-.1665792-.1288631-.3398935-.2500933-.5194937-.3627925l-3.7154802-2.3267212 2.880788-10.5129008 1.5185202 2.1978581-.0228991.016164 1.0749075 1.5351332c.5890889.8409781 1.5827273 1.2266697 2.5337106 1.0838875.3856915-.0570231.7646481-.1998053 1.1058885-.4386736l1.4516191-1.0165375 4.9425989-3.4608968c1.0156395-.711217 1.2625898-2.111201.5513728-3.1268404z"/></g></svg>