<svg height="53" viewBox="0 0 53 53" width="53" xmlns="http://www.w3.org/2000/svg"><g fill="#fff" fill-rule="evenodd" transform="translate(1.240918)"><path d="m22.577716 11.1801227c3.087306 0 5.5900613-2.50275539 5.5900613-5.59006137 0-3.08730599-2.5027553-5.59006133-5.5900613-5.59006133-3.0873056 0-5.5900613 2.50275534-5.5900613 5.59006133 0 3.08730598 2.5027557 5.59006137 5.5900613 5.59006137z"/><path d="m51.1839198 14.2409972c-.578469-.3681159-1.3465832-.1975143-1.7151128.3813655l-9.5055891 14.938716c-.3681159.5784674-.1975176 1.3465828.3813652 1.7151128.2066256.1312633.437681.1942037.6654255.1942037.4107644 0 .8124214-.2033135 1.0492736-.5755693l3.4886136-5.482403v17.0306415l-12.3942008 2.0281583v-6.5817817c0-.6608694-.2633548-1.2944093-.7316761-1.7606614l-4.2372673-4.2182176-.4380947-.4380977v-11.0414067l1.0645957 1.1440992 1.1772267 1.2650106.0132493.0140803c.9002086.9677009 2.4149069 1.021944 3.3821941.1217387l.1573487-.1465855 5.1763964-4.8169749c.8078661-.7519676.8534181-2.0165641.1014505-2.8244298l-.0977226-.105178c-.7519676-.8078662-2.0165641-.8534148-2.8244298-.1014476l-4.0542438 3.7726707-4.6596262-5.007454c-.0604567-.0737064-.126294-.1428575-.1946174-.2095225l-.0149081-.0161495-.0012414.0012414c-.4455473-.4236033-1.0463754-.6848856-1.7097297-.6848856h-5.3917177c-.7101448 0-1.3490694.2993788-1.8016569.7772251l-.0012414-.0016555-3.565631 3.5523784-.0008294-.0103495-2.9983428 2.9971007c-.5200832.5200815-.7834359 1.2434772-.718426 1.9763951l.3879908 4.5511402c.1006211 1.1391298 1.106004 1.9805384 2.2447202 1.8799173s1.9805384-1.1060061 1.8799173-2.2447223l-.3552786-4.089854 2.4447197-2.30269v7.5527932c0 .4393374.1747416.8608702.4857147 1.1718429l9.8749464 9.8666665v-.0136663l.4380948.4380977v6.3465813l-11.4045533 1.8662536 4.8840581-5.0153198c.4517598-.4637693.7043461-1.085715.7043461-1.7333352v-4.5333319l-.7411995-.7403734-4.0364388-4.0331249c-.072877-.072877-.1975159-.0211188-.1971018.0819868l.0215325 8.2443069-5.920082 6.0343669c-.7134574.7188404-.8927531 1.7631479-.5486537 2.6496899l-9.55859122 1.5639753c-.90269139.1474128-1.51469958.9991692-1.36687352 1.9018606.10559005.6451341.57225665 1.1362334 1.15859197 1.3134594.15734988.0720514.3312629.1151139.51552788.1151139h46.33622539c.6861274 0 1.2422358-.5561084 1.2422358-1.2422359 0-.6861274-.5561084-1.2422358-1.2422358-1.2422358h-31.3018598l30.741199-5.0302283c.8008272-.1308496 1.388818-.8227738 1.388818-1.6343675v-23.5610741c0-.0281577-.0029002-.0513457-.0041416-.0770202l2.7084882-4.2567278c.3681159-.5784662.1975176-1.3465833-.3813651-1.7151132z"/></g></svg>