<svg height="53" viewBox="0 0 53 53" width="53" xmlns="http://www.w3.org/2000/svg"><g fill="#fff" transform="translate(4)"><path d="m18.7892408 34.1478645c-.156723-.1074807-.3035028-.2249046-.4455478-.3470633l-1.2329507 6.4668359-6.9379519 8.0203349c-1.03314078 1.1808676-.91382297 2.9753696.2670446 4.0089838 1.1808675 1.0331407 2.9753695.9138229 4.0089837-.2670446l.5511347-.64157 6.1344506-7.1268718c.7642022-.8877813 1.2845604-1.9592742 1.5099385-3.1088918l.7092781-3.6216744-4.5866335-3.3778304.0222537-.0042614z"/><path d="m39.6367139 7.65145062c.6946001-3.46116349-1.5476751-6.83028654-5.0088386-7.52516127-3.4611635-.69487474-6.8302818 1.54762303-7.525166 5.00878651-.6948842 3.46116349 1.5476278 6.83028184 5.0087913 7.52516604s6.8302818-1.5476278 7.5252133-5.00879128z"/><path d="m44.0680449 29.8528968-9.7518637-13.5714541c-.0757573-.1207382-.1586169-.2367417-.2495257-.3475368l-.0411931-.0572915-.0056818.0037879c-.3901503-.454544-.9053002-.811077-1.5189346-1.0033113l-4.231521-1.3262269c-1.1723448-.3674231-2.3830418-.1808706-3.3584176.4067222l-8.0388007 4.2400437-4.1197789-.8811526c.0179924.2130675.0326703.427082.0326703.6448844 0 .9322887-.1723479 1.822911-.4824795 2.646772l-.0023674.0014205c-.0809657.2159084-.173295.4256615-.2727265.6321003-.0189393.0388256-.0378786.0776513-.0572914.1160034-.1027459.2045448-.2121206.4048283-.3323854.598483l5.7556639 1.238159c.4578585.0984846.9346562.0478219 1.3617382-.1444124l2.7021697-1.5482906-2.2589892 7.2078374c-.4531236 1.4460182.1373102 2.9677938 1.3446928 3.7599315l9.8437194 7.5264918-5.3461008 6.991929c-.9531221 1.2462082-.7149599 3.0293466.5312483 3.9824687 1.2462083.953122 3.0293467.7149599 3.9824687-.5312484l5.3461008-6.991929 1.8579488-2.4299167.0156249-.0208333c.8712094-1.139201.6538806-2.7694042-.4857939-3.6406136l-.0203598-.015625-1.7992368-1.3759427-.6306799-.4820061-3.4853111-2.6647644 3.0416572-9.7059358 6.8295242 9.5047054c.756153 1.0525535 2.2182696 1.3011323 3.2802929.5577634 1.0800155-.756153 1.3342761-2.2495196.5643921-3.320539z"/><path d="m5.20831715 23.1701524c2.87645886 0 5.20831715-2.3318583 5.20831715-5.2083172 0-2.8764588-2.33185829-5.2083171-5.20831715-5.2083171-2.87645887 0-5.20831715 2.3318583-5.20831715 5.2083171 0 2.8764589 2.33185828 5.2083172 5.20831715 5.2083172z"/></g></svg>