<svg height="24" viewBox="0 0 24 24" width="24" xmlns="http://www.w3.org/2000/svg"><g fill="#fff"><path d="m7.40083683 17.1561567-1.16291472-.7304122.00943791-.0024621c-.35905095-.2090702-.64567619-.5098523-.84161542-.8609016l-.78745001 1.899277-3.85907752 1.6284499c-.62782623.2607735-.92553075.9811323-.66475718 1.6089586.26077357.6278262.9811303.9255307 1.60895653.6647571l3.57183881-1.5227863c.78703967-.3354562 1.41199349-.965129 1.74170485-1.7546307l.38736467-.9277876-.00389826-.0024621z"/><path d="m11.3163387 5.49808023c1.5065778.2656977 2.9429867-.74026046 3.2086844-2.24683823s-.7402604-2.94298468-2.2468382-3.20868238-2.94298674.74025842-3.20868444 2.24683619.74026046 2.94298672 2.24683824 3.20868442z"/><path d="m10.6854349 19.1649954-2.11286095 1.0500702c-.50739028.2521563-.71420363.8678774-.46204728 1.3752677s.86787743.7142036 1.37526771.4620473l1.78992022-.8896257-.4659455-1.9197941-.124129-.0779654z"/><path d="m23.379835 20.1935225-3.1612897-1.3604953.2755459-1.2860179.101355-.1134601.2819063-.2269202.8758791.8202775c.4138319.3875699 1.0607391.3771061 1.4616451-.0240051l.4513783-.4513783c.1784996-.1784996.1838341-.4663559.0116948-.6512159l-2.5451582-2.7349423v-.1120239c0-.282727-.2291771-.5121092-.5121093-.5121092h-.0010258c-.282727 0-.5121093.2291771-.5121093.5121092v.9058342l-.1210514.1210515-.9251204.9251204c-1.881427-.6899933-2.6120444-2.1040385-2.8929248-3.2000672.4532249-.1758324.7314381-.6536779.6364434-1.1481423-.1068946-.5564264-.6446503-.9208118-1.2010767-.8137121l-2.0277145.3438683-.6440349-3.27700673c-.0742722-.55724707-.473742-1.04268394-1.0504804-1.19799913l-2.18344013-.58761252c-.76590696-.20619782-1.55397249.24764257-1.75996515 1.01354953l-1.76755652 6.21753135c-.26959596.9214273.14013246 1.8783494.93414798 2.340807l-.00861722.0022569 4.61185554 2.8970282.9813375 4.0425033c.1518273.6627055.8120707 1.0769477 1.4747761.9249152.6627055-.1518272 1.0769477-.8120706.9249153-1.4747761l-.9932375-3.9481242c-.1627014-.6464968-.541654-1.2144129-1.0691512-1.6136775-.0761188-.0588844-.1553152-.1142808-.2373839-.165779l-1.7546307-1.098901.7406708-2.7029356c.1947082.539192.7566742.8725964 1.3375161.7607777l.0094379-.0018465 2.2542244-.3613079c.3087838 1.2291853 1.0908993 2.8215249 3.0539847 3.6793489l-.7970931.7970931h-2.6918562c.0578585.1491601.109767.3007822.1489549.4567129l.6077193 2.4156947h2.7521768l4.1180066 1.7722755c.5203161.2240478 1.1239321-.0164138 1.3477747-.5367299.2240478-.5205213-.0164138-1.123932-.5367299-1.3477747z"/></g></svg>