<svg height="54" viewBox="0 0 37 54" width="37" xmlns="http://www.w3.org/2000/svg"><g fill="#fff" transform="translate(.61312 .133413)"><path d="m33.1258979 28.7076797h-9.061035c1.534185 1.5021643 2.7390015 3.3071371 3.5378429 5.3001426h2.8709119v11.0419638c0 .7028418.2792027 1.3768993.7761878 1.8738835.4969842.4969847 1.1710409.7761878 1.8738835.7761878.7028427 0 1.3768994-.2792031 1.873884-.7761878.4969842-.4969842.7761873-1.1710417.7761873-1.8738835v-13.6920351c0-.7024592-.2788996-1.3761815-.7754073-1.8731035-.4965076-.4969224-1.1699945-.776383-1.8724551-.7769678z"/><path d="m15.7225267 10.3990402c2.5723626-1.85360871 3.1550275-5.4415685 1.3014191-8.01393067-1.8536087-2.57236254-5.4415682-3.15502776-8.01393071-1.30141903-2.57236253 1.85360872-3.15502775 5.44156815-1.30141903 8.01393068 1.85360846 2.57236222 5.44156814 3.15502772 8.01393064 1.30141902z"/><path d="m13.2503565 26.499287c-3.51421317 0-6.88449303 1.396016-9.36941674 3.8809398-2.48492416 2.4849237-3.88093976 5.8552026-3.88093976 9.3694167 0 3.5142123 1.3960156 6.884493 3.88093976 9.3694167 2.48492371 2.4849238 5.85520357 3.8809398 9.36941674 3.8809398 3.5142123 0 6.884493-1.396016 9.3694167-3.8809398 2.4849238-2.4849237 3.8809398-5.8552044 3.8809398-9.3694167 0-3.5142141-1.396016-6.884493-3.8809398-9.3694167-2.4849237-2.4849238-5.8552044-3.8809398-9.3694167-3.8809398zm0 22.0839275c-2.3428083 0-4.58966157-.9306768-6.24627812-2.5872929-1.65661566-1.6566165-2.58729288-3.9034698-2.58729288-6.2462781s.93067722-4.5896616 2.58729288-6.2462781c1.65661655-1.6566161 3.90346982-2.5872929 6.24627812-2.5872929s4.5896616.9306768 6.2462781 2.5872929c1.6566161 1.6566165 2.5872929 3.9034698 2.5872929 6.2462781s-.9306768 4.5896616-2.5872929 6.2462781c-1.6566165 1.6566161-3.9034698 2.5872929-6.2462781 2.5872929z"/><path d="m31.3593261 3.62422372c.3294102 0 .6453286.13085782.8782565.36378498.232928.23292717.3637854.5488484.3637854.87825697v5.38218173c0 .3294123-.1308574.6453274-.3637854.8782574-.2329279.2329272-.5488463.3637846-.8782565.3637846s-.6453286-.1308574-.8782566-.3637846c-.232928-.23293-.3637854-.5488451-.3637854-.8782574v-1.65605588h-1.6560559v6.78155108c0 .658818-.2617148 1.2906543-.7275712 1.7565115-.465856.4658572-1.0976926.7275724-1.7565127.7275724h-6.4172167l-.4021081 8.0310048c-1.818284-.9055882-3.8379147-1.3897443-5.9074627-1.3897443-2.8900903 0-5.6828324.9441848-7.9658289 2.6617334l.0004541-8.4431337c0-2.7614238 2.2385763-5 5-5h14.0361064v-5.12549518h-1.6560559v1.65605588c0 .3294123-.1308583.6453274-.3637863.8782574-.232928.2329272-.5488459.3637846-.8782557.3637846s-.6453277-.1308574-.8782557-.3637846c-.232928-.23293-.3637862-.5488451-.3637862-.8782574v-5.38218173c0-.32940857.1308582-.6453298.3637862-.87825697.232928-.23292716.5488459-.36378498.8782557-.36378498s.6453277.13085782.8782557.36378498c.232928.23292717.3637863.5488484.3637863.87825697v1.65605593h1.6974565c.0950228-.46795462.3489028-.88867107.7186227-1.19085864.3697198-.30219046.8325415-.46727233 1.3100466-.46727233.4775055 0 .940328.16508187 1.3100475.46727233.3697194.30218757.6235986.72290402.718621 1.19085864h1.6974573v-1.65605593c0-.32940857.1308574-.6453298.3637854-.87825697.232928-.23292716.5488464-.36378498.8782566-.36378498z"/></g></svg>