<svg height="53" viewBox="0 0 53 53" width="53" xmlns="http://www.w3.org/2000/svg"><g fill="#fff" fill-rule="evenodd" transform="translate(9)"><path d="m17.4383656 12.2296203c3.3771165 0 6.1148097-2.73769404 6.1148097-6.11481059s-2.7376932-6.11480971-6.1148097-6.11480971c-3.3771161 0-6.1148097 2.73769316-6.1148097 6.11480971s2.7376936 6.11481059 6.1148097 6.11481059z"/><path d="m33.2381157 1.47615855c-1.1459601-.344695-2.3594106.31434651-2.811454 1.42225899l-.259542.6363927c-1.9177864 4.70206401-5.2483194 8.68846476-9.5250631 11.41793506h-6.4123953c-4.26949646-2.7389805-7.5941416-6.73127313-9.51056826-11.4387698l-.25999129-.63865609c-.45294886-1.11199038-1.66866453-1.77374776-2.81688991-1.42769483-1.3171753.39678275-1.9784802 1.82809936-1.47163041 3.07325625l.90227369 2.21582496c1.8774726 4.61147561 6.43685725 9.33935091 10.67102328 12.08150381v11.8903638c0 1.590304-.4185248 3.1525237-1.2139034 4.5294887l-7.90078712 13.6849428c-.75053628 1.2999646-.30528799 2.9618335.99467526 3.7123685 1.29996325.7505353 2.96183219.3052893 3.71236846-.9946753l10.1016656-17.4965079 10.1016666 17.4965079c.7505367 1.2999646 2.4124056 1.7452106 3.7123703.9946753 1.2999646-.750535 1.7452106-2.4124039.9946752-3.7123685l-7.9560496-13.7800616c-.7949257-1.376965-1.2139029-2.9391847-1.2139029-4.5294887v-11.779843c4.2482079-2.723582 8.8438289-7.465048 10.7294559-12.08784503l.9004619-2.20767277c.5059425-1.24017355-.1540012-2.66605794-1.4684589-3.06148276z"/></g></svg>