<svg height="53" viewBox="0 0 53 53" width="53" xmlns="http://www.w3.org/2000/svg"><g fill="none" fill-rule="evenodd"><g fill="#fff" fill-rule="nonzero"><path d="m31.5946491 29.0648603c-.3735396-1.293147-1.7431845-2.0440065-3.0298207-1.6685767-1.2866361.3754297-2.0337152 1.7520055-1.6601757 3.0451525l2.7807943 10.0948892c.3735396 1.2931469 1.7431845 2.0440065 3.0298207 1.6685767 1.2866361-.3754298 2.0337152-1.7520056 1.6601756-3.0451525z"/><path d="m25.5350078 29.1065747c-.3735395-1.293147-1.7431845-2.0440065-3.0298206-1.6685767-1.2866362.3754297-2.0337153 1.7520055-1.6601757 3.0451525l2.7807942 10.0948892c.3735396 1.293147 1.7431845 2.0440065 3.0298207 1.6685767 1.2866361-.3754297 2.0337152-1.7520055 1.6601757-3.0451525z"/><path d="m32.5077457 32.3602993-4.0259261-14.5166175-9.9610541 4.4217283 3.6108821 12.8063264z"/><path d="m11.4235144 26.8122817c0 1.1680037.9130966 2.0857209 2.0752196 2.0857209s2.0752196-.9177172 2.0752196-2.0857209v-8.2594548c0-1.1680037-.9130966-2.0857209-2.0752196-2.0857209s-2.0752196.9177172-2.0752196 2.0857209z"/><path d="m36.1601322 18.9699711c1.0791142-.4588586 1.5356625-1.7102912 1.0376098-2.7531516-.4565483-1.0845749-1.7016801-1.5434335-2.7392899-1.0428605l-6.5161896 2.9200093c-1.0791142.4588586-1.5356625 1.7102911-1.0376098 2.7531516.4565484 1.0845749 1.7016801 1.5434335 2.7392899 1.0428605z"/><path d="m20.9280203 25.7694212c1.0791141-.4588586 1.5356625-1.7102911 1.0376098-2.7531516-.4565484-1.0845748-1.7016801-1.5434334-2.7392899-1.0428604l-6.5161896 2.9200093c-1.0791142.4588586-1.5356625 1.7102911-1.0376098 2.7531516.4565483 1.0845748 1.7016801 1.5434334 2.7392899 1.0428604z"/><path d="m42.2197735 16.2168195c1.0791142-.4588586 1.5356625-1.7102912 1.0376098-2.7531516-.4565483-1.0845749-1.7016801-1.5434335-2.7392899-1.0428605l-6.5161896 2.9200093c-1.0791142.4588586-1.5356625 1.7102912-1.0376098 2.7531516.4565483 1.0845749 1.7016801 1.5434335 2.7392899 1.0428605z"/><path d="m18.1887304 15.7996753c2.1997328 2.2108642 5.7276061 2.2108642 7.9273389 0s2.1997328-5.7565897 0-7.96745386-5.7276061-2.21086416-7.9273389 0-2.1997328 5.75658966 0 7.96745386z"/><path d="m36.3676542 10.0848c1.4526537 1.4600047 3.8184041 1.4600047 5.2295534 0 1.4111493-1.46000461 1.4941581-3.83772645 0-5.3394455-1.4941581-1.50171906-3.8184041-1.50171906-5.2295534 0-1.4111494 1.50171905-1.4941581 3.87944089 0 5.3394455z"/><path d="m34.4999565 40.0357523c0-1.3765758-1.0791142-2.4611507-2.4487591-2.4611507-1.369645 0-2.4487592 1.0845749-2.4487592 2.4611507v9.0520287c0 1.3765758 1.0791142 2.4611507 2.4487592 2.4611507 1.3696449 0 2.4487591-1.0845749 2.4487591-2.4611507z"/><path d="m25.0784595 42.1631876c1.2451317.500573 2.6977855-.0834289 3.1958382-1.3348614s-.0830088-2.7114372-1.3281406-3.2120102l-8.1348609-3.295439c-1.2451317-.5005731-2.6977855.0834288-3.1958382 1.3348613-.4980527 1.2514326.0830088 2.7114372 1.3281406 3.2120102z"/></g><path d="m0 0h53v53h-53z"/></g></svg>