<svg height="53" viewBox="0 0 53 53" width="53" xmlns="http://www.w3.org/2000/svg"><g fill="none" fill-rule="evenodd"><g fill="#fff" fill-rule="nonzero"><path d="m15.394604 16.723744c3.1128294 0 5.603093-2.5028651 5.603093-5.6314465 0-3.12858135-2.4902636-5.63144644-5.603093-5.63144644s-5.60309296 2.50286509-5.60309296 5.63144644c0 3.1285814 2.53176796 5.6314465 5.60309296 5.6314465z"/><path d="m27.0988426 29.696928c-.8300878.8342884-2.116724.8342884-2.9468118 0-.8300879-.8342884-.8300879-2.1274353 0-2.9617237l7.2217642-7.2583087c.8300879-.8342884 2.116724-.8342884 2.9468119 0 .8300878.8342883.8300878 2.1274353 0 2.9617236z"/><path d="m19.7110608 25.2334853c-.8300878-.8342884-.8300878-2.1274354 0-2.9617237.8300878-.8342884 2.116724-.8342884 2.9468118 0l4.44097 4.4634427c.8300879.8342884.8300879 2.1274353 0 2.9617237-.8300878.8342884-2.116724.8342884-2.9468118 0z"/><path d="m23.7784912 47.3004125-3.6523865-3.9211553-3.4448645 3.4622967 3.6523865 3.9211553c.954601.9594316 2.4902635.9594316 3.4448645 0 .9546011-.9594316.9546011-2.5028651 0-3.4622967z"/><path d="m47.8510388 5.12713571-1.2451318-1.08457487c-.6640703-.58400185-1.5771669-.58400185-2.1997328.12514326l-10.0025585 11.1794641c-.5810615.6674307-.5395571 1.501719.0830087 2.1691497l-3.2788469 3.6708688 1.2451317 1.1262893 3.278847-3.58744c.6640703.6257163 1.5771669.4588586 2.1582284-.1668576l10.0440629-11.22117852c.6225659-.66743069.5810615-1.62686231-.0830087-2.21086417z"/><path d="m16.556727 45.0061195c.954601-.9594317.954601-2.5028651 0-3.4622967-.954601-.9594317-2.4902636-.9594317-3.4448646 0l-6.18415442 6.2154483c-.95460103.9594316-.95460103 2.5028651 0 3.4622967.95460102.9594316 2.49026353.9594316 3.44486452 0z"/><path d="m14.4815074 30.990075-4.60698757 8.2177403c-.70557467 1.2514326-.41504393 3.086867.66407027 4.1297274l.4150439.4171442 11.1231772-9.677745z"/><path d="m22.5333595 39.0826721c1.8261932-1.8354344 2.5732723-4.5051572 1.9507064-7.0497367l-2.7392899-11.0960352c-.2905307-1.2514326-1.4111493-2.0857209-2.6562811-2.0857209h-5.9766325c-1.2866361 0-2.2412372 1.2514325-1.909202 2.5028651l3.8184041 14.766904h3.4863689l-5.188049 5.1725878c-.9130966.9177172-1.0376098 2.3777219-.2490264 3.3788679.9546011 1.1262893 2.6147767 1.2097181 3.6108822.1668577z"/><path d="m26.5592855 23.0226211c-1.162123 0-2.0752196-.9177172-2.0752196-2.0857209s.9130966-2.0857209 2.0752196-2.0857209h6.1841545c1.162123 0 2.0752196.9177172 2.0752196 2.0857209s-.9130966 2.0857209-2.0752196 2.0857209z"/><path d="m19.0884949 23.0226211c-1.162123 0-2.0752196-.9177172-2.0752196-2.0857209s.9130966-2.0857209 2.0752196-2.0857209h7.5953038c1.162123 0 2.0752196.9177172 2.0752196 2.0857209s-.9130966 2.0857209-2.0752196 2.0857209z"/></g><path d="m0 0h53v53h-53z"/></g></svg>