<svg height="53" viewBox="0 0 53 53" width="53" xmlns="http://www.w3.org/2000/svg"><g fill="none" fill-rule="evenodd"><path d="m0 0h53v53h-53z"/><g fill="#fff" fill-rule="nonzero"><path d="m12.5619292 17.3848232c2.1582284 0 4.5654832-1.001146 5.9766325-2.6280083.4565483-.5422875.4565483-1.2514326 0-1.79372-1.4111493-1.5851479-3.8184041-2.6280084-5.9766325-2.6280084s-4.52397873 1.0011461-5.97663246 2.6280084c-.49805271.5422874-.49805271 1.2514325 0 1.79372 1.41114934 1.6268623 3.81840406 2.6280083 5.97663246 2.6280083z"/><path d="m22.5644878 19.5539729.2490263 2.294293v12.0137525h10.3760981v-17.0194826z"/><path d="m45.6824343 17.9688251c1.1206186-.292001 1.7846888-1.4182903 1.4941581-2.5445796-.2905308-1.1262892-1.4111494-1.7937199-2.5317679-1.501719l-5.9766325 1.5434335c-1.1206186.2920009-1.7846889 1.4182902-1.4941582 2.5445795.2905308 1.1262893 1.4111494 1.7937199 2.531768 1.501719z"/><path d="m39.830315 19.4288297c1.1206185-.2920009 1.7846888-1.4182902 1.4941581-2.5445795-.2905308-1.1262893-1.4111494-1.79372-2.531768-1.5017191l-6.3916764 1.6268623c-1.1206186.292001-1.7846888 1.4182903-1.4941581 2.5445795.2905308 1.1262893 1.4111494 1.79372 2.5317679 1.5017191z"/><path d="m25.3867864 23.1414129c1.1206186-.2920009 1.7846889-1.4182902 1.4941582-2.5445795-.2905308-1.1262893-1.4111494-1.79372-2.531768-1.5017191l-5.9766325 1.5017191c-1.1206185.2920009-1.7846888 1.4182902-1.4941581 2.5445795.2905308 1.1262893 1.4111494 1.79372 2.531768 1.5017191z"/><path d="m17.7499783 24.4345599c.9961054.5840018 2.2412371.2502865 2.8222986-.7091451.5810615-1.0011461.2490264-2.2525786-.7055746-2.8365805l-5.6445974-3.3788678c-.9961054-.5840019-2.2412372-.2502866-2.8222987.7091451-.5810614.9594316-.2490263 2.2525785.7055747 2.8365804z"/><path d="m18.6215705 38.5340332c1.0376098-.8760028 2.5732723-.7508595 3.4448646.2502865.8715922 1.0428605.747079 2.5862939-.2490264 3.4622967l-6.6407028 5.7148753c-1.0376098.8760028-2.5732723.7508595-3.4448645-.2502865-.8715923-1.001146-.7470791-2.5862939.2490263-3.4622967z"/><path d="m22.9795317 30.4414361c.6640703-1.1680037 2.1582284-1.5851479 3.3618558-.8760028 1.1621229.6674307 1.5771669 2.1691497.8715922 3.3788679l-4.8560139 8.6348845c-.6640703 1.1680037-2.1582284 1.5851479-3.3618558.8760028-1.2036273-.7091451-1.5771669-2.1691497-.8715922-3.3788679z"/><path d="m35.181823 38.9928918c-.0830088-1.3765758.954601-2.5028651 2.324246-2.5862939 1.3696449-.0834289 2.4902635.9594316 2.5732723 2.3360074l.4565483 8.7600278c.0830088 1.3765758-.954601 2.5028651-2.3242459 2.5862939-1.369645.0834289-2.4902636-.9594316-2.5732724-2.3360074z"/><path d="m28.5826246 33.2363021c-.954601-.9594316-.954601-2.5028651 0-3.4622967.9546011-.9594316 2.4902636-.9594316 3.4448646 0l7.2632687 7.2165943c.954601.9594316.954601 2.5028651 0 3.4622967-.9546011.9594317-2.4902636.9594317-3.4448646 0z"/><path d="m28.0015632 14.8819581c3.1128294 0 5.6030929-2.5028651 5.6030929-5.63144644 0-3.12858136-2.4902635-5.63144645-5.6030929-5.63144645-3.1128295 0-5.603093 2.50286509-5.603093 5.63144645 0 3.12858134 2.5317679 5.63144644 5.603093 5.63144644z"/></g></g></svg>