<svg height="53" viewBox="0 0 53 53" width="53" xmlns="http://www.w3.org/2000/svg"><g fill="none" fill-rule="evenodd"><g fill="#fff" fill-rule="nonzero"><path d="m25.3037777 36.7239489c0-1.3765758-1.0791142-2.4611507-2.4487592-2.4611507-1.3696449 0-2.4487591 1.0845749-2.4487591 2.4611507v9.3023152c0 1.3765758 1.0791142 2.4611507 2.4487591 2.4611507 1.369645 0 2.4487592-1.0845749 2.4487592-2.4611507z"/><path d="m30.0352784 15.6581677c2.1582284-2.3360074 1.909202-5.88173295-.4150439-7.96745386-2.324246-2.08572091-5.8521194-1.91886324-7.9688434.4588586-2.1582284 2.33600746-1.909202 5.88173296.415044 7.96745386 2.3242459 2.0857209 5.8936237 1.8354344 7.9688433-.4588586z"/><path d="m37.0910251 28.3810652c1.1621229 0 2.0752196-.9177172 2.0752196-2.0857209s-.9130967-2.0857209-2.0752196-2.0857209l-6.6407028-.0417144c-1.162123 0-2.0752196.9177172-2.0752196 2.0857209s.9130966 2.0857209 2.0752196 2.0857209z"/><path d="m32.6915595 48.4874148-25.44219248.0417144c-.5810615 0-1.03760981-.4588586-1.03760981-1.0428604 0-.5840019.45654831-1.0428605 1.03760981-1.0428605l25.35918368-.0417144c2.6562811 0 5.0635359-1.0011461 6.8897291-2.8782949.4150439-.4171442 1.0376098-.4171442 1.4526537 0 .3320352.4171442.415044 1.0428605 0 1.4600047-2.1997327 2.2108641-5.1465446 3.4622967-8.259374 3.5040111z"/><g transform="translate(11.975096 17.871795)"><path d="m10.3403653 10.092126 1.8676976-3.46229674 4.8975183 3.42058224h2.4072548c.1660175-.12514321.3735395-.29200088.4980527-.50057297.6640703-.95943162.4150439-2.25257858-.5395571-2.87829485l-8.3838873-5.92344738c-1.99221079-1.41829022-4.77300507-.75085953-5.97663245 1.41829022l-4.27495241 7.92573948z"/><path d="m12.000541 16.5578608-3.85990851-2.4194363 1.07911419-2.002292h-9.17247069c-.24902635 1.6268623.49805271 3.295439 1.95070644 4.2131562l7.67831257 4.6303004c1.162123.6674307 2.6977855.2502865 3.3203514-.9594316.6225659-1.2514326.1660176-2.7531516-.9961054-3.4622967z"/></g><path d="m35.2233274 26.2536299-27.80794281.0417144c-.62256589 0-1.0791142.5005731-1.03760981 1.1262893.04150439.5422875.49805271.9594316 1.03760981.9594316l27.80794281-.0417144c.5810615 0 1.0376098-.500573 1.0376098-1.0428604-.0415044-.5840019-.4980527-1.0428605-1.0376098-1.0428605z"/><g transform="translate(36.260937 7.857572)"><path d="m10.3345937 0-1.7431845.04171442.04150439 31.66124338c0 .4588586.37353953.8342884.87159224.8342884.53955707 0 .91309667-.3754298.87159227-.8760028z"/><path d="m0 6.25716272 8.75742677 4.71372928v-9.42745853z"/></g></g><path d="m0 0h53v53h-53z"/></g></svg>