<svg height="53" viewBox="0 0 53 53" width="53" xmlns="http://www.w3.org/2000/svg"><g fill="none" fill-rule="evenodd"><g fill="#fff" fill-rule="nonzero"><path d="m27.9422625 36.4795981c-.954601.9594316-.954601 2.5028651 0 3.4622967.9546011.9594316 2.4902636.9594316 3.4448646 0l6.4746852-6.5074492c.954601-.9594316.954601-2.5028651 0-3.4622967s-2.4902635-.9594316-3.4448646 0z"/><path d="m23.9993453 40.359039c.954601-.9594316.954601-2.5028651 0-3.4622967s-2.4902636-.9594316-3.4448646 0l-5.8936237 5.9234474c-.954601.9594316-.954601 2.5028651 0 3.4622967s2.4902636.9594316 3.4448646 0z"/><path d="m21.8826213 35.1864511c-.7055747 0-1.4111494-.1668576-1.9922109-.5422874l-.0415043 3.9211553c0 1.3765758 1.0791142 2.4611507 2.4487591 2.4611507s2.4487591-1.0845749 2.4487591-2.4611507v-3.3788679z"/><path d="m32.8397808 24.7161322c.8300879.8342883 2.116724.8342883 2.9468119 0l5.188049-5.2143023c.8300879-.8342883.8715923-2.2525786.0415044-3.0451525-.8300878-.792574-2.0752196-.7508595-2.9053074.0417144l-3.8184041 3.8377265-2.7392899-2.7531516c-.8300879-.8342884-1.9507065-1.293147-3.1128294-1.293147h-3.278847l-2.5732724 2.6697228s-3.2373426 9.9697459-3.6938909 11.6800371c-.4980527 1.9188632 1.2451318 3.4205823 2.9053075 3.4205823l14.3190153.0417144c1.4111494 0 2.5732723-1.2514326 2.4487592-2.6697228-.1245132-1.293147-1.2451318-2.2108642-2.5732724-2.2108642l-7.0557466-.0417144 1.9922108-6.2154483z"/><path d="m12.0460803 21.5875508c-.8300878.8342884-.8300878 2.1274354 0 2.9617237.8300878.8342884 2.116724.8342884 2.9468119 0l4.6484919-4.6720148c.8300878-.8342884.8300878-2.1274353 0-2.9617237-.8300879-.8342884-2.116724-.8342884-2.9468119 0z"/><path d="m18.2717391 16.2898197c-1.1621229 0-2.0752196.9177172-2.0752196 2.0857209s.9130967 2.0857209 2.0752196 2.0857209h7.1387555c1.162123 0 2.0752196-.9177172 2.0752196-2.0857209s-.9130966-2.0857209-2.0752196-2.0857209z"/><path d="m24.7464243 13.2446672c2.1997328 2.2108642 5.7276062 2.2108642 7.927339 0s2.1997328-5.75658971 0-7.96745387-5.7276062-2.21086416-7.927339 0-2.1997328 5.75658967 0 7.96745387z"/><path d="m33.1303116 46.7830594c1.9507064 1.9605776 5.0635358 1.9605776 7.0142423 0 1.9507064-1.9605777 1.9507064-5.089159 0-7.0497367-1.9507065-1.9605776-5.0635359-1.9605776-7.0142423 0-1.9507065 1.9605777-1.9507065 5.089159 0 7.0497367z"/></g><path d="m0 0h53v53h-53z"/></g></svg>