<svg height="53" viewBox="0 0 53 53" width="53" xmlns="http://www.w3.org/2000/svg"><g fill="none" fill-rule="evenodd"><g fill="#fff" fill-rule="nonzero"><path d="m17.5617305 48.5037791c.9961054.9177172 2.5317679.8760028 3.4448646-.1251432.9130966-1.0011461.8715922-2.5445795-.1245132-3.4622967l-5.8106149-5.4228744c-.9961054-.9177172-2.531768-.8760028-3.4448646.1251433-.9130966 1.001146-.8715922 2.5445795.1245132 3.4622967z"/><path d="m28.6018989 18.6362557c2.8222986 1.3348614 6.1011456.1251433 7.4707906-2.7114371 1.3281405-2.8365805.1245131-6.13201951-2.6977855-7.50859531-2.8222987-1.37657579-6.1011457-.12514325-7.4707906 2.71143721-1.3281406 2.8365804-.0830088 6.2154483 2.6977855 7.5085952z"/><path d="m4.32182937 28.7728594c-.95460102.9594316-.95460102 2.502865 0 3.4622967.95460102.9594316 2.49026354.9594316 3.44486456 0l6.18415447-6.2154483c.954601-.9594317.954601-2.5028651 0-3.4622968-.954601-.9594316-2.4902636-.9594316-3.4448646 0z"/><path d="m42.5888791 5.70478611c0-1.1680037-.9130967-2.0857209-2.0752197-2.0857209-1.1621229 0-2.0752196.9177172-2.0752196 2.0857209v12.09718129c0 1.1680037.9130967 2.0857209 2.0752196 2.0857209 1.162123 0 2.0752197-.9177172 2.0752197-2.0857209z"/><path d="m17.9767744 5.82992937c0-1.16800371.9130967-2.08572091 2.0752196-2.08572091 1.162123 0 2.0752197.9177172 2.0752197 2.08572091v10.72060543c0 1.1680037-.9130967 2.0857209-2.0752197 2.0857209-1.1621229 0-2.0752196-.9177172-2.0752196-2.0857209z"/><path d="m18.5578359 18.0105395c-.8300878-.8342884-.8300878-2.1274354 0-2.9617237.8300879-.8342884 2.116724-.8342884 2.9468119 0l6.7652159 6.7994501c.8300879.8342884.8300879 2.1274354 0 2.9617237-.8300878.8342884-2.116724.8342884-2.9468118 0z"/><path d="m42.0078176 19.261972c.7885834-.8342883.747079-2.1691497-.0415044-2.9617237-.7885835-.7925739-2.1582284-.7508595-2.9468119.0417144l-7.0557467 7.4251665c-.7885834.8342883-.747079 2.1691497.0415044 2.9617237.8300879.7925739 2.1582284.7508595 2.9468119-.0417145z"/><path d="m46.7808227 6.66421773h-33.5770534c-.4565483 0-.7885834-.37542976-.7885834-.79257394 0-.4588586.3735395-.79257395.7885834-.79257395h33.5770534c.4565483 0 .7885834.37542977.7885834.79257395s-.3320351.79257394-.7885834.79257394z"/><path d="m18.7653579 37.4494583-2.9883163-3.295439-4.6484919 5.0057302c-.9130966 1.001146-.8715922 2.5445795.1245132 3.4622967s2.5317679.8760028 3.4448645-.1251433l4.3994656-4.7137292c-.1245132-.1251433-.2075219-.2085721-.3320351-.3337154z"/><path d="m39.8080848 21.5145506-4.5654832.5422874v-.9594316h-9.3384882v2.0440065h.0830087l-1.9507064.2502865-4.6899963 5.1308734-5.3125622-5.9234473c-.9961055-.9594317-2.4902636-1.0011461-3.486369-.0417145-.95460101 1.0011461-.9961054 2.5028651-.0415044 3.5040112l8.3838873 9.4274585c2.0337152 2.294293 5.6030929 2.3360074 7.7198169.0834288z"/></g><path d="m0 0h53v53h-53z"/></g></svg>