<svg height="53" viewBox="0 0 53 53" width="53" xmlns="http://www.w3.org/2000/svg"><g fill="none" fill-rule="evenodd"><g fill="#fff" fill-rule="nonzero"><path d="m17.1866998 48.1700638c.4565483-.4588586.7470791-1.1262893.7470791-1.7520056v-14.266331l-2.9468119.500573c-.5810615.0834289-1.0791142.4171442-1.4526537.8760028s-.5810615 1.0011461-.5810615 1.6268623v11.2628929c0 .6674307.2490263 1.293147.7470791 1.7520056.4565483.4588586 1.1206185.7508595 1.7431844.7508595s1.2866362-.2920009 1.7431845-.7508595z"/><path d="m14.986967 32.6940147c-.5810615.0834288-1.0791142.4171441-1.4941581.8760027-.3735395.4588586-.5810615 1.0011461-.5810615 1.6268623v3.0034382l13.7794582-2.7114372-.8715922-4.9223014z"/><path d="m25.985631 9.25051166c0-3.12858136-2.4902636-5.63144645-5.603093-5.63144645s-5.6030929 2.50286509-5.6030929 5.63144645c0 3.12858134 2.4902635 5.63144644 5.6030929 5.63144644s5.603093-2.5445795 5.603093-5.63144644z"/><path d="m12.9117474 24.0174157c-.2905307-1.1262893-1.4111493-1.79372-2.5317679-1.5017191-1.12061862.292001-1.78468889 1.4182902-1.49415815 2.5445795l1.86769765 7.3000232c.2905308 1.1262893 1.4111493 1.79372 2.5317679 1.5017191 1.1206186-.292001 1.7846889-1.4182903 1.4941582-2.5445795z"/><path d="m17.0206822 16.9259646c-1.0791142 0-2.1582284.4588586-2.9468118 1.2097181l-4.64849195 4.7554437c-.87159224.8760028-.78858345 2.294293.16601757 3.0868669.83008788.7091451 2.07521958.5840019 2.86380308-.2085721l4.1504392-4.1714418 3.1958382 13.8074724h10.3760981l-1.0791142-4.588586c.0830088 0 .1245132 0 .207522-.0417144 1.1206185-.2920009 1.7431844-1.4600046 1.4526537-2.5445795l-2.0752196-8.1343115c-.4565483-1.8354344-2.116724-3.1285814-4.0259261-3.1285814h-7.6368082z"/><path d="m35.9881895 39.1597495c-1.162123-.6674307-2.6562811-.2502865-3.3618558.9177172-.6640702 1.1680037-.2490263 2.6697227.9130967 3.3788678l8.3423828 5.0057302c1.162123.6674307 2.6562811.2502865 3.3618558-.9177172s.2490263-2.6697227-.9130966-3.3788679z"/><path d="m29.4304955 31.3591533c-.9130966-1.0011461-2.4487591-1.0845749-3.4448645-.2085721s-1.0791142 2.4611507-.207522 3.4622967l6.7237116 8.0508827c.9130966 1.001146 2.4487591 1.0845749 3.4448645.2085721.9961054-.9177172 1.0791142-2.4611507.207522-3.4622967z"/></g><path d="m0 0h53v53h-53z"/></g></svg>