<svg height="53" viewBox="0 0 53 53" width="53" xmlns="http://www.w3.org/2000/svg"><g fill="none" fill-rule="evenodd"><g fill="#fff" fill-rule="nonzero" transform="matrix(1 0 0 -1 6.211757 52)"><path d="m26.8912268 11.2628929c3.1128294 0 5.6030929-2.50286509 5.6030929-5.63144645s-2.4902635-5.63144645-5.6030929-5.63144645c-3.1128295 0-5.603093 2.50286509-5.603093 5.63144645s2.5317679 5.63144645 5.603093 5.63144645z"/><path d="m30.5851177 39.7121261c-.7055747-1.1680037-2.1997328-1.5434335-3.3618558-.8342884s-1.5356625 2.2108642-.8300878 3.3788679l4.4824743 7.5503097c.7055747 1.1680037 2.1997328 1.5434334 3.3618558.8342883s1.5356625-2.2108641.8300878-3.3788678z"/><path d="m31.9547626 35.2069689h-3.9429172l-1.8261933 4.7554437c-.4980527 1.2514325.1660176 2.7114372 1.4111493 3.1702958 1.2451318.500573 2.6977855-.1668577 3.1543338-1.4182902l2.5732724-6.7160214c-.415044.1251433-.8715923.2085721-1.369645.2085721z"/><path d="m31.9547626 13.1400417h-6.9312335v19.9812063h6.9312335c1.8261933 0 3.278847-1.501719 3.278847-3.295439v-13.3486138c.0415044-1.8354344-1.4526537-3.3371535-3.278847-3.3371535z"/><path d="m12.6137158 17.3114835c-1.162123 0-2.0752196-.9177172-2.0752196-2.0857209s.9130966-2.0857209 2.0752196-2.0857209h6.1841545c1.162123 0 2.0752196.9177172 2.0752196 2.0857209s-.9130966 2.0857209-2.0752196 2.0857209z"/><path d="m18.6733571 17.3114835c-1.162123 0-2.0752196-.9177172-2.0752196-2.0857209s.9130966-2.0857209 2.0752196-2.0857209h6.557694c1.162123 0 2.0752196.9177172 2.0752196 2.0857209s-.9130966 2.0857209-2.0752196 2.0857209z"/><path d="m17.7602605 33.121248c1.3696449 0 2.4487591-1.0845749 2.4487591-2.4611507s-1.0791142-2.4611506-2.4487591-2.4611506h-8.75742681c-1.36964494 0-2.44875914 1.0845748-2.44875914 2.4611506s1.0791142 2.4611507 2.44875914 2.4611507z"/><path d="m26.7252092 33.121248c1.3696449 0 2.4487591-1.0845749 2.4487591-2.4611507s-1.0791142-2.4611506-2.4487591-2.4611506h-8.7574268c-1.3696449 0-2.4487591 1.0845748-2.4487591 2.4611506s1.0791142 2.4611507 2.4487591 2.4611507z"/><path d="m42.0403298 30.7018118c0 1.1680037-.9130965 2.0857209-2.0752195 2.0857209s-2.0752196-.9177172-2.0752196-2.0857209v-7.8840251c0-1.1680037.9130966-2.0857209 2.0752196-2.0857209s2.0752195.9177172 2.0752195 2.0857209z"/><path d="m41.4177641 21.2326388c.8300876.8342884.8300876 2.1274354 0 2.9617237-.8300879.8342884-2.116724.8342884-2.9468119 0l-7.1387555-7.1748799c-.8300878-.8342884-.8300878-2.1274353 0-2.9617237.8300879-.8342883 2.116724-.8342883 2.9468119 0z"/><path d="m.78496402 22.4006425c1.57716691 3.1285814 4.3164568 3.7125833 5.64459735 3.086867 1.28663616-.7091451 2.1582284-3.1285814.58106149-6.2571627-1.6186713-3.1702958-4.10893483-3.8794409-5.43707539-3.2120102-1.28663616.6674307-2.36575036 3.2120102-.78858345 6.3823059z"/></g><path d="m0 0h53v53h-53z"/></g></svg>