<svg height="53" viewBox="0 0 53 53" width="53" xmlns="http://www.w3.org/2000/svg"><g fill="none" fill-rule="evenodd"><path d="m0 0h53v53h-53z"/><g fill="#fff" fill-rule="nonzero"><path d="m32.8160727 14.4002638c2.8222986-1.3348614 4.0674304-4.67201481 2.6977855-7.50859525-1.3281406-2.83658043-4.648492-4.08801298-7.4707907-2.71143718-2.8222986 1.3765758-4.0674304 4.67201484-2.6977855 7.50859523 1.2866362 2.7948661 4.648492 4.0462986 7.4707907 2.7114372z"/><path d="m16.4633421 16.5694136-7.80282575.0417144c-1.16212298 0-2.07521961.9177172-2.07521961 2.1274353s.91309663 2.0857209 2.11672401 2.0857209l7.80282575-.0417144c1.162123 0 2.0752196-.9177172 2.0752196-2.1274353 0-1.2097182-.9130966-2.0857209-2.116724-2.0857209z"/><path d="m37.0910251 24.2031521c1.1206186.4171442 2.2827415-.1251433 2.6562811-1.2514326.4150439-1.1262892-.1245132-2.294293-1.2451318-2.6697227l-7.1387555-2.6697228c-1.1206186-.4171442-2.2827415.1251433-2.6562811 1.2514326-.4150439 1.1262893.1245132 2.294293 1.2451318 2.6697227z"/><path d="m36.6344767 20.5739977c-.8715922.792574-.954601 2.0857209-.1660175 2.9617237.7885834.8760028 2.0752196.9594316 2.9468118.1668577l5.6861018-5.089159c.8715922-.792574.954601-2.085721.1660175-2.9617237-.7885834-.8760028-2.0752196-.9594317-2.9468118-.1668577z"/><path d="m19.7836935 33.0883232c-.207522-.1668577-.4565483-.3754298-.6640703-.5840019l-1.9507064 6.2154483c-.3735396 1.293147.3735395 2.6697228 1.7016801 3.0451525 1.2866361.3754298 2.6562811-.3754297 3.0298206-1.7102911l1.3696449-4.3382995z"/><path d="m32.9405858 45.9363639c.6640703 1.1680037 2.116724 1.6268623 3.3618558.9594317 1.162123-.6674307 1.6186713-2.1274354.954601-3.3788679l-4.9390226-8.176026c-.6640703-1.1680037-2.1167241-1.6268623-3.3618558-.9594316-1.162123.6674307-1.6186713 2.1274353-.954601 3.3788679z"/><path d="m11.0677711 38.6780552c-1.32814055.2920009-2.19973278 1.5434335-1.90920204 2.9200093.29053075 1.3348613 1.53566254 2.2108641 2.90530744 1.9188632l7.7613214-1.5851479c1.3281405-.2920009 2.1997328-1.5434335 1.909202-2.9200093-.2905307-1.3348614-1.5356625-2.2108641-2.9053074-1.9188632z"/><path d="m19.2856408 25.1208693c-1.1206186 2.7114372-.9961054 5.2143023 1.2451317 6.9663078l8.0933565 6.2988772c1.0791142.7925739 2.531768.6257162 3.4033602-.4588586.8300879-1.0845749.5810615-2.7114372-.5810615-3.58744l-3.6938909-2.7531516 5.1465446-13.3903282-5.9766324-2.3360074c-1.5356626-.5840019-3.1543339-.7091452-4.7315008-.3754298l-5.6861017 1.1262893c-1.0376098.2085721-1.8261933 1.1680037-1.7431845 2.294293.1245132 1.2514325 1.3281406 2.0857209 2.4902636 1.8354344l4.025926-.792574z"/><path d="m32.6500551 29.2923111h12.9493704v-2.6697228h-12.9493704c-.7470791 0-1.3281406.5840019-1.3281406 1.3348614 0 .7091451.5810615 1.3348614 1.3281406 1.3348614z"/><path d="m13.6410434 10.1871076c0-2.08572092-1.6601757-3.75429765-3.69389089-3.75429765-2.03371522 0-3.7353953 1.66857673-3.7353953 3.75429765 0 1.5851479 1.16212298 3.4205823 2.73928989 4.2965851v2.294293h1.9922108v-2.294293c1.5356625-.8342884 2.6977855-2.7114372 2.6977855-4.2965851z"/></g></g></svg>