<svg height="53" viewBox="0 0 53 53" width="53" xmlns="http://www.w3.org/2000/svg"><g fill="none" fill-rule="evenodd"><g fill="#fff" fill-rule="nonzero"><path d="m23.0600208 25.1955956c2.8222987 1.3348613 6.1011457.1251432 7.4707906-2.7114372 1.3281406-2.8365804.1245132-6.1320195-2.6977855-7.5085953-2.8222986-1.3765758-6.1011456-.1251432-7.4707906 2.7114372-1.3281405 2.8365804-.0830088 6.2154483 2.6977855 7.5085953z"/><path d="m14.8836555 15.8098515c0-1.1680037.9130967-2.0857209 2.0752196-2.0857209 1.162123 0 2.0752197.9177172 2.0752197 2.0857209v9.0520287c0 1.1680037-.9130967 2.0857209-2.0752197 2.0857209-1.1621229 0-2.0752196-.9177172-2.0752196-2.0857209z"/><path d="m15.7137434 26.6138858c-.9130966-.7508595-1.0376098-2.0440065-.2490264-2.9617237.7470791-.9177172 2.0337152-1.0428605 2.9468119-.2502865l6.350172 5.3811599c.9130966.7508596 1.0376098 2.0440065.2490264 2.9617237-.7470791.9177172-2.0337153 1.0428605-2.9468119.2502865z"/><path d="m36.7149659 22.943017c0 1.1680037-.9130967 2.0857209-2.0752196 2.0857209-1.162123 0-2.0752197-.9177172-2.0752197-2.0857209v-10.7206055c0-1.1680037.9130967-2.0857209 2.0752197-2.0857209 1.1621229 0 2.0752196.9177172 2.0752196 2.0857209z"/><path d="m29.327184 31.3693295c-.8300878.8342883-2.116724.8342883-2.9468118 0-.8300878-.8342884-.8300878-2.1274354 0-2.9617237l6.7652159-6.7994502c.8300879-.8342884 2.116724-.8342884 2.9468119 0 .8300878.8342884.8300878 2.1274353 0 2.9617237z"/><path d="m19.615156 26.947601h11.24769v14.641761h-11.24769z"/><path d="m14.4686116 41.9230772c.5395571-.0834288 1.0791142-.1251432 1.7016801-.1251432 2.9053075 0 4.6899963 1.0428604 6.1426501 1.8771488 1.1206185.6674307 2.0337152 1.1680037 3.2788469 1.1680037 1.2451318 0 2.1582284-.500573 3.278847-1.1680037 1.4526538-.8342884 3.2373426-1.8771488 6.1426501-1.8771488.3735395 0 .7055747 0 1.0376098.0417144.3735395-.6257163.7055747-1.293147.954601-2.0022921.5395571-1.5434334-.6225659-3.2120102-2.2827416-3.2120102h-18.9675072c-1.6601757 0-2.8222987 1.6268623-2.2827416 3.2120102.2490264.7508596.5810615 1.4600047.9961054 2.0857209z"/><path d="m4.881097 48.3470976h1.86769765c4.89751825 0 6.01813685-3.0451525 9.42149705-3.0451525s4.5239788 3.0451525 9.421497 3.0451525c4.8975183 0 6.0181369-3.0451525 9.4214971-3.0451525s4.5239787 3.0451525 9.421497 3.0451525h1.8676977c.5810615 0 .9961054-.4588586.9961054-1.001146 0-.5840019-.4565483-1.0428604-.9961054-1.0428604h-1.8676977c-3.5278733 0-4.7315007-3.0451526-9.421497-3.0451526s-5.8936237 3.0451526-9.4214971 3.0451526c-3.5278733 0-4.7315007-3.0451526-9.421497-3.0451526-4.7315007 0-5.8936237 3.0451526-9.42149705 3.0451526h-1.86769765c-.58106149 0-1.03760981.4588585-1.03760981 1.0428604 0 .5422874.45654832 1.001146 1.03760981 1.001146z"/><path d="m45.4723926 6.25724973-6.4746852 1.20971812c-.3320351.04171442-.6225658.20857209-.8300878.4588586l-1.4111493 1.58514789-22.6613982 4.21315626-1.8676977-1.0011461c-.2905307-.1668576-.6225659-.2085721-.954601-.1251432l-6.47468519 1.2097181c-.78858345.1251433-1.32814055.9177172-1.16212298 1.7102912l.33203514 1.9188632c.12451317.7925739.91309663 1.3348614 1.70168008 1.1680037l6.47468515-1.2097181c.3320352-.0417144.6225659-.2085721.8300879-.4588586l1.4111493-1.5851479 22.7029026-4.2131563 1.8676977 1.0011461c.2905307.1668577.6225658.2085721.954601.1251432l6.4746852-1.2097181c.7885834-.1251432 1.3281405-.9177172 1.162123-1.71029113l-.3320352-1.91886324c-.1660175-.79257394-.954601-1.29314696-1.7431845-1.1680037z"/></g><path d="m0 0h53v53h-53z"/></g></svg>