<svg height="53" viewBox="0 0 53 53" width="53" xmlns="http://www.w3.org/2000/svg"><g fill="#fff" fill-rule="evenodd" transform="translate(7)"><path d="m38.0629958 5.59303472c.9354365-.90603656.9055911-2.43347256-.1100261-3.29897528-.8851015-.75458614-2.2232215-.6423341-3.0588784.16704238l-10.6898226 10.30139248c-.9960181.9599365-2.3256772 1.4962548-3.7092332 1.4962548h-2.2597484c-1.3844482 0-2.714551-.5367638-3.7110141-1.4980357l-10.67823965-10.29961158c-.83565737-.80937648-2.17333323-.92162852-3.05843515-.16704238-1.01561769.86550272-1.04546215 2.39293872-.1100248 3.29942028l13.092113 12.63107828v13.268957c0 .4450009-.1113607.883321-.3233931 1.274422l-2.2539591 4.1551214c-.2213868.4080293-.5937791.7140528-1.0369986.8516948l-7.81045648 2.4290203c-1.41473808.4213918-2.21965965 1.9100713-1.7982674 3.3248103.42183771 1.4142935 1.91007399 2.2192147 3.32481207 1.7978229l3.35510152-1.0926813-.0053458.0093557 5.11149789-1.5835618 1.1354427-.3501222c.6654969-.2053498 1.2249775-.6619333 1.5586173-1.2735315l3.1074329-5.6932491-.0200442.0062363 1.2004757-2.2094135h.2761781l-.0053458 8.8046918c0 .1171529-.0463282.2294049-.1282895.3127016l-6.1030587 6.1819072c-1.043235 1.0441272-1.0418986 2.7368211.0022276 3.7796128 1.0441272 1.0432367 2.7368229 1.0418977 3.7796124-.0022294l2.4446078-2.4967251v.011137l3.7364041-3.823266.8352119-.8521398c.4877642-.4975623.7617146-1.1657318.7639423-1.8624112l.0209346-6.4861467-.0151438.015147.0075721-5.8941471-.0146984-.0022259v-12.5562438l13.1482393-12.67562198z"/><path d="m19.3649408 12.0243799c3.3203572 0 6.0121868-2.6918328 6.0121868-6.0121904 0-3.32035716-2.6918296-6.0121895-6.0121868-6.0121895s-6.0121904 2.6913869-6.0121904 6.0121895 2.6913878 6.0121904 6.0121904 6.0121904z"/></g></svg>