<svg height="53" viewBox="0 0 53 53" width="53" xmlns="http://www.w3.org/2000/svg"><g fill="#fff" fill-rule="evenodd" transform="translate(1)"><path d="m11.3820243 37.2708931-4.44080469-4.4368976.0234508 8.9398036-6.20870176 6.3285583c-1.01357697 1.0213947-1.00706298 2.671171.01433078 3.6847479 1.02139376 1.013577 2.67117049 1.0070613 3.68474746-.0143329l6.96562751-7.1523589c.4737838-.4863784.7386865-1.1386482.7386865-1.8178398v-4.7543439l-.7773366-.7764686z"/><path d="m12.3786775 11.7251834c3.2378195 0 5.8625917-2.62477131 5.8625917-5.86259168 0-3.23782038-2.6247722-5.86259172-5.8625917-5.86259172-3.23782 0-5.86259263 2.62477134-5.86259263 5.86259172 0 3.23782037 2.62477263 5.86259168 5.86259263 5.86259168z"/><path d="m49.5062576 47.5065336v-1.0830574c0-.39692-.1376633-.7855899-.3877988-1.0934845l-4.2336601-5.2268241-.105528-.1307154h1.7904794l1.8004683 2.0749232c.5163437.5992863 1.4096289.6930856 2.0388791.2136576.6978665-.5315412.78993-1.5468556.199762-2.1956491l-2.24646-2.4297156c-.4112495-.4481634-.9914281-.7030784-1.5994015-.7030784h-4.4416714l-2.8904744-3.5740109c1.3214716-.5159081 2.2590502-1.7978593 2.2590502-3.3017235 0-1.9585408-1.5876758-3.5466509-3.5466508-3.5466509-1.2376574 0-2.3259299.6348996-2.9603921 1.5959295l-1.0869671-1.3440543c-.0347422-.0429919-.0716526-.0812095-.1103027-.1150818l-.8268426-1.0205244c-.66269-.8181568-1.6467381-1.2875993-2.6998329-1.2875993h-1.2411332c-.025187-.1459125-.0647048-.2913912-.1215941-.434266-.4442537-1.1191049-1.7114416-1.6658437-2.8305453-1.2215883l-4.9701745 1.8960043-3.7173174-8.8425253c-.0082506-.0204092-.0247536-.0343079-.0438618-.0416896-.4746528-1.0609124-1.5368671-1.8013369-2.7740915-1.8013369h-4.78604531c-1.67887256 0-3.03986237 1.3609911-3.03986237 3.0398624v13.0305889l10.86577008 10.8566513v-.0143325l.4594543.4594526v9.1287085c0 1.439159 1.1664399 2.6055963 2.6055972 2.6055963 1.4391577 0 2.6055963-1.1664373 2.6055963-2.6055963v-10.2282688c0-.6930891-.2761954-1.3575157-.7673507-1.8464988l-4.4438428-4.423867-.4594543-.4594561v-6.0501942l.151994.3569658c.5289364 1.3323287 2.0380092 1.9832953 3.3699032 1.4543601l.0199784-.007819 6.5330981-2.454906c.3604417-.1433087.6535708-.3778093.8811254-.659215h1.7031901c.5263314 0 1.0183544.2345041 1.3496998.6435814l.7873226.972323 1.2446087 9.0605261c.2536109 1.8464988 1.1095498 3.4758646 2.3480752 4.7122201l-1.6311015 5.8999412c-1.3531739.0946708-2.4223374 1.2189843-2.4223374 2.596475 0 1.439159 1.1664391 2.6055963 2.6055964 2.6055963 1.439159 0 2.6055963-1.1664373 2.6055963-2.6055963 0-.8837328-.4412139-1.6636737-1.1143276-2.134852l1.4343812-5.1881761c1.2689241.7881942 2.7601964 1.2433033 4.3483064 1.2433033h3.6947369l2.0592883 2.5421922v1.0830608c-1.0114069.3582682-1.7370642 1.3201693-1.7370642 2.4540379 0 1.439159 1.1664373 2.6055963 2.6055964 2.6055963 1.439159 0 2.6055963-1.1664373 2.6055963-2.6055963 0-1.1338686-.7256577-2.0962035-1.7370642-2.4540379z"/></g></svg>