<svg height="53" viewBox="0 0 53 53" width="53" xmlns="http://www.w3.org/2000/svg"><g fill="#fff" transform="translate(3)"><path d="m24.8300228 13.1649989c3.6117735-.5804548 6.0695066-3.97878971 5.4890517-7.59105387-.5804548-3.61177349-3.9787897-6.0695066-7.5910538-5.48905176-3.6122642.58045483-6.0695067 3.97878973-5.4890518 7.59105389.5804548 3.61177354 3.9787897 6.06950664 7.5910539 5.48905174z"/><path d="m47.162078 39.5715233-1.7428365-1.8610864c-.2782061-.297342-.6673022-.4661302-1.0745529-.4661302h-5.449308c-.0897914-.4057787-.2639769-.7992908-.5328605-1.1510964l-1.9091714-2.4435039-2.9268073 5.8158336-.8846662 1.7580471h13.8043249c.858661 0 1.3032021-1.0249959.7163686-1.6520638z"/><path d="m41.5042381 18.1501394c.0063786-.0147199.0112852-.0299305.0171732-.0446504.0475943-.106474.0804688-.2158919.1010766-.3262912.0485757-.1923401.0819408-.3905681.0819408-.5981187 0-1.3547217-1.0985954-2.4533172-2.4533171-2.4533172h-22.5832749c-1.6334186 0-3.0960863 1.0112574-3.6726158 2.539674l-6.85064279 18.1545468c-.23061181.610876-.29439806 1.2310745-.22766783 1.822324h-3.92727008c-1.09908608 0-1.9896402.8905541-1.9896402 1.9896402 0 1.099086.89055412 1.9896402 1.9896402 1.9896402h21.862981l2.0023975-3.9792804h-6.3221983l7.6028298-5.9870752 1.0519824 1.3512871 2.9194474-5.8006231-.2315931-.2963607-1.0662117-1.3939748c-.9116526-1.1923121-2.6176893-1.4199799-3.8104921-.5078366l-5.6990558 4.5072342 3.5779178-9.4820707h13.585489l-15.716931 31.2312179c-.3655442.7261818-.0726182 1.610848.6530731 1.9763922.2124572.1069647.4381624.157503.6609236.157503.5387484 0 1.056889-.2968514 1.3159593-.810576l17.1217003-34.0221114c.002944-.0053973.0039253-.0112853.0063787-.0166826z"/></g></svg>