<svg height="53" viewBox="0 0 53 53" width="53" xmlns="http://www.w3.org/2000/svg"><g fill="#fff" fill-rule="evenodd"><path d="m12.5066931 11.9202204c2.9901263-1.99190494 3.7993443-6.03063979 1.8074391-9.02076645-1.9919054-2.99012705-6.03063985-3.79934538-9.02076611-1.80744046-2.99012705 1.99190545-3.79934578 6.03064016-1.80744033 9.02076721 1.99190519 2.9901267 6.0306403 3.7993451 9.02076734 1.8074397z"/><path d="m52.5623556 10.0391513c-.8449282-1.35535857-2.6282934-1.76938854-3.9841335-.92445703l-18.0413709 11.24482583-7.929217-5.5867447 11.8492443-3.3777884c1.3442708-.4299342 2.0460489-1.91639117 1.4724797-3.23270755-.4998252-1.14761695-1.8556647-1.67395157-3.0563011-1.28980306l-13.1313355 3.78796061c-1.3592121.4347517-2.6384152 1.0849592-3.7879606 1.9245845l-3.6660161 2.6789004c-.1002544.0732625-.1899041.1537548-.2814822.2328022l-.0115687-.0163863-6.57820075 5.0045012-.58802743-4.2525976c-.18171026-1.3143894-1.4050011-2.2340255-2.73191981-2.0542422-1.31968886.1788193-2.2465558 1.3784883-2.0764133 2.6870928l1.08062178 8.3070996c.23713912 1.8238505 2.37669312 2.7121578 3.85592118 1.6006886l6.76328393-5.0821025c.1894221.1966539.3942684.3831812.6289976.5485047l13.1776089 9.2840936v18.1266841c0 1.5973166 1.2946254 2.8919406 2.8919406 2.8919406 1.5973146 0 2.8919405-1.294624 2.8919405-2.8919406v-22.9586352l20.326966-12.6695895c1.3553547-.8449316 1.7693847-2.6282934.9244565-3.984133z"/></g></svg>