<svg height="53" viewBox="0 0 53 53" width="53" xmlns="http://www.w3.org/2000/svg"><path d="m19.6937008 3.30894134c.548343.00753593 1.0778875.20086171 1.5020117.54842578l8.5156508 6.93596098c.5250312.4292171.9531719.9647656 1.2563484 1.5714085.3031766.6066016.4744742 1.2705508.5025477 1.9481227-1.1046774.1787094-2.1755258.5252797-3.1754453 1.0277031-.5204766.2609008-1.0946985.3965891-1.6769532.3962588-.5826687.0004131-1.1573461-.1354408-1.6781953-.3966728-1.5363375-.7721438-3.2318406-1.1746953-4.9513593-1.1755235-.3627188 0-.7246094.0219453-1.0852579.0579688l4.2499375-3.444586-3.7058179-2.78167183-5.8188617 4.47932813c-.4006055.320443-.9071696.4782422-1.418868.4420117-.5116985-.0361891-.9910172-.2637992-1.3425149-.6374492-.1907171-.2123727-.3357632-.4616797-.4260289-.7324766-.090307-.2707968-.1239289-.5572867-.0987953-.8416234s.108443-.560475.2448352-.81123126c.1363922-.25075625.3228859-.47078906.5478875-.64643437l7.042375-5.4325c.4335648-.33580469.9682023-.51455547 1.5165039-.50701953zm10.8798234-.26255704c1.5208516-2.55385468 4.8240766-3.39121328 7.3780555-1.87032031 2.5535234 1.52085156 3.3911719 4.82407656 1.8703203 7.37788985-1.5208516 2.55381326-4.8242422 3.39121326-7.3780555 1.87032026-2.5538547-1.52089292-3.3912132-4.82407651-1.8703203-7.3778898zm6.8298367 20.7903266-1.9995078-1.0140391c-.5999765-.3029281-1.2626422-.4607273-1.934707-.4607273-.6721063 0-1.3347719.1577992-1.934707.4607273-1.475636.7458508-3.1058414 1.1344484-4.7592344 1.1344484s-3.2836399-.3885976-4.7592344-1.1344484c-.5999351-.3030109-1.2626422-.4608516-1.934707-.4608516-.6721063 0-1.3348133.1578407-1.9347485.4608516-1.4756773.7458508-3.1059656 1.1344484-4.7594 1.1344484-1.6534757 0-3.283764-.3885976-4.75944136-1.1344484-.59993516-.3030109-1.26264219-.4608516-1.93470703-.4608516-.67210625 0-1.33481328.1578407-1.93470703.4608516l-1.58378906.8036953c-.2974625.155232-.52254688.4203977-.62751172.7390602-.10492344.3186625-.08140469.6657297.0656289.9672914.06960391.1486898.16835782.2819351.29034063.3918273s.26475156.1941953.41990078.2479821c.15514922.0537453.31949062.0758976.48329375.0650492.16384453-.0108071.32383828-.0543664.47058203-.1280696l1.58333359-.8036953c.2583336-.130264.54362266-.1981289.83292813-.1981289.28926406 0 .57455312.0678649.83288672.1981289 1.81744453.9181836 3.82523357 1.3965086 5.86146877 1.3965086 2.0362351 0 4.0439828-.478325 5.8614687-1.3965086.258168-.130264.5432914-.1981289.8324727-.1981289.2891398 0 .5743047.0678649.8324726.1981289 1.8173204.9201711 3.8261032 1.3987032 5.863125 1.3966395 2.0364008.0014012 4.0444797-.4770481 5.8614688-1.3966395.258168-.130264.5432914-.1981289.8324726-.1981289.2891399 0 .5743047.0678649.8324727.1981289l1.9978516 1.0140391c.1465781.0738687.3068203.1175109.470375.1284422.1639687.0109312.3283515-.0111383.483625-.0648836.1552734-.0537453.298125-.1380899.4202734-.247982.1217344-.1099336.2206953-.2432204.2902578-.3919516.1469922-.3017274.1701797-.6487945.0654219-.9675399-.1051719-.3187039-.3304219-.5839109-.6277188-.7392257zm1.3403204-5.0772344-1.2765547-.7995547-.0981328-.0554844c-1.2094766-.6085062-2.5442485-.9254297-3.8979844-.9254297-1.3537774 0-2.6887149.3169235-3.8979844.9254297-.8674609.4365461-1.8250633.6639078-2.7961641.6639078-.9711007 0-1.9287445-.2273617-2.796164-.6639078-1.2092281-.6084648-2.5441242-.9254297-3.8977774-.9254297-1.3536945 0-2.6885906.3169649-3.8977773.9254297-.8675024.4364633-1.8251047.6637836-2.7961641.6637836-.9711008 0-1.9287031-.2273203-2.796164-.6637836-1.20931097-.6085062-2.54424847-.9254297-3.89798441-.9254297-1.35377734 0-2.68871484.3169235-3.89798437.9254297l-2.16761719 1.2570938c-.28802188.1706765-.49799297.4471047-.58507031.7703633-.08711875.3232586-.04421593.6677586.11883593.9600039.10641407.1937398.26276407.3554312.45281875.4683047.19001328.1128734.40685782.1727468.62788438.1734922.21518828.0000828.42656719-.0570993.61239844-.1656251l2.07279687-1.2040937c.86468672-.4290102 1.81740313-.6509063 2.78266563-.6481734.9653039.0027328 1.91673671.2300117 2.77902187.6639078 1.20931091.6082992 2.54424841.9251398 3.89798441.9251398 1.3536945 0 2.688632-.3168406 3.8979843-.9251398.8674196-.4365461 1.8250219-.6639493 2.7961641-.6639493.9711008 0 1.9287031.2274032 2.7961641.6639493 1.2091867.6082992 2.5439586.9250984 3.8975703.9250984 1.3535703 0 2.6883422-.3167992 3.8975703-.9250984.8593453-.4324055 1.8072586-.659643 2.76925-.6639078.9620328-.0042235 1.9118922.21465 2.7750469.6394781l1.2264531.7685c.139125.0867461.2939844.1447562.4558828.1706351.1618984.0259203.3275234.0191711.4865234-.0198336.1594141-.0390461.3088907-.1095195.4405625-.2072796.1316719-.0978016.2422266-.2209438.3254532-.3621391.1730781-.2868625.2269062-.6300375.1507187-.9561945-.0766015-.3261985-.2778359-.6095-.5602265-.789493zm-36.55716411-14.30171876.01200781.00869531c.03560938.02732813.07328907.05175782.11055469.07701563l3.96920313 2.77421875c.12744843.08674609.27845703.13225156.4326125.1304433.15415546-.00195971.30400468-.05115033.42925859-.14100189.12525391-.08985157.21990859-.21601641.27112812-.36143516.05121954-.14541875.05651954-.30305234.0151961-.45157656l-1.30678125-4.65075c-.01407813-.05424219-.02815625-.10848438-.04596094-.1623125l-.00248437-.0099375c-.16272657-.4862336-.4743086-.90895-.89064844-1.20823438-.32715078-.23767187-.70858516-.38971562-1.10952188-.44230156s-.80866406-.00401641-1.18604062.14127813c-.35853672.13287265-.68191953.34603203-.9453875.62308125-.26350938.27709062-.46010625.61078359-.57480156.97553124-.11469532.36478907-.144425.75094375-.08691172 1.12894141.05751328.37803906.2007375.73785938.4187414 1.05200859.13693047.19531329.30197578.36930235.48983594.51633594zm-.76560156 7.13843746c.14281015.003768.28528906-.0155273.42192969-.0571406l.00828125-.0028984c.02567187-.0082813.05092968-.0186328.07660156-.0281563l2.75848437-1.0041015c.08960313-.0399157.16616328-.104261.22081953-.1857071.05465625-.0814047.08521407-.176639.08819532-.2746476.00298125-.09805002-.02173828-.19494065-.07134297-.27953361-.04960469-.08463438-.12206563-.15353438-.20910156-.19879141l-2.67525782-1.159375c-.03064062-.01407813-.0616539-.02857031-.09353672-.04140625l-.00583828-.00248438c-.28843593-.10728359-.60531797-.11005781-.89557578-.00786718-.24073594.08923047-.4558414.23622265-.62643515.42805781s-.2914586.42263359-.35203594.67210625c-.28611719 1.10099217.41613281 2.11378907 1.3548125 2.14194527z" fill="#fff" transform="translate(5.795366 13.661617)"/></svg>