<svg height="53" viewBox="0 0 53 53" width="53" xmlns="http://www.w3.org/2000/svg"><g fill="none" fill-rule="evenodd"><g fill="#fff" fill-rule="nonzero"><path d="m25.5854103 16.2257626c3.1128294 0 5.603093-2.5028651 5.603093-5.6314464 0-3.12858139-2.4902636-5.63144648-5.603093-5.63144648s-5.603093 2.50286509-5.603093 5.63144648c0 3.1285813 2.531768 5.6314464 5.603093 5.6314464z"/><path d="m29.2793012 18.3949124h-8.1763653l4.4824744 17.2280547h6.9312335c1.8261933 0 3.071325-.9177172 2.6147767-2.7114372l-3.1958382-12.3891822c-.2905307-1.2514326-1.4111493-2.1274353-2.6562811-2.1274353z"/><path d="m10.8928554 22.5663542c-1.16212296 0-2.07521959-.9177172-2.07521959-2.0857209s.91309663-2.0857209 2.07521959-2.0857209h6.1841545c1.162123 0 2.0752196.9177172 2.0752196 2.0857209s-.9130966 2.0857209-2.0752196 2.0857209z"/><path d="m16.9524967 22.5663542c-1.162123 0-2.0752196-.9177172-2.0752196-2.0857209s.9130966-2.0857209 2.0752196-2.0857209h6.557694c1.162123 0 2.0752196.9177172 2.0752196 2.0857209s-.9130966 2.0857209-2.0752196 2.0857209z"/><path d="m9.4402017 21.9823523c-.83008785-.8342883-.83008785-2.1274353 0-2.9617237.8300878-.8342883 2.116724-.8342883 2.9468118 0l7.2217643 7.2583088c.8300879.8342884.8300879 2.1274353 0 2.9617237-.8300878.8342884-2.116724.8342884-2.9468118 0z"/><path d="m19.5672734 29.1989467c-.8300878.8342883-2.116724.8342883-2.9468118 0-.8300879-.8342884-.8300879-2.1274354 0-2.9617237l4.4409699-4.4634428c.8300879-.8342883 2.116724-.8342883 2.9468119 0 .8300878.8342884.8300878 2.1274354 0 2.9617237z"/><path d="m11.9304652 3.04400649c0-1.3765758-.6640702-2.04400649-1.5356625-2.04400649-.87159222 0-1.57716689.66743069-1.57716689 2.04400649l.5395571 15.89319331c.0415044.8342884.37353953 1.2097181 1.03760979 1.2097181.7055747 0 .9961054-.4588586 1.0376098-1.2097181z"/><path d="m36.667083 39.8361233c-.954601-.9594316-2.4902635-.9594316-3.4448645 0s-.954601 2.5028651 0 3.4622967l6.4331808 6.4657348c.954601.9594316 2.4902635.9594316 3.4448645 0 .9546011-.9594316.9546011-2.5028651 0-3.4622967z"/><path d="m30.5659374 36.2486833c1.1206186-.7925739 1.4111493-2.294293.6225659-3.4205823-.7885835-1.1262892-2.2827416-1.4182902-3.4033602-.6257162l-7.2217643 5.0057302c-1.1206186.7925739-1.4111493 2.294293-.6225659 3.4205822.7885835 1.1262893 2.2827416 1.4182903 3.4033602.6257163z"/><path d="m24.4232873 39.2521214c0-1.3765758-1.0791142-2.4611506-2.4487591-2.4611506-1.369645 0-2.4487592 1.0845748-2.4487592 2.4611506v8.8017423c0 1.3765758 1.0791142 2.4611506 2.4487592 2.4611506 1.3696449 0 2.4487591-1.0845748 2.4487591-2.4611506z"/><path d="m35.0069073 32.3692424c-.3320351-1.3348613-1.6601757-2.0857209-2.9883162-1.7520055-1.3281406.3337153-2.0752196 1.6685767-1.7431845 3.0034381l2.2412372 8.5097413c.3320351 1.3348614 1.6601757 2.0857209 2.9883162 1.7520056 1.3281406-.3337154 2.0752197-1.6685768 1.7431845-3.0034381z"/></g><path d="m0 0h53v53h-53z"/></g></svg>