<svg height="53" viewBox="0 0 53 53" width="53" xmlns="http://www.w3.org/2000/svg"><g fill="none" fill-rule="evenodd"><g fill="#fff" fill-rule="nonzero"><path d="m22.8610533 14.4002638c2.8222986 1.3348614 6.1011456.1251433 7.4707906-2.7114372 1.3281405-2.83658039.1245131-6.13201943-2.6977855-7.50859523-2.8222987-1.3765758-6.1011457-.12514325-7.4707906 2.71143718-1.3281406 2.83658044-.0830088 6.21544835 2.6977855 7.50859525z"/><path d="m12.0699113 9.31110481c.3735395-1.08457488 1.5356625-1.66857673 2.6562811-1.25143255 1.0791142.37542976 1.6601757 1.54343347 1.2451317 2.66972274l-3.1128294 8.8017423c-.3735395 1.0845748-1.5356625 1.6685767-2.6562811 1.2514325-1.12061858-.4171442-1.66017568-1.5434335-1.24513176-2.6697228z"/><path d="m32.5315767 26.4557307c-1.162123 0-2.0752197-.9177172-2.0752197-2.0857209 0-1.1680038.9130967-2.085721 2.0752197-2.085721h7.8443301c1.162123 0 2.0752196.9177172 2.0752196 2.085721 0 1.1680037-.9130966 2.0857209-2.0752196 2.0857209z"/><path d="m31.7429932 35.1740441c-.2490264-1.3348614-1.4941581-2.2108642-2.8222987-2.0022921-1.3281405.2502865-2.1997328 1.501719-1.9922108 2.8365804l1.3281406 7.675453c.2490263 1.3348613 1.4941581 2.2108641 2.8222986 2.002292 1.3281406-.2502865 2.1997328-1.501719 1.9922109-2.8365804z"/><path d="m22.944062 16.9031289h-11.9117605c-1.16212303 0-2.19973283.9594316-2.15822844 2.1691498.04150439 1.1262892.95460102 2.002292 2.07521964 2.002292h11.9947693c1.162123 0 2.0752197-.9177172 2.0752197-2.0857209s-.9546011-2.0857209-2.0752197-2.0857209z"/><path d="m34.0257348 25.8717288c.8300878-.8342884.8300878-2.1274353 0-2.9617237l-4.3994656-4.4217283c-1.0376098-1.0428605-2.4072548-1.6268623-3.8599085-1.6268623h-7.4292862l-1.2866362 12.1806101c-.2490263 2.4611507 1.162123 4.8388725 3.486369 5.7148753l7.8028257 2.9617237c1.2451318.5422874 2.6977855-.0834289 3.1958382-1.3348614.4980527-1.2514326-.0830087-2.7114372-1.3281405-3.2120102l-3.7768997-1.4182902.9961054-9.5943162 3.6108821 3.6291544z"/><path d="m24.5212289 37.8437668-4.4824743-1.7102911c-.207522-.0834289-.3735395-.1668577-.5810615-.2502865l.207522 2.8782948-2.0337153 8.2177404c-.3320351 1.3348614.4565483 2.6697228 1.7846889 2.9617237 1.3281406.3337153 2.6562811-.4588586 2.9468118-1.79372l2.1167241-8.5514557c.0415043-.2502865.0830087-.4588586.0830087-.6674307 0-.0834288 0-.1668577 0-.2920009z"/></g><path d="m0 0h53v53h-53z"/></g></svg>