<svg height="53" viewBox="0 0 53 53" width="53" xmlns="http://www.w3.org/2000/svg"><g fill="#fff" fill-rule="evenodd" transform="translate(0 15)"><path d="m50.9830595 9.89782434c2.3757557-1.97673672 2.6992259-5.50512882.7224892-7.8808845-1.976737-2.375756-5.5051304-2.69922459-7.8808861-.72248787-2.3757557 1.97673673-2.6992223 5.50512798-.7224853 7.88088398 1.9767367 2.37575565 5.5051265 2.69922515 7.8808822.72248839z"/><path d="m48.8755048 18.6574857h-6.1329156l-1.0638909-5.3787394-.7388347-4.05406003c-.0886333-.48634452-.2906149-.94496322-.5895713-1.33867717-.2989564-.3937156-.6864769-.71144889-1.1311473-.92744344-.4446704-.21599622-.9339835-.32417841-1.4282662-.31577385-.4942822.00840291-.9796317.13315749-1.4167043.3641456l-12.0601833 6.37214329-6.1329156 1.1173748v.0024893l-16.21375063 2.9561702c-.63236281.1352646-1.18720178.5114583-1.54691851 1.0488434-.35971673.5373856-.49603728 1.1937265-.38006829 1.8299112.11596857.6361847.4751119 1.2022074 1.00130876 1.5781014.52619645.375894 1.17808782.532115 1.81750481.4355477l24.69087286-4.4981076v-.0058041l10.436984-1.9005737.9577485 4.8542583c.1114626.5651545.4156067 1.0741081.8605175 1.4400017.4449109.3658932 1.0030083.5660463 1.5790508.5662963h7.4911794c.5498065 0 1.0770971-.218408 1.4658701-.607181.388773-.3887731.6071815-.9160624.6071815-1.4658705s-.2184085-1.0770991-.6071815-1.4658713-.9160636-.6071811-1.4658701-.6071811z"/></g></svg>