<svg height="53" viewBox="0 0 53 53" width="53" xmlns="http://www.w3.org/2000/svg"><g fill="none" fill-rule="evenodd"><g fill="#fff" fill-rule="nonzero"><path d="m18.9536056 34.9972508c.9130967-1.001146.8715923-2.5445795-.1245131-3.4622967-.9961055-.9177172-2.531768-.8760028-3.4448646.1251432l-5.39557099 5.8400186c-.91309663 1.001146-.87159224 2.5445795.12451319 3.4622967.9961054.9177172 2.5317679.8760028 3.4448645-.1251433z"/><path d="m24.1831591 35.2475373-2.9883163-3.3371535-.9961054-1.1262892h-2.9468118c-1.369645 0-2.4487592 1.0845748-2.4487592 2.4611506s1.0791142 2.4611507 2.4487592 2.4611507l7.3877818-.0417144c-.1660176-.0834289-.3320352-.2502865-.4565483-.4171442z"/><path d="m39.2907579 22.7332119-3.8599085-4.2965851-10.2100805 8.4263125-5.8106149-6.4657349c-.9961055-.9594316-2.4902636-1.001146-3.486369-.0417144-.954601 1.0011461-.9961054 2.5028651-.0415044 3.5040111l6.3916764 7.0914511s0 0 .0415044.0417144l2.9468119 3.2954391c1.4941581 1.7102911 4.1089348 1.9188632 5.8521193.4588586l5.4370754-4.5051572v4.0045842c.0415044 1.2097181 1.1206186 2.1691497 2.3657503 1.9605776 1.0791142-.1668577 1.8261933-1.1680037 1.7846889-2.2525786l.0415044-6.6743069c0-1.6268623-.3320352-3.2120102-1.4526537-4.5468715z"/><path d="m35.8043889 25.0692193c.6640703.9594316 1.9507064 1.2097181 2.9053075.500573.954601-.6674307.954601-2.1691498.2905307-3.1702958l-13.7379538-15.35090587c-.6640703-.95943162-1.9507065-1.20971812-2.9053075-.50057302-.954601.70914511-1.2036274 1.96057766-.4980527 2.92000927z"/><path d="m39.7888106 19.1874863c2.8222986 1.3348614 6.1011456.1251433 7.4707906-2.7114372 1.3281405-2.8365804.1245131-6.1320194-2.6977855-7.50859523-2.8222987-1.3765758-6.1011457-.12514326-7.4707906 2.71143713-1.3281406 2.8365805-.0830088 6.2154484 2.6977855 7.5085953z"/><path d="m39.9133237 35.7898247-6.0596412 4.9640158c-.9130967.7508595-2.1997328.5840019-2.9053075-.3337153-.7470791-.9177172-.5810615-2.2108642.3320351-2.9200093l6.0596413-4.9640158c.9130966-.7508595 2.1997328-.5840018 2.9053075.3337154.7055746.9177172.5810615 2.1691497-.3320352 2.9200092z"/><path d="m8.66051635 19.6463449c-1.36964494 0-2.44875914 1.0845749-2.44875914 2.4611507s1.0791142 2.4611507 2.44875914 2.4611507h8.75742675c1.369645 0 2.4487592-1.0845749 2.4487592-2.4611507s-1.0791142-2.4611507-2.4487592-2.4611507z"/><path d="m24.7642206 24.0680732v-23.0680732h-2.0752197v20.9823523z"/><path d="m28.4996159 46.093286c-3.1958382 0-5.810615-2.6280083-5.810615-5.8400185v-2.5445795h2.0752197v2.5445795c0 2.0857209 1.6601756 3.7542976 3.7353953 3.7542976 2.0752196 0 3.7353953-1.6685767 3.7353953-3.7542976v-1.4182902h2.0752196v1.4182902c0 3.2120102-2.6147767 5.8400185-5.8106149 5.8400185z"/><path d="m33.272621 49.8475837c-.5810615 0-1.0376098-.4588586-1.0376098-1.0428605v-11.0960352c0-.5840019.4565483-1.0428605 1.0376098-1.0428605s1.0376098.4588586 1.0376098 1.0428605v11.0543208c0 .6257163-.4980527 1.0845749-1.0376098 1.0845749z"/></g><path d="m0 0h53v53h-53z"/></g></svg>