<svg height="53" viewBox="0 0 53 53" width="53" xmlns="http://www.w3.org/2000/svg"><g fill="#fff" fill-rule="evenodd" transform="translate(6)"><path d="m38.8409162 28.7076797h-9.061035c1.534185 1.5021643 2.7390015 3.3071371 3.5378429 5.3001426h2.8709119v11.0419638c0 .7028418.2792027 1.3768993.7761878 1.8738835.4969842.4969847 1.1710409.7761878 1.8738835.7761878.7028427 0 1.3768993-.2792031 1.873884-.7761878.4969842-.4969842.7761873-1.1710417.7761873-1.8738835v-13.6920351c0-.7024592-.2788997-1.3761815-.7754073-1.8731035-.4965076-.4969224-1.1699945-.776383-1.8724551-.7769678z"/><path d="m12.7818742 17.665716v7.9153204c1.949884-.8526732 4.0553312-1.2919592 6.1834988-1.2901422 1.4956724-.0002906 2.9834618.2166297 4.4167855.6439678v-6.3857889c0-1.4056853-.5584062-2.7537977-1.5523751-3.7477675-.9939689-.9939693-2.3420822-1.5523751-3.7477675-1.5523751h-11.04196329v.0070664c-.36233762.0057255-.71817904.0971092-1.03843927.2666815-.32026023.1695719-.59584777.412519-.80424231.7089864l-4.79530844 6.8482282c-.33824229.4832232-.47069683 1.0810073-.36823845 1.6618813s.43143956 1.0972673.91459438 1.4356072c.48322371.3382419 1.08101399.4707004 1.66188842.3682416.58087443-.1024584 1.09726379-.4314431 1.43560369-.9145979l4.17695802-5.9653092z"/><path d="m21.437545 10.3990402c2.5723626-1.85360871 3.1550275-5.4415685 1.3014191-8.01393067-1.8536088-2.57236254-5.4415682-3.15502776-8.0139307-1.30141903-2.5723626 1.85360872-3.1550278 5.44156815-1.3014191 8.01393068 1.8536085 2.57236222 5.4415682 3.15502772 8.0139307 1.30141902z"/><path d="m18.9653748 26.499287c-3.5142132 0-6.884493 1.396016-9.36941675 3.8809398-2.48492416 2.4849237-3.88093976 5.8552026-3.88093976 9.3694167 0 3.5142123 1.3960156 6.884493 3.88093976 9.3694167 2.48492375 2.4849238 5.85520355 3.8809398 9.36941675 3.8809398 3.5142123 0 6.884493-1.396016 9.3694167-3.8809398 2.4849237-2.4849237 3.8809398-5.8552044 3.8809398-9.3694167 0-3.5142141-1.3960161-6.884493-3.8809398-9.3694167-2.4849237-2.4849238-5.8552044-3.8809398-9.3694167-3.8809398zm0 22.0839275c-2.3428084 0-4.5896616-.9306768-6.2462781-2.5872929-1.6566157-1.6566165-2.5872929-3.9034698-2.5872929-6.2462781s.9306772-4.5896616 2.5872929-6.2462781c1.6566165-1.6566161 3.9034697-2.5872929 6.2462781-2.5872929 2.3428083 0 4.5896616.9306768 6.2462781 2.5872929 1.6566161 1.6566165 2.5872929 3.9034698 2.5872929 6.2462781s-.9306768 4.5896616-2.5872929 6.2462781c-1.6566165 1.6566161-3.9034698 2.5872929-6.2462781 2.5872929z"/></g></svg>