<svg height="53" viewBox="0 0 53 53" width="53" xmlns="http://www.w3.org/2000/svg"><g fill="#fff" transform="translate(10.3 3)"><circle cx="17.73913" cy="5.217391" r="5.217391"/><path d="m8.79547826 19.5756522c.21495652-1.1885218.43617391-2.4114783.67095652-3.7095652.04344381-.2708948.10479568-.538612.18365218-.8013913l-5.50330435 2.7516521c-.45848785.2292808-.81655147.6192879-1.00591304 1.0956522l-2.13182609 5.3593043c-.30350537.7958215.08788147 1.6879232.87898931 2.0035111s1.68906564-.0621698 2.01666286-.8483806l1.99513044-4.9878261z"/><path d="m23.1652174 32.7652174-4.9606957-3.72-1.7947826 5.5252174 3.4163479 1.9513043v8.3478261c0 1.1525943.9343622 2.0869565 2.0869565 2.0869565 1.1525942 0 2.0869565-.9343622 2.0869565-2.0869565v-10.4347826c0-.6568848-.3092748-1.2754343-.8347826-1.6695652z"/><path d="m31.3909565 18.8692174c-.1540959-.3855517-.4550686-.6940789-.8366825-.8576836-.3816139-.1636048-.8125962-.1688798-1.1981001-.0146642l-4.9753043 1.9544347-5.5982609-5.9947826c-1.0738046-1.243958-2.7815136-1.7353711-4.3522584-1.2524129s-2.7073653 1.8489198-2.8967851 3.4812825c0 0-5.27269563 29.1015652-5.27269563 29.7276522.01511453 1.0328206.78349457 1.8992041 1.80711222 2.0376014 1.02361766.1383973 1.99448121-.4928334 2.28332251-1.4845579l8.5408696-26.2956522 4.0153044 2.7443478c.5742859.3925563 1.3064117.4731645 1.9523478.2149565l5.6587826-2.2267826c.8023121-.3208955 1.1927971-1.2312486.8723478-2.0337391z"/></g></svg>