<svg height="53" viewBox="0 0 53 53" width="53" xmlns="http://www.w3.org/2000/svg"><path d="m22.0321195 9.43241394c2.1221531-2.24210703 2.0249726-5.78006406-.2171344-7.90225445-2.2421484-2.12218211-5.7801055-2.02496438-7.9022586.21714265-2.1221945 2.24209461-2.0249726 5.78005164.2171344 7.90224617 2.242107 2.12219449 5.7800641 2.02497269 7.9022586-.21713437zm-14.43463283 21.35059456c.4392375.5644086 1.07238047.9457187 1.77674219 1.0699375l2.98746094.5258593-2.96841407 15.6267188c-.05780312.3275234-.18077969.6401406-.36168359.9196328-.18090391.2790781-.41605.5192344-.69148438.7055625-.27539297.1867422-.58548437.3159297-.91188984.3805234-.32636406.0645938-.66233438.0629375-.98803594-.0049687-.64109297-.1511328-1.19895937-.5440781-1.55712344-1.0968516-.35816406-.5527734-.488925-1.2227265-.36495468-1.8694922zm6.06642973-18.3930703c.2621429-.0086125.5248242.0080328.7834062.053l3.8188984.6736796c.689911.1209891 1.3121641.488925 1.7506563 1.0351563h.0020703l.0343672.0488594c.0560227.0723367.1084844.147282.1573437.2248359l3.908336 5.5811484 4.5360547-3.1762734c.4341445-.3039633.9713078-.4230476 1.4932336-.3310016.5220086.0920047.9861726.3875625 1.2900945.8216657l.0828125.1175937c.3035078.434186.4223437.9711422.3304219 1.4929024-.0919219.5217601-.3875625.9855929-.8215 1.2895976l-4.5364688 3.1762735-1.431414 1.0024453c-.2574641.1802414-.5478461.3080211-.8546664.3760101-.3068204.0680305-.6240336.0749039-.9335454.0203305-.3094703-.0546148-.6051523-.1696414-.8701937-.3385375-.2650414-.1688547-.4941836-.3883078-.6743836-.6457719l-1.9220781-2.7444062-.9357813 5.3074531 5.4486485 1.3295547.0219453.0053828c.2898023.0706391.5628765.1976734.8035711.3738156.2406945.1761836.4443718.3980797.599314.6529352.1549422.2548969.258168.5378258.3037977.8325969.0455883.2948125.0326695.5956703-.038011.8854726l-.2935703 1.2040938-.3453281 1.4165078-1.821875 7.4779687c-.0773055.3171719-.2162648.615711-.4089695.8790547-.1927047.2633438-.4353867.4861094-.714175.6554609-.2788297.1693516-.5882586.2823907-.9107305.3320782-.3224305.0501015-.6515273.0360234-.9684922-.0414063-.3170062-.0774297-.6156695-.2161406-.8789304-.4090937-.2633024-.1925391-.4860266-.4351797-.6555438-.7138438-.1694758-.2790781-.2823906-.5883828-.3322852-.9109375-.0498531-.322389-.035775-.6515273.0415719-.9684922l1.821875-7.4779687-2.709625-.6604297-7.1955781-1.2691016c-.3748922-.0660429-.73305626-.2052922-1.05412032-.4097976-.32106406-.2044641-.59869297-.4702094-.81706953-.7819985-.21833516-.311789-.37315312-.6635351-.45555156-1.0351562-.08239844-.3715797-.09080391-.7558297-.02471953-1.1306805l1.77757034-10.0824219h-2.35684378l-3.91578906 5.5927422c-.1570125.2242977-.35667344.4154289-.5875961.5625039-.23088125.1471164-.48851093.2472782-.75810703.2948125-.26959609.0475344-.5459414.0414891-.81321875-.0178046-.26727734-.0592938-.52026953-.1706352-.74448437-.3277305-.22433906-.1569711-.41551172-.3565906-.56262813-.5874719-.14715781-.2308812-.24736094-.4885109-.29493672-.758107-.04757578-.2696375-.04153047-.5459828.01772188-.8132602.05925234-.2673187.17059375-.5203109.32764766-.7445672l4.49547656-6.4179687c.19754922-.2816867.459775-.5119469.76464922-.6714438.30491562-.1594968.64357734-.2436343.98766328-.2452906v-.0049687z" fill="#fff" transform="translate(11.179834 1.24307)"/></svg>