<svg height="53" viewBox="0 0 53 53" width="53" xmlns="http://www.w3.org/2000/svg"><g fill="none" fill-rule="evenodd"><g fill="#fff" fill-rule="nonzero"><path d="m31.7141978 43.8065708c1.3281405-.3337154 2.0752196-1.6685768 1.7431844-3.0034381-.3320351-1.3348614-1.6601756-2.085721-2.9883162-1.7520056l-5.7276061 1.6685767c-1.3281406.3337154-2.0752197 1.6685767-1.7431845 3.0034381.3320351 1.3348614 1.6601757 2.0857209 2.9883162 1.7520056z"/><path d="m32.58579 32.460249c-.1245132-1.3765758-1.3281405-2.3360074-2.6977855-2.2108641-1.3281405.1251432-2.324246 1.3348613-2.1997328 2.7114371l.9130966 8.7600279c.1245132 1.3348613 1.3281406 2.3360074 2.6977855 2.2108641 1.3281406-.1251432 2.324246-1.3348614 2.1997328-2.7114372z"/><path d="m22.0436744 19.987638-1.2036274.9594316 1.5356625 15.1006194 10.4591069-1.3348614-1.7016801-15.6846212z"/><path d="m43.3354276 21.9899301c1.1206186-.1251433 1.9507064-1.1262893 1.8676977-2.294293-.1245132-1.1262893-1.1206186-1.9605777-2.2827416-1.8771488l-6.1426501.6257162c-1.1206186.1251433-1.9507064 1.1262893-1.8676976 2.294293.1245131 1.1262893 1.1206186 1.9605777 2.2827415 1.8771488z"/><path d="m12.2071334 23.1162194c.1245132 1.1262892 1.1206186 1.9605776 2.2827416 1.8771488 1.1206186-.1251433 1.9507064-1.1262893 1.8676976-2.294293l-.6640703-6.1737339c-.1245131-1.1262893-1.1206185-1.9605777-2.2827415-1.8771488-1.1206186.1251432-1.9507065 1.1262893-1.8676977 2.294293z"/><path d="m37.3172907 22.6156463c1.1206186-.1251432 1.9507065-1.1262893 1.8676977-2.294293-.1245132-1.1262892-1.1206186-1.9605776-2.2827416-1.8771488l-6.557694.6674307c-1.1206186.1251433-1.9507064 1.1262893-1.8676976 2.294293.1245131 1.1262893 1.1206186 1.9605777 2.2827415 1.8771488z"/><path d="m22.4587183 24.1590798c1.1206186-.1251432 1.9507064-1.1262893 1.8676976-2.294293-.1245131-1.1262893-1.1206186-1.9605776-2.2827415-1.8771488l-8.0103477.8342884c-1.1206186.1251432-1.9507065 1.1262892-1.8676977 2.294293.1245132 1.1262892 1.1206186 1.9605776 2.2827416 1.8771488z"/><path d="m28.8918991 35.255115c1.0791142-.8342883 1.2451318-2.3777218.4150439-3.4622967-.8300878-1.0845748-2.3657503-1.2514325-3.4448645-.4171441l-9.9195498 7.9257394c-1.0791142.8342884-1.2451318 2.3777218-.4150439 3.4622967.8300878 1.0845749 2.3657503 1.2514326 3.4448645.4171442z"/><path d="m17.0631473 43.6397131c1.3281405.1668577 2.5732723-.792574 2.6977855-2.1691498.1660176-1.3348613-.7885835-2.5862939-2.1582284-2.7114371l-8.67441799-1.0011461c-1.32814056-.1668576-2.57327233.792574-2.6977855 2.1691498-.16601757 1.3348614.78858345 2.5862939 2.1582284 2.7114372z"/><path d="m25.6960609 17.4847729c3.071325-.3337153 5.3125622-3.0868669 5.0220315-6.1737339-.2905308-3.08686692-3.0713251-5.3394455-6.1426501-5.04744458-3.071325.33371535-5.3125622 3.08686695-5.0220315 6.17373388.3320352 3.1285814 3.0713251 5.38116 6.1426501 5.0474446z"/><path d="m15.2784584 13.1464734c1.5356625-.1668577 2.6147767-1.501719 2.4902636-3.0451525-.1660176-1.54343348-1.4941582-2.62800835-3.0298207-2.50286509-1.5356625.16685767-2.6147767 1.50171905-2.4902635 3.04515249.1660176 1.5434335 1.5356625 2.6697228 3.0298206 2.5028651z"/></g><path d="m0 0h53v53h-53z"/></g></svg>