<svg height="28" viewBox="0 0 30 28" width="30" xmlns="http://www.w3.org/2000/svg"><path d="m0 8.85651398c0 2.01767472.5322965 4.01539992 1.5968895 5.99317552 1.06459299 1.9777756 2.57006836 3.9027824 4.51642608 5.7750206 1.94635773 1.8722381 4.23672612 3.6570816 6.87110522 5.3545303.2219899.1429291.4569969.2730993.7050209.3905106s.4619382.1761169.6417427.1761169c.1873271 0 .4054451-.0587056.6543541-.1761169s.4834734-.2475815.7036934-.3905106c2.6361491-1.6974487 4.9254849-3.4822922 6.8680076-5.3545303 1.9425227-1.8722382 3.4460806-3.797245 4.5106736-5.7750206s1.5968895-3.9755008 1.5968895-5.99317552c0-1.31084697-.2101161-2.50730642-.6303483-3.58937836-.4202321-1.08207194-1.0044123-2.01712163-1.7525405-2.80514908-.7481283-.78802744-1.6228498-1.3953654-2.6241646-1.82201385-1.0013148-.42664846-2.0829811-.63997269-3.244999-.63997269-1.3503774 0-2.5432599.28489939-3.5786476.85469818-1.0353876.56979879-1.8696937 1.31932831-2.5029182 2.24858856-.6255544-.92926025-1.4575373-1.67878977-2.4959488-2.24858856s-2.23280589-.85469818-3.58318329-.85469818c-1.15597026 0-2.23417028.21332423-3.23460007.63997269-1.00042979.42664845-1.87706884 1.03398641-2.62991714 1.82201385-.75284831.78802745-1.3389829 1.72307714-1.75840378 2.80514908s-.62913132 2.27853139-.62913132 3.58937836zm2.92362976-.0130539c0-1.19137064.23917389-2.23464966.71752167-3.12983703.47834778-.89518738 1.13296-1.59305446 1.96383667-2.09360123s1.7721583-.75082016 2.82384491-.75082016c.84769185 0 1.58033239.14687475 2.19792179.44062424.6175893.29374949 1.1421419.66191355 1.573658 1.10449218.431516.44257864.7956606.88858668 1.0924339 1.33802414.2000122.28320313.3758341.48000718.5274658.59041214.1516317.11040497.3219223.16560746.5108719.16560746s.3568433-.05712001.5036812-.17136002c.1468378-.11424001.3240979-.30912654.5317802-.58465958.315801-.44353739.691377-.88807042 1.1267281-1.33359909.435351-.44552866.9560318-.81516774 1.5620422-1.10891723s1.3328616-.44062424 2.1805534-.44062424c1.0499166 0 1.9907558.25027339 2.8225174.75082016.8317617.50054677 1.4868164 1.19841385 1.9651642 2.09360123.4783478.89518737.7175217 1.93846639.7175217 3.12983703 0 1.24122622-.2967733 2.50590512-.8903198 3.79403682-.5935466 1.2881318-1.4069812 2.5606652-2.4403038 3.8176003-1.0333227 1.2569351-2.2198627 2.4652685-3.5596199 3.625-1.3397573 1.1597315-2.7567317 2.2347603-4.2509232 3.2250862-.1398315.0977936-.2294388.1466904-.2688217.1466904-.0377604 0-.1235326-.0488968-.2573166-.1466904-1.4924215-.9903259-2.9089902-2.0653547-4.24970627-3.2250862-1.34071604-1.1597315-2.52921041-2.3680649-3.56548309-3.625-1.03627269-1.2569351-1.85118231-2.5294685-2.44472886-3.8176003-.59354654-1.2881317-.89031982-2.5528106-.89031982-3.79403682z" fill="#fe2727" transform="translate(.708309 .586363)"/></svg>