<svg height="53" viewBox="0 0 53 53" width="53" xmlns="http://www.w3.org/2000/svg"><g fill="none" fill-rule="evenodd"><g fill="#fff" fill-rule="nonzero"><path d="m23.4449781 22.2574594c2.8222987 1.3348614 6.1011457.1251433 7.4707906-2.7114371 1.3281406-2.8365805.1245132-6.1320195-2.6977855-7.5085953-2.8222986-1.3765758-6.1011456-.1251433-7.4707906 2.7114372-1.3281405 2.8365804-.0830088 6.2154483 2.6977855 7.5085952z"/><path d="m20.2906443 29.7243403c.8300878.8342884 2.116724.8342884 2.9468119 0 .8300878-.8342884.8300878-2.1274353 0-2.9617237l-14.2360066-14.266331c-.83008784-.8342884-2.11672401-.8342884-2.94681185 0-.83008785.8342884-.83008785 2.1274353 0 2.9617237z"/><path d="m28.0104613 26.804331c-.8300879.8342884-.8300879 2.1274353 0 2.9617237.8300878.8342884 2.116724.8342884 2.9468118 0l14.2360066-14.3080454c.8300878-.8342884.8300878-2.1274353 0-2.9617237-.8300879-.8342884-2.116724-.8342884-2.9468119 0z"/><path d="m22.0753332 38.7346546c1.1206186.6674307 2.0337152 1.1680037 3.278847 1.1680037 1.2451317 0 2.1582284-.500573 3.2788469-1.1680037.1660176-.0834288.2905308-.1668577.4565484-.2502865l2.5732723-9.7194594-2.4902636-3.086867h-7.0557466l-2.9468119 2.9617237-2.1997328 8.3011692c2.2827416.1668577 3.8599085 1.0428605 5.1050403 1.79372z"/><path d="m4.64348841 43.4066694h1.86769765c4.89751834 0 6.01813684-3.0451525 9.42149704-3.0451525s4.5239788 3.0451525 9.4214971 3.0451525c4.8975182 0 6.0181368-3.0451525 9.421497-3.0451525s4.5239788 3.0451525 9.4214971 3.0451525h1.8676976c.5810615 0 .9961054-.4588586.9961054-1.001146 0-.5840018-.4565483-1.0428604-.9961054-1.0428604h-1.8676976c-3.5278734 0-4.7315008-3.0451526-9.4214971-3.0451526s-5.8936237 3.0451526-9.421497 3.0451526c-3.5278734 0-4.7315008-3.0451526-9.4214971-3.0451526-4.7315007 0-5.8936237 3.0451526-9.42149704 3.0451526h-1.86769765c-.58106149 0-1.03760981.4588586-1.03760981 1.0428604 0 .5422874.45654832 1.001146 1.03760981 1.001146z"/></g><path d="m0 0h53v53h-53z"/></g></svg>