<svg height="53" viewBox="0 0 53 53" width="53" xmlns="http://www.w3.org/2000/svg"><g fill="none" fill-rule="evenodd"><g fill="#fff" fill-rule="nonzero"><path d="m26.8068339 17.5010233c3.1128294 0 5.6030929-2.5028651 5.6030929-5.6314464 0-3.1285814-2.4902635-5.63144649-5.6030929-5.63144649s-5.603093 2.50286509-5.603093 5.63144649c0 3.1285813 2.531768 5.6314464 5.603093 5.6314464z"/><path d="m23.0714386 23.0490409c-1.0376098-.5422874-1.4111494-1.79372-.8715923-2.8365804.5395571-1.0428605 1.7846889-1.4182902 2.8222987-.8760028l5.5615886 2.9617237c1.0376098.5422874 1.4111493 1.79372.8715922 2.8365804-.5395571 1.0428605-1.7846888 1.4182903-2.8222987.8760028z"/><path d="m12.6953405 17.7095954c-1.0376098-.5422874-1.4111493-1.79372-.8715922-2.8365804.5395571-1.0428605 1.7846888-1.4182902 2.8222987-.8760028l5.5615885 2.9617237c1.0376098.5422874 1.4111494 1.79372.8715923 2.8365804-.5395571 1.0428605-1.7846889 1.4182902-2.8222987.8760028z"/><path d="m29.7121413 26.2610511c-1.1621229 0-2.0752196-.9177172-2.0752196-2.0857209s.9130967-2.0857209 2.0752196-2.0857209h7.8443302c1.162123 0 2.0752196.9177172 2.0752196 2.0857209s-.9130966 2.0857209-2.0752196 2.0857209z"/><path d="m5.68109822 17.9181675c-1.16212299 0-2.07521962-.9177172-2.07521962-2.0857209s.91309663-2.0857209 2.07521962-2.0857209h7.42928618c1.162123 0 2.0752197.9177172 2.0752197 2.0857209s-.9130967 2.0857209-2.0752197 2.0857209z"/><path d="m30.9572731 33.227359c.954601-.9594317.954601-2.5028651 0-3.4622967-.954601-.9594317-2.4902635-.9594317-3.4448645 0l-7.5953038 7.4668808c-.9546011.9594316-.9546011 2.5028651 0 3.4622967.954601.9594316 2.4902635.9594316 3.4448645 0z"/><path d="m15.6421524 35.6050808c-1.5356625 0-2.9468119-.5840019-3.9844217-1.6268623v6.2571627c0 1.3765758 1.0791142 2.4611507 2.4487592 2.4611507 1.3696449 0 2.4487591-1.0845749 2.4487591-2.4611507v-4.6303004z"/><path d="m15.8496743 41.9456724c.954601-.9594317.954601-2.5028651 0-3.4622968-.954601-.9594316-2.4902635-.9594316-3.4448645 0l-6.22565887 6.1737339c-.95460103.9594316-.95460103 2.5028651 0 3.4622967.95460102.9594317 2.49026353.9594317 3.44486455 0z"/><path d="m29.255593 29.0142027h-6.8897291l2.6562811-4.9640157v-4.7137293l-4.8975183-2.3777218-3.9429172 2.5862939-4.1919437 8.4680269c-1.3281405 2.7114372.6225659 5.9234474 3.6523866 5.9234474h4.0674304 9.5045058c1.369645 0 2.4487592-1.0845749 2.4487592-2.4611507s-1.0791142-2.4611507-2.4072548-2.4611507z"/><path d="m41.4993888 15.373588c-3.1128295 0-5.6445974 1.293147-5.6445974 2.8365804 0 1.5434335 2.5317679 2.8365805 5.6445974 2.8365805 3.1128294 0 5.6445973-1.2514326 5.6445973-2.8365805 0-1.5434334-2.5317679-2.8365804-5.6445973-2.8365804z"/></g><path d="m0 0h53v53h-53z"/></g></svg>