<svg height="53" viewBox="0 0 53 53" width="53" xmlns="http://www.w3.org/2000/svg"><g fill="#fff" transform="translate(2 4)"><circle cx="40.545" cy="5.355" r="5.355"/><path d="m17.61336 17.442c-2.1938759 1.2597591-2.9548111 4.057154-1.70136 6.25464.3096618.5206668.7213031.9734202 1.21023 1.3311l6.43977 5.39019-4.6971 3.89844 3.978 1.989 5.28768-3.84642c.5612215-.4080746.9076799-1.0481601.9424501-1.7411864s-.2458815-1.364575-.7634401-1.8267736l-4.77972-4.25799 7.81677-5.56767v4.64967c.0003192.8688675.4912832 1.6630566 1.26837 2.05173l4.22892 2.11446c1.8894103.9447052 4.1869148.1788703 5.13162-1.71054l-6.34491-3.52665.28611-8.874c.0088457-.7975658-.1927497-1.583366-.58446-2.27817-1.2604953-2.19789312-4.063485-2.95873395-6.26229-1.69983l-8.49915 5.67477-15.3-7.65c-.75407147 1.51406054-.13952023 3.3527816 1.37339235 4.1091537l10.99665765 5.4977163z"/><path d="m19.8913821 17.7227318c.8449957 0 1.53.6850043 1.53 1.53v37.99449c0 .8449957-.6850043 1.53-1.53 1.53s-1.53-.6850043-1.53-1.53v-37.99449c0-.8449957.6850043-1.53 1.53-1.53z" transform="matrix(.4472128 -.89442759 .89442759 .4472128 -23.216133 38.935499)"/></g></svg>