<svg height="53" viewBox="0 0 53 53" width="53" xmlns="http://www.w3.org/2000/svg"><g fill="#fff" fill-rule="evenodd" transform="translate(0 1)"><path d="m35.3012999 9.48337857c2.1457698-2.22589559 2.0808138-5.76982868-.1450818-7.91559839-2.2258947-2.14576885-5.7698285-2.08081576-7.9155982.14507983-2.1457694 2.2258953-2.0808151 5.76983135.1450796 7.91560019 2.2258956 2.1457697 5.769831 2.0808137 7.9156004-.14508163z"/><path d="m52.3853975 13.3108462-3.2193305-2.6044485c-.7113588-.5755453-1.7539653-.4654053-2.3295106.2459535l-3.5157971 4.3455787c-.1892262.2339424-.2368457.5515302-.1242197.8306061l.875743 2.1721689c.112626.2790788.0650064.5966633-.1242198.8306094l-.7689138.9415738-7.2854159-1.1216927-5.1836371-5.1318798c-.199165-.2049614-.4331077-.3801082-.7010069-.5121939l-3.909568-1.9320119c-.3689282-.1821884-.7622872-.2645854-1.1552322-.2625163v-.0033138l-15.81467358.0766035c-1.14322392 0-2.07030847.9270833-2.07030847 2.0703085 0 1.1432218.92708455 2.0703085 2.07030847 2.0703085l11.96017248-.0579687-6.8241504 13.8569887-4.89586629 8.6907417-8.14003845 4.763779c-1.18421644.6931405-1.58212973 2.2148156-.88899045 3.399032.69313927 1.1842169 2.214816 1.5821327 3.39903245.8889917l.79210002-.4637499 7.92596892-4.636662c.1908825-.1117954.365202-.2480226.5188193-.4049511.1561017-.1577563.2910858-.3362198.4003981-.5312432l.5134369-.9163173 4.7389361-8.4120799 6.5537681 8.0423236-.8939592 8.6435379c-.141195 1.3647461.8508951 2.5858165 2.2156433 2.7265958 1.3647461.1411963 2.5858161-.8509001 2.7265959-2.2156466l1.0032698-9.7006345c.0679069-.6575291-.128772-1.3146471-.546561-1.8264278l-3.7807945-4.6312804-.0020707.0182183-1.4459038-1.77177 5.7492458-11.632648 3.155979 3.1220252c.3718287.3676872.8500662.6090818 1.3672293.6889961l.1917126.029398 5.2101387.8070087-.0861252.1055845c-.2877725.3556794-.2327044.8769827.1229755 1.1647556.3556794.2877724.8769839.2327043 1.1647567-.1229755l.7047314-.8629058 1.1129991.1705946c1.1299731.1747328 2.187904-.5991468 2.3626368-1.7291229.112212-.7237769-.1681082-1.4148488-.6790612-1.8665884l.3995683-.4894205c.1892262-.2339457.4902512-.3465717.786304-.294814l2.3067373.4028816c.2960525.0517577.5970774-.0612791.786304-.2948111l3.5157966-4.3455787c.575135-.7109448.4654025-1.7539654-.2459531-2.3295107z"/></g></svg>