<svg height="53" viewBox="0 0 53 53" width="53" xmlns="http://www.w3.org/2000/svg"><g fill="#fff" fill-rule="evenodd" transform="translate(8)"><path d="m35.0094864 6.42605566c.2404584-3.2996573-2.2395124-6.16948873-5.5391693-6.4099471-3.2996573-.24045841-6.1694892 2.23951283-6.4099476 5.53917013-.2404584 3.29965731 2.2395133 6.16948881 5.5391706 6.40994721 3.2996569.2404584 6.1694879-2.23951293 6.4099463-5.53917024z"/><path d="m4.55110882 20.4164033c.50749975.2687422 1.09642668.3404132 1.65356917.2012338.55714249-.1391798 1.04317763-.4793848 1.3646758-.9552181l4.69904101-6.7121283 4.9068944 1.6291794-6.093638 8.7021694c.9064188-.1570953 1.8245579-.2368053 2.7444885-.2382699 3.2076837-.005135 6.3433526.950784 9.0026546 2.7444884l3.8349118-5.4769942c.4630248-.6611477.7687238-1.419425.8937254-2.2168491.1250016-.7974236.0659917-1.6128719-.1725169-2.3839895-.2385091-.7711176-.6502012-1.4774823-1.2035912-2.0650769-.5533906-.587595-1.2338253-1.0408585-1.9892719-1.3251293l-11.4609416-4.31329239c-.5749971-.21642047-1.2056946-.2351876-1.792544-.05334214-.5868488.18184546-1.09642572.55395095-1.44830174 1.05758078l-5.68300087 8.13345355c-.18156202.258827-.3068738.5528287-.36785442.8630503-.06098063.310222-.0562779.6297799.01380447.9380732.07008236.3082933.20398893.5984789.39308804.8518516.18909957.2533722.42919499.4643087.70480744.6192094z"/><path d="m34.5653401 27.6520808h-9.4547706c1.6018267 1.5670996 2.8598164 3.4505522 3.6938816 5.5304534h2.9956623v11.5217781c0 .7333828.2913369 1.4367288.8099178 1.9553093.51858.51858 1.2219251.8099174 1.9553089.8099174.7333837 0 1.4367293-.2913374 1.9553093-.8099174.51858-.5185805.8099174-1.2219265.8099174-1.9553093v-14.2870048c0-.7333847-.2913374-1.4367288-.8099174-1.9553093-.51858-.51858-1.2219256-.8099174-1.9553093-.8099174z"/><path d="m13.8261397 25.3477252c-2.7345507 0-5.40769171.8108866-7.6813874 2.330122-2.27369615 1.5192344-4.04582718 3.6785866-5.09229406 6.2049812-1.04646733 2.5263945-1.32027132 5.3063664-.78678673 7.988374.53348459 2.6820077 1.85029662 5.1455897 3.78391597 7.0792095 1.93361935 1.9336194 4.39719994 3.2504314 7.07920712 3.7839164 2.6820068.5334855 5.4619805.2596797 7.9883769-.7867881 2.5263959-1.0464678 4.6857449-2.818597 6.2049807-5.0922931 1.5192359-2.2736966 2.330122-4.9468367 2.330122-7.6813883 0-3.6669197-1.4566777-7.1836498-4.0495805-9.7765526-2.5929029-2.5929029-6.1096348-4.049581-9.776554-4.049581zm0 23.043556c-1.8230334 0-3.6051284-.5405912-5.12092525-1.5534145-1.51579729-1.0128233-2.69721782-2.4523883-3.39486286-4.1366515-.69764504-1.6842637-.88018089-3.5375831-.52452434-5.3255875.35565655-1.7880048 1.23353124-3.4303909 2.52261126-4.7194705 1.28907911-1.28908 2.93146709-2.1669543 4.71947149-2.5226113 1.7880048-.355657 3.6413215-.1731202 5.3255851.5245244 1.6842637.6976446 3.1238301 1.879066 4.1366534 3.3948633 1.0128233 1.5157968 1.5534145 3.297891 1.5534145 5.1209252 0 1.2104494-.2384156 2.4090462-.7016334 3.5273564-.4632184 1.1183098-1.1421709 2.1344297-1.998087 2.9903457-.855916.855916-1.8720391 1.5348686-2.9903475 1.9980869-1.1183084.4632179-2.3169065.7016334-3.5273554.7016334z"/></g></svg>