<svg height="53" viewBox="0 0 53 53" width="53" xmlns="http://www.w3.org/2000/svg"><g fill="none" fill-rule="evenodd"><g fill="#fff" fill-rule="nonzero"><path d="m24.9598884 24.3415152c.9546011-.9594316.9546011-2.5028651 0-3.4622967-.954601-.9594316-2.4902635-.9594316-3.4448645 0l-6.557694 6.5491637c-.954601.9594316-.954601 2.502865 0 3.4622967.954601.9594316 2.4902635.9594316 3.4448646 0z"/><path d="m45.3800494 20.128359c3.1543338-.1251433 5.4785798-2.794866 5.3125622-5.9234474-.1660175-3.1285814-2.7807942-5.50630319-5.9351281-5.33944552-3.1543338.12514325-5.4785797 2.79486602-5.3125622 5.92344742.1660176 3.1285813 2.8638031 5.5063032 5.9351281 5.3394455z"/><path d="m39.0713818 23.5906557-1.4941581-8.5931702c-.3735395-2.4194362-1.9922108-4.0045841-4.3994656-4.3800139l-10.2930893-1.12628925c-2.7807943-.29200093-4.7315007 2.58629395-4.0674304 5.25601665l2.0752196 8.5097413c.3735395 1.293147 1.7431845 2.0857209 3.0298206 1.6685768 1.3281406-.4171442 2.0337152-1.79372 1.7016801-3.1285814l-1.0376098-4.4634427 9.3799927 1.001146 1.0376098 5.9651618c.2075219 1.1680037 1.2451317 1.8771488 2.4072547 1.7102911 1.1206186-.2085721 1.8676977-1.2931469 1.6601757-2.4194362z"/><path d="m40.3165136 30.306677c.8300878.8342884 2.116724.8342884 2.9468118 0 .8300879-.8342884.8300879-2.1274353 0-2.9617237l-4.6899963-4.7554436c-.8300878-.8342884-2.116724-.8342884-2.9468119 0-.8300878.8342883-.8300878 2.1274353 0 2.9617236z"/><path d="m24.3373225 40.3598518-20.42016095-20.5234937c-.41504393-.4171442-.41504393-1.0428605 0-1.4600047.41504392-.4171442 1.0376098-.4171442 1.45265373 0l20.37865662 20.4817793c1.8676976 1.8771488 4.2749524 2.8782949 6.8897291 2.8782949.5810615 0 1.0376098.4588586 1.0376098 1.0428604-.0415044.5422875-.4565483 1.0428605-1.0376098 1.0428605-3.1128294-.0417144-6.0596413-1.2514326-8.3008785-3.4622967z"/></g><path d="m0 0h53v53h-53z"/></g></svg>