<svg height="53" viewBox="0 0 53 53" width="53" xmlns="http://www.w3.org/2000/svg"><g fill="none" fill-rule="evenodd"><g fill="#fff" fill-rule="nonzero"><path d="m18.0612266 30.9684639.0207531 8.8893417-5.9359586 6.0807091c-.9687126.9811235-.9624865 2.5658543.0136968 3.5394684.9761829.9736145 2.5529356.967359 3.5216481-.0137645l6.6568878-6.8703651c.452813-.4672019.7064048-1.0937512.7064048-1.7461643v-4.8480505l-.0161859-.0162691c-.1357189-.1368228-4.8846523-4.9214658-4.9672461-5.0149057z"/><path d="m36.4995392 19.7715007c-.1091566 0-.1975601.0888509-.1975601.1985598v.8543129c0 .1097094.0884035.1985598.1975601.1985598h.3108683l.1672623 1.5125648-5.0133131-.9047853-3.7217001-7.0146974c-.3760289-.9022837-1.2629799-1.5367583-2.2972697-1.5367583h-5.4042853c-.7118003 0-1.3522135.3015948-1.8058569.7829792l-.0012443-.0016677-3.5739432 3.5786778-.0008314-.0104261-3.0053318 3.0192892c-.5212951.5239347-.7852635 1.2526831-.7201016 1.99103l.5644601 6.4498825c.1008557 1.1475636 1.1085811 1.995201 2.2499519 1.893835 1.1413712-.101366 1.9851555-1.1141942 1.8842998-2.2613407l-.5258598-5.9910243 2.4441937-2.313898v6.2254581c0 1.3281867.5254443 2.6021484 1.4601237 3.5411399l8.9246886 8.9623394v-.0137645l.439119.4413381v8.7687895c0 1.3824171 1.1148084 2.5028651 2.4902635 2.5028651 1.3754556 0 2.4902635-1.120448 2.4902635-2.5028651v-9.8249977c0-.6657621-.26397-1.3039923-.7333846-1.7736966l-4.2363538-4.2386033-.2066894-.2077382c-.1556414-.1564291-.2432182-.3687534-.2432182-.5898394v-8.1693546l.6238135 1.0958407c.3660688.6432359.9965176 1.0904124 1.7224298 1.2209785l6.3402114 1.1454788c.1112326.0200233.2208054.0237784.330377.0254479l.0145249.1313983c.0468995.422567.4021767.7420991.8251069.7420991h1.8344933c.4229289 0 .7782107-.3195321.8251102-.7420991l.656182-5.9338756h.3096236c.1091565 0 .1975601-.0888504.1975601-.1985598v-.8543129c0-.1097089-.0884036-.1985598-.1975601-.1985598z"/><path d="m23.0620813 1c-2.9883162 0-5.4370754 2.46115067-5.4370754 5.46458878 0 3.0034381 2.4487592 5.46458882 5.4370754 5.46458882s5.4370754-2.46115072 5.4370754-5.46458882c0-3.00343811-2.4072548-5.46458878-5.4370754-5.46458878zm2.2686781 7.74474714c-.240108.24132308-.5831196.24132308-.8232276 0l-1.0633357-1.06871651c-.5488184.24132308-1.2005402.10342418-1.6464552-.34474723-.5831196-.58607034-.5831196-1.55136267 0-2.13743302.5831196-.58607034 1.5435518-.58607034 2.1266714 0 .4459149.44817145.5488183 1.10319123.3430114 1.65478686l1.0633357 1.06871647c.2401081.24132308.2401081.62054506 0 .82739343z"/></g><path d="m0 0h53v53h-53z"/></g></svg>