<svg height="53" viewBox="0 0 53 53" width="53" xmlns="http://www.w3.org/2000/svg"><g fill="#d8d8d8" transform="translate(4 4)"><path d="m9 27c4.9705627 0 9 4.0294373 9 9s-4.0294373 9-9 9c-4.97056275 0-9-4.0294373-9-9s4.02943725-9 9-9zm1.6107987 2.0011756c-.2009749-.014107-.3884515.0987488-.5624297.3385675l-4.87739037 6.8771517c-.11398575.1692837-.17097863.3491477-.17097863.5395919 0 .1833907.05549306.3385675.16647919.4655303s.24746907.1904442.40944882.1904442h2.80764904l-1.50281215 4.5495003c-.08998875.2962466-.07949006.5395919.03149607.7300361.11098612.1904443.26846644.2927198.47244094.3068268.20397451.014107.38995126-.0987488.55793026-.3385675l4.87739033-6.8771517c.119985-.1692837.1799775-.3491477.1799775-.5395919 0-.1833907-.0554931-.3385675-.1664792-.4655303s-.2474691-.1904442-.4094488-.1904442h-2.81664793l1.50281213-4.5600806c.095988-.289193.0869891-.5290116-.0269966-.7194558-.1139858-.1904443-.2714661-.2927198-.4724409-.3068268z"/><path d="m37 27c-4.9705627 0-9 4.0294373-9 9s4.0294373 9 9 9 9-4.0294373 9-9-4.0294373-9-9-9zm0 16c-3.8659932 0-7-3.1340068-7-7s3.1340068-7 7-7 7 3.1340068 7 7-3.1340068 7-7 7z"/><circle cx="32.5" cy="4.5" r="4.5"/><path d="m41 17h-7s-4.045-5.718-5.17-6.829c-1.5642717-1.55603119-4.0917283-1.55603119-5.656 0l-9 9c-.8697124.8571425-1.2968331 2.0666874-1.158214 3.279897s.8275702 2.2952343 1.868214 2.934103l5.616 3.925v9.19c0 1.3807119 1.1192881 2.5 2.5 2.5s2.5-1.1192881 2.5-2.5v-10.5c-.0001633-.8201971-.4026347-1.5881438-1.077-2.055l-3.374-2.337 7.369-7.37 2.982 3.962c.3777088.5036117.9704854.8 1.6.8h8c1.1045695 0 2-.8954305 2-2s-.8954305-2-2-2z"/></g></svg>