<svg height="53" viewBox="0 0 53 53" width="53" xmlns="http://www.w3.org/2000/svg"><g fill="none" fill-rule="evenodd"><g fill="#fff" fill-rule="nonzero"><path d="m23.7929704 18.9265529c3.1128294 0 5.6030929-2.5028651 5.6030929-5.6314465 0-3.1285813-2.4902635-5.63144643-5.6030929-5.63144643s-5.603093 2.50286513-5.603093 5.63144643c0 3.1285814 2.531768 5.6314465 5.603093 5.6314465z"/><path d="m30.8487171 18.5928375-9.7120278 3.7125832 2.3657503 14.1411878 10.2100805-1.8771488z"/><path d="m22.6723518 26.1848616c1.0791142-.4171441 1.5771669-1.6268623 1.162123-2.7114371-.4150439-1.0845749-1.6186713-1.5851479-2.6977855-1.1680038l-5.7276062 2.294293c-1.0791142.4171442-1.5771669 1.6268624-1.1621229 2.7114372.4150439 1.0845749 1.6186713 1.5851479 2.6977855 1.1680037z"/><path d="m40.2702141 39.1997601c-.2490263-1.3348614-1.5356625-2.2108642-2.863803-1.9605777-1.3281406.2502866-2.1997328 1.5434335-1.9507065 2.8782949l2.0337152 8.2177404c.2490264 1.3348614 1.5356626 2.2108641 2.8638031 1.9605776 1.3281406-.2502865 2.1997328-1.5434334 1.9507064-2.8782948z"/><path d="m29.0640282 36.9888959c.7470791-1.1262893.4980527-2.6697227-.6225659-3.4205823-1.1206186-.7508595-2.6562811-.500573-3.4033601.6257163l-4.9390227 7.2583088c-.7470791 1.1262893-.4980527 2.6697227.6225659 3.4205823 1.1206186.7508595 2.6562811.500573 3.4033601-.6257163z"/><path d="m7.39873544 23.6819965c-1.16212299-.7091451-1.53566252-2.2108641-.83008785-3.3788678s2.19973279-1.5434335 3.36185578-.8342884l7.47079063 4.588586c1.162123.7091451 1.5356625 2.2108642.8300878 3.3788679-.7055746 1.1680037-2.1997328 1.5434334-3.3618558.8342883z"/><path d="m31.9693357 32.608882c-1.1206186-.7508595-2.6562811-.500573-3.4033602.6257163s-.4980527 2.6697228.6225659 3.4205823l7.2217642 4.9640157c1.1206186.7508596 2.6562811.5005731 3.4033602-.6257162s.4980527-2.6697228-.6225659-3.4205823z"/><path d="m22.0912903 45.2900651c1.3696449 0 2.4487591-1.0845748 2.4487591-2.4611506s-1.0791142-2.4611507-2.4487591-2.4611507h-7.4707906c-1.369645 0-2.4487592 1.0845749-2.4487592 2.4611507s1.0791142 2.4611506 2.4487592 2.4611506z"/><path d="m43.5490611 18.0088357c1.0791142-.4171442 1.5771669-1.6268623 1.162123-2.7114372s-1.6186713-1.5851479-2.6977855-1.1680037l-5.7276061 2.294293c-1.0791142.4171442-1.5771669 1.6268623-1.162123 2.7114372.4150439 1.0845748 1.6186713 1.5851479 2.6977855 1.1680037z"/><path d="m37.7799506 20.2614143c1.0791142-.4171442 1.5771669-1.6268624 1.162123-2.7114372-.415044-1.0845749-1.6186713-1.5851479-2.6977855-1.1680037l-6.1426501 2.4194362c-1.0791142.4171442-1.5771669 1.6268623-1.162123 2.7114372.415044 1.0845749 1.6186713 1.5851479 2.6977855 1.1680037z"/><path d="m17.6918247 8.74823485c1.2036274-3.2120102.207522-6.54916365-2.2827416-7.50859527-2.4487591-.9177172-5.43707534.87600278-6.64070272 4.08801298-.87159223 2.25257858-.58106149 4.63030041.5395571 6.13201944.5395571.7091451.70557472 1.6685768.41504393 2.5028651l-3.15433382 8.3428836 1.57716691.5840019 3.1543338-8.3428836c.3320352-.8342884 1.0791142-1.4182902 1.9507064-1.6268623 1.8261933-.3337154 3.6108822-1.9188633 4.44097-4.17144185zm-6.0181369 2.50286505c-1.5771669-.5840018-2.15822836-3.04515249-1.3281405-5.33944549.8300878-2.294293 2.9053074-3.71258321 4.4824744-3.12858136 1.5771669.58400185 2.1582284 3.04515253 1.3281405 5.33944552-.8300878 2.29429303-2.9053075 3.71258323-4.4824744 3.12858133z"/><g transform="translate(35.964133 3.05715)"><path d="m2.35537426 4.4813666-1.41114934-1.41829021.87159224-2.71143718c.12451318-.37542977.58106149-.4588586.83008785-.20857209l2.61477671 2.62800834c.24902635.25028651.16601757.70914511-.20752196.83428836z"/><path d="m.98572932 3.06307639-.70557467.70914511c-.37353953.37542976-.37353953 1.00114603 0 1.41829021.37353953.37542977.99610541.37542977 1.41114934 0l.70557466-.70914511z"/></g></g><path d="m0 0h53v53h-53z"/></g></svg>