<svg height="54" viewBox="0 0 53 54" width="53" xmlns="http://www.w3.org/2000/svg"><g fill="none" fill-rule="evenodd" transform="translate(0 .969338)"><g fill="#fff" fill-rule="nonzero"><path d="m43.7910284 47.1078316h6.8067204c1.2451317 0 1.2866361-1.4600046 1.2036273-2.3777218 0-.7091451-.5810614-1.2514326-1.2036273-1.2514326h-7.512295l-21.9143192-21.9834983-2.1997327 1.2514325 23.7405123 23.8606472c.415044.4171442.6640703.500573 1.0791142.500573z"/><path d="m22.374762 45.8563991c0 1.3765758 1.0791142 2.4611506 2.4487592 2.4611506 1.3696449 0 2.4487591-1.0845748 2.4487591-2.4611506v-9.177172c0-1.3765758-1.0791142-2.4611507-2.4487591-2.4611507-1.369645 0-2.4487592 1.0845749-2.4487592 2.4611507z"/><path d="m11.791142 36.0117964c1.3696449 0 2.4487591-1.0845749 2.4487591-2.4611507s-1.0791142-2.4611507-2.4487591-2.4611507h-8.34238286c-1.36964494 0-2.44875914 1.0845749-2.44875914 2.4611507s1.0791142 2.4611507 2.44875914 2.4611507z"/><path d="m13.8663616 30.7974941c-.4980527-.500573-.8715922-1.1262893-1.0376098-1.79372l-2.7392899 2.7531516c-.95460101.9594316-.95460101 2.5028651 0 3.4622967.954601.9594316 2.4902635.9594316 3.4448646 0l2.3657503-2.3777218z"/><path d="m23.2048499 31.5066392 8.466896-8.3428836-7.0557467-7.0914511-.4565483-.0834288-9.4214971 9.677745c-1.1621229 1.1680037-1.1621229 3.0868669.0415044 4.2548706l8.3423829 8.4263125c.9961054 1.001146 2.6977855.9594316 3.6108821-.1668577.8300879-1.001146.6640703-2.4611507-.2490263-3.3788679z"/><path d="m31.7962591 35.1357936c0 1.1680037.9130966 2.0857209 2.0752196 2.0857209s2.0752196-.9177172 2.0752196-2.0857209v-6.7994502c0-1.1680037-.9130966-2.0857209-2.0752196-2.0857209s-2.0752196.9177172-2.0752196 2.0857209z"/><path d="m32.3773206 29.7963481c.8300878.8342883 2.116724.8342883 2.9468118 0 .8300879-.8342884.8300879-2.1274354 0-2.9617237l-4.6484919-4.6720149c-.8300879-.8342883-2.116724-.8342883-2.9468119 0-.8300878.8342884-.8300878 2.1274354 0 2.9617237z"/><path d="m16.0660944 15.822018c-1.162123.0417144-2.0337152 1.001146-1.9922108 2.1691497s.9961054 2.0440065 2.1582284 2.0022921l7.0557467-.2920009c1.1621229-.0417144 2.0337152-1.0011461 1.9922108-2.1691498s-.9961054-2.0440065-2.1582284-2.002292z"/><path d="m19.303437 24.0814728c.8300878.8342883 2.116724.8342883 2.9468118 0 .8300879-.8342884.8300879-2.1274353 0-2.9617237l-4.6484919-4.6720148c-.8300878-.8342884-2.116724-.8342884-2.9468118 0-.8300879.8342883-.8300879 2.1274353 0 2.9617236z"/><path d="m27.5628111 15.8637324c2.1997327 2.2108642 5.7276061 2.2108642 7.9273389 0s2.1997328-5.7565897 0-7.96745386c-2.1997328-2.21086417-5.7276062-2.21086417-7.9273389 0-2.1997328 2.21086416-2.1997328 5.79830416 0 7.96745386z"/></g><path d="m0 0h53v53h-53z"/></g></svg>