<svg height="53" viewBox="0 0 53 53" width="53" xmlns="http://www.w3.org/2000/svg"><g fill="none" fill-rule="evenodd"><g fill="#fff" fill-rule="nonzero"><path d="m25.345282 14.7553878c3.0298207-.7508596 4.8975183-3.7542977 4.1504393-6.79945018-.7470791-3.04515253-3.7353953-4.92230134-6.765216-4.17144182-3.0298206.75085953-4.8975183 3.75429764-4.1504392 6.7994502.7055747 3.0034381 3.7353953 4.9223013 6.7652159 4.1714418z"/><path d="m7.00034066 35.8628834c-.5395571 1.2097181 0 2.6697227 1.24513177 3.2537246 1.20362738.5422874 2.65628107 0 3.23734257-1.2514326l4.8145095-10.2617468c.5395571-1.2097182 0-2.6697228-1.2451317-3.2537247-1.2036274-.5422874-2.6562811 0-3.2373426 1.2514326z"/><path d="m22.8135141 41.3691866 2.4902636 7.091451c.2905307 1.3348614 1.6186713 2.1691498 2.9468118 1.8771489 1.3281406-.292001 2.1582284-1.6268624 1.8676977-2.9617237l-2.6977855-7.675453c-.415044-1.1680037-1.6601757-1.8354344-2.8222987-1.5434334-1.4941581.3337153-2.2827416 1.8771488-1.7846889 3.2120102z"/><path d="m25.0132469 35.9463122c-.7055747 0-1.3696449-.1251433-2.0337152-.3754298l-.3320351 4.7554437c-.0415044 1.3348614 1.0376098 2.5028651 2.3657503 2.5028651 1.3281406 0 2.4902635-1.0428605 2.4902635-2.3777218l.3320352-5.2977311c-.8715923.5422874-1.8676977.7925739-2.8222987.7925739z"/><path d="m12.2298941 19.9279756c.8300878.8342884 2.116724.8342884 2.9468118 0 .8300879-.8342883.8300879-2.1274353 0-2.9617237l-5.39557095-5.4228743c-.83008785-.8342884-2.11672401-.8342884-2.94681186 0-.83008784.8342883-.83008784 2.1274353 0 2.9617237z"/><path d="m35.0573098 20.5536919c1.162123 0 2.0752197-.9177172 2.0752197-2.0857209s-.9130967-2.0857209-2.0752197-2.0857209h-6.5991983c-1.162123 0-2.0752196.9177172-2.0752196 2.0857209s.9130966 2.0857209 2.0752196 2.0857209z"/><path d="m42.1130565 20.5536919c1.162123 0 2.0752196-.9177172 2.0752196-2.0857209s-.9130966-2.0857209-2.0752196-2.0857209h-6.5991983c-1.162123 0-2.0752197.9177172-2.0752197 2.0857209s.9130967 2.0857209 2.0752197 2.0857209z"/><path d="m19.8667023 20.5536919c1.162123 0 2.0752196-.9177172 2.0752196-2.0857209s-.9130966-2.0857209-2.0752196-2.0857209h-6.1841545c-1.162123 0-2.0752196.9177172-2.0752196 2.0857209s.9130966 2.0857209 2.0752196 2.0857209z"/><path d="m29.6617388 16.3822501h-9.7950365l.0415044 10.3868901-4.648492-2.294293c-1.2036274-.6257163-2.6977855-.2085721-3.4033601 1.001146-.6225659 1.2097182-.1660176 2.6697228 1.0376098 3.2954391l10.0025585 5.0057302c3.1128294 1.5434334 6.7652159-.7091452 6.7652159-4.2131563z"/></g><path d="m0 0h53v53h-53z"/></g></svg>