<svg height="53" viewBox="0 0 53 53" width="53" xmlns="http://www.w3.org/2000/svg"><g fill="#fff" fill-rule="evenodd"><g fill-rule="nonzero" transform="translate(9 2)"><ellipse cx="10.458713" cy="4.785638" rx="4.753961" ry="4.785638"/><path d="m15.4028323 30.0538049-4.5200657-3.4121597-1.63536245 5.0679903 3.11289335 1.7898285v7.6570204c0 1.0572139.8513683 1.9142551 1.9015843 1.9142551s1.9015842-.8570412 1.9015842-1.9142551v-9.5712754c0-.6025258-.2818037-1.1698886-.7606337-1.5314041z"/><path d="m22.8979266 17.3077374c-.1404085-.3536463-.4146475-.636642-.7623649-.786708-.3477173-.1500659-.7404179-.1549044-1.0916797-.0134506l-4.5333769 1.7926998-5.1009997-5.4986977c-.9784247-1.1410171-2.53444782-1.5917644-3.96567244-1.1487723s-2.46688567 1.6959166-2.63948038 3.1931967c0 0-4.80435258 26.6933301-4.80435258 27.2676066.013772.9473519.71390128 1.7420398 1.64659689 1.8689843.93269562.1269446 1.81732301-.45205 2.08050821-1.3617067l7.7822335-24.1196141 3.6586481 2.5172455c.5232754.3600712 1.1903707.4340088 1.778932.1971682l5.1561457-2.0425101c.7310474-.2943406 1.0868478-1.1293594.7948622-1.8654416z"/></g><path d="m4 51c-1.1045695 0-2-.8954305-2-2s.8954305-2 2-2l25.1706743.0000889c.4118113-1.1652388 1.5230736-2.0000889 2.8293257-2.0000889 1.6568542 0 3 1.3431458 3 3s-1.3431458 3-3 3z"/><rect height="3" rx="1.5" transform="matrix(0 1 -1 0 65 -30)" width="15" x="40" y="16"/><rect height="3" rx="1.5" width="15" x="34" y="22"/><rect height="3" rx="1.5" transform="matrix(0 1 -1 0 78.5 -4.5)" width="28" x="27.5" y="35.5"/></g></svg>