<svg height="54" viewBox="0 0 53 54" width="53" xmlns="http://www.w3.org/2000/svg"><g fill="none" fill-rule="evenodd" transform="translate(0 .133413)"><g fill="#fff" fill-rule="nonzero"><path d="m33.2311166 10.583946c.747079-3.04515256-1.1206186-6.04859067-4.1504392-6.7994502-3.0298207-.75085952-6.0181369 1.12628929-6.765216 4.17144182-.747079 3.04515248 1.1206186 6.04859058 4.1504392 6.79945018 3.0298207.7508595 6.0181369-1.1680037 6.765216-4.1714418z"/><path d="m28.624129 17.2165384c-.8715922-.7508595-2.1582284-.6674306-2.9053074.2085721-.7470791.8760028-.6640703 2.1691498.2075219 2.9200093l6.8897292 5.9234474c.8715922.7508595 2.1582284.6674307 2.9053074-.2085721.7470791-.8760028.6640703-2.1691497-.2075219-2.9200093z"/><path d="m32.4425331 38.1988908c.3320352-1.3348614-.4565483-2.6697228-1.7431844-3.0034381-1.3281406-.3337154-2.6562812.4588586-2.9883163 1.7520055l-2.1997328 8.5097413c-.3320351 1.3348614.4565483 2.6697228 1.7431845 3.0034381 1.3281405.3337154 2.6562811-.4588586 2.9883162-1.7520055z"/><path d="m12.85246 44.8731977c-.5395571 1.2514325.0415044 2.7114372 1.2866361 3.2537246 1.2451318.5422874 2.6977855-.0417144 3.2373426-1.293147l3.9014129-6.5491636c.5395571-1.2514326-.0415044-2.7114372-1.2866362-3.2537246-1.2451317-.5422875-2.6977855.0417144-3.2373426 1.2931469z"/><path d="m19.7006847 34.9868806c-.7055747-.5422875-1.2866362-1.2097181-1.7016801-1.9188633l-1.3281405 5.7565897c-.207522 1.3348614.7055746 2.586294 2.0337152 2.7948661 1.3281405.2085721 2.5732723-.7091451 2.7807943-2.0440065l.8715922-2.6697228z"/><path d="m41.9055346 26.8108546c1.162123 0 2.0752196-.9177172 2.0752196-2.0857209s-.9130966-2.0857209-2.0752196-2.0857209h-7.6368082c-1.162123 0-2.0752196.9177172-2.0752196 2.0857209s.9130966 2.0857209 2.0752196 2.0857209z"/><path d="m18.8705969 29.0634332c-.4980528 1.7520056.1660175 3.6291544 1.6601756 4.7137293l8.1763653 5.8400185c1.1206186.7091451 2.6147767.4171442 3.4033602-.7091451.7470791-1.1680037.4150439-2.7114372-.7470791-3.4622967l-4.2749524-3.086867 2.9053075-10.7206054c.6640703-2.2525786-.7055747-4.6303004-2.9468119-5.2977311l-.2490263-.0834289c-2.2412372-.6674307-4.5654832.6257163-5.2295534 2.8782949z"/><path d="m36.0949196 50.0040711h-28.84555258c-.5810615 0-1.03760981-.4588586-1.03760981-1.0428604 0-.5840019.45654831-1.0428605 1.03760981-1.0428605h28.84555258c2.6147768 0 5.0220315-1.001146 6.8897292-2.8782948.4150439-.4171442 1.0791142-.4171442 1.4526537 0 .3735395.4171441.4150439 1.0845748 0 1.4600046-2.2412372 2.2525786-5.188049 3.5040111-8.3423829 3.5040111z"/><path d="m34.8497879 49.5869269c-.0830088 0-.1660176 0-.207522-.0417144-.5395571-.1251432-.9130966-.6674307-.7885834-1.2514325l6.350172-28.4492332c.1245132-.5422874.6640703-.9177172 1.2451318-.792574.5395571.1251433.9130966.6674307.7885834 1.2514326l-6.350172 28.4492332c-.1245132.500573-.5395571.8342883-1.0376098.8342883z"/><path d="m15.5502455 29.1051476-2.1582284-.5840018c-.8300879-.2085721-1.2866362-1.0845749-1.0791142-1.8771489l2.5317679-9.385744c.207522-.8342884 1.0791142-1.293147 1.8676977-1.0845749l2.2412371.6257163c.7470791.2085721 1.2036274 1.001146.9961055 1.7520055l-2.5732724 9.5526018c-.2075219.7508595-1.0376098 1.2097181-1.8261932 1.001146z"/><path d="m13.7655566 26.351996-1.5356625-.4171442c-.5810615-.1668576-.954601-.7925739-.7885835-1.3765758l.6225659-2.3360074c.1660176-.5840018.7885835-.9594316 1.369645-.7925739l1.6186713.4588586-1.2036274 4.4217283c0 .0417144-.0415044.0834288-.0830088.0417144z"/></g><path d="m0 0h53v53h-53z"/></g></svg>