<svg height="53" viewBox="0 0 53 53" width="53" xmlns="http://www.w3.org/2000/svg"><g fill="none" fill-rule="evenodd"><g fill="#fff" fill-rule="nonzero"><path d="m28.5500184 10.583946c.747079-3.04515256-1.1206186-6.04859067-4.1504393-6.7994502-3.0298206-.75085952-6.0181368 1.12628929-6.7652159 4.17144182-.7470791 3.04515248 1.1206186 6.04859058 4.1504392 6.79945018 3.0298207.7508595 6.0596413-1.1680037 6.765216-4.1714418z"/><path d="m20.8717058 19.3856882v9.3023152c0 1.8771489.5810615 3.6708688 2.4072547 4.3800139l9.7950366 3.7125833c1.2866362.4171441 2.6562811-.2085721 3.1128294-1.5017191.415044-1.3348614-.2905307-2.7114372-1.5771669-3.1702958l-5.0220314-1.9188632v-12.2640389z"/><path d="m34.6096596 32.1085857c-1.2866361-.4588586-2.6977855.1668577-3.1543338 1.4182902-.4565483 1.293147.1660176 2.7114372 1.4111494 3.1702958l10.6251244 3.8377265c1.2866361.4588586 2.6977855-.1668577 3.1543338-1.4182902.4565483-1.293147-.1660176-2.7114372-1.4111493-3.1702958z"/><path d="m24.8146231 39.2417512c-1.1206186-.500573-2.4487592-.0834288-3.0713251 1.0011461l-4.0674304 7.0497366c-.5395571 1.2514326.0415044 2.7114372 1.2866361 3.2537246 1.2451318.5422875 2.6977855-.0417144 3.2373426-1.2931469l3.7353953-6.5074492c.7470791-1.2514326.2490264-2.9200093-1.1206185-3.5040112z"/><path d="m22.2828551 34.2360211-.7885834 6.7577357c-.207522 1.3348614.7055746 2.5862939 2.0337152 2.794866s2.5732723-.7091451 2.7807943-2.0440065l.6225659-5.8817329z"/><path d="m42.4539898 10.4588027c.8300878-.83428836.8300878-2.12743532 0-2.96172368-.8300879-.83428837-2.116724-.83428837-2.9468119 0l-5.395571 5.42287438c-.8300878.8342883-.8300878 2.1274353 0 2.9617237.8300879.8342883 2.116724.8342883 2.9468119 0z"/><path d="m4.6849928 27.14457h14.7755637v-2.1274354h-14.7755637c-.62256588 0-1.0791142.4588586-1.0791142 1.0428605 0 .6257163.45654832 1.0845749 1.0791142 1.0845749z"/><path d="m37.3074451 13.7125273c-.4565483-1.0845749-1.6186713-1.5851479-2.6977855-1.1262893l-30.4227195 12.5560399 10.3345937.1668577 21.6237884-8.8851711c1.0791141-.4171442 1.5771669-1.6268623 1.1621229-2.7114372z"/><path d="m45.7328368 27.14457c.5810615 0 1.0376098-.5005731 1.0376098-1.0845749 0-.5840019-.4565483-1.0428605-1.0376098-1.0428605h-14.7340593v1.4600047.7091451h14.7340593z"/></g><path d="m0 0h53v53h-53z"/></g></svg>