<svg height="44" viewBox="0 0 53 44" width="53" xmlns="http://www.w3.org/2000/svg"><g fill="#fff" transform="translate(0 .969338)"><g transform="translate(4)"><path d="m10.4371856 6.80185099c.2970128-1.00700346.2875532-2.07913225-.0271826-3.08077932-.3147359-1.00164707-.92060831-1.8878125-1.74098415-2.54641131-.82037544-.65859841-1.81839894-1.0600427-2.86783519-1.15355479-1.04943664-.09351249-2.10314008.12510806-3.02783326.6282083-.92469317.50310024-1.6788349 1.26807899-2.1670368 2.19817841-.48820191.93009942-.68853261 1.98353506-.57565247 3.02706248.11288015 1.04352741.53389941 2.03026831 1.2098056 2.83541217.6759062.80514425 1.57633374 1.39252167 2.58739321 1.68783867 1.35514329.3958187 2.81261412.2393729 4.05199932-.43494216 1.2393852-.67431544 2.15923474-1.81130581 2.55732634-3.16101245z"/><path d="m27.3302976 26.6239918 15.0583835-6.3492744c.417649-.4708518.6359575-1.0845608.6091055-1.7123155-.0268516-.6277547-.2967769-1.2207397-.7531229-1.6544933-.2348617-.2107998-.5097301-.3726059-.8083859-.4758702-.2986554-.1032655-.6150476-.1458961-.9305098-.1253808-.2103079.013676-.5123911.0952857-.9062497.244829l-17.8597727 5.3711393c-.003536.0022762-2.7735844-2.7761813-8.310145-8.3353727-.0026341-.0108433-.0020501-.0124221-.001147-.013821l11.6117344-2.9612484c.2327215-.1240225.4380932-.2933011.603958-.4978114.1658648-.20451189.288845-.44009737.3616636-.69280697.0728185-.2527092.0939959-.51740623.0622735-.77841454-.0317221-.26100832-.1156997-.51302341-.246957-.74112142-.131257-.228098-.3071236-.42763905-.5171897-.58681219-.2100662-.15916999-.4500603-.27473653-.7057683-.33985281-.255708-.06511353-.5219323-.0784546-.7829101-.03923163-.2609774.03922259-.5114038.13021174-.7364444.26757843l-15.13051303 4.32441743c-1.11276353.6787433-1.83224436 1.2244268-2.15844251 1.6370505-.4892976.6189357-.82259091 1.3456548-.97196576 2.1192891-.14937525.7736364-.11048278 1.5716638.1134195 2.327248.22390269.7555842.626297 1.4467239 1.17347976 2.0155351l8.82795274 7.9460193c.534309.5343774 1.1864155.9371935 1.9044591 1.1764166.7180435.2392227 1.4822174.3082525 2.2317463.2015954l2.4364263-.3462731c.0034679-.0012533 1.9451085-.6615926 5.8249216-1.9810178z"/></g><path d="m30.2233755 12.2543872-2.5364848-2.26386267-2.1886923 4.57168747 1.645716 1.0478408v7.4570346c0 1.0296017.861701 1.8642587 1.9246632 1.8642587 1.0629621 0 1.9246631-.834657 1.9246631-1.8642587v-9.3212933c0-.586789-.2852238-1.1393335-.7698652-1.4914069z" transform="matrix(.32556815 -.94551858 .94551858 .32556815 2.540175 38.483064)"/><path d="m43.127655 10.720078-1.4468497-4.00102699-7.5796854 3.78294149c-.3990205.2040204-.7106421.5510594-.8754429.9749416l-1.8553212 4.7688567c-.2641397.7081439.0764829 1.5019606.7649815 1.7827794s1.4699883-.0553205 1.7550951-.7549125l1.7363555-4.4383052z" transform="matrix(0 1 -1 0 49.627655 -24.780949)"/><path d="m9.5 24c-1.87892012 0-3.71564712.5571638-5.2779135 1.6010371-1.56226669 1.0438727-2.77990576 2.5275731-3.49893778 4.2634699-.71903234 1.7358969-.90716427 3.6460278-.54060465 5.4888471.36655963 1.8428193 1.271347 3.5355574 2.59994541 4.8641561 1.32859842 1.3285983 3.02133554 2.2333857 4.86415458 2.5999456 1.84281872.3665603 3.75295094.1784271 5.48884904-.5406056 1.7358979-.7190326 3.2195961-1.9366704 4.2634698-3.498937 1.0438736-1.562267 1.6010371-3.3989933 1.6010371-5.2779132 0-2.5195593-1.0008897-4.9359201-2.7824847-6.717515-1.781595-1.781595-4.1979571-2.782485-6.7175153-2.782485zm0 16c-1.2855765 0-2.54228515-.3812174-3.61120399-1.0954463-1.06891916-.7142289-1.90204049-1.7293902-2.39401007-2.9171092-.49196958-1.1877193-.62069132-2.4946545-.36988727-3.7555303.25080405-1.2608762.86986907-2.419064 1.77891038-3.328105.90904066-.9090414 2.06722982-1.5281061 3.32810562-1.7789105 1.26087614-.2508043 2.56780933-.1220819 3.75552863.3698873 1.1877193.4919693 2.2028815 1.3250913 2.9171104 2.3940105.7142289 1.0689188 1.0954463 2.3256269 1.0954463 3.6112035 0 .8535939-.1681273 1.6988277-.4947821 2.4874445-.3266552.7886165-.8054431 1.5051701-1.4090231 2.1087502-.6035801.6035801-1.320136 1.082368-2.1087515 1.4090232-.7886155.3266548-1.6338503.4947821-2.4874433.4947821z"/><path d="m43.5 24c-1.8789201 0-3.7156471.5571638-5.2779135 1.6010371-1.5622667 1.0438727-2.7799058 2.5275731-3.4989378 4.2634699-.7190323 1.7358969-.9071643 3.6460278-.5406046 5.4888471.3665596 1.8428193 1.271347 3.5355574 2.5999454 4.8641561 1.3285984 1.3285983 3.0213355 2.2333857 4.8641546 2.5999456 1.8428187.3665603 3.7529509.1784271 5.488849-.5406056 1.7358979-.7190326 3.2195961-1.9366704 4.2634698-3.498937 1.0438736-1.562267 1.6010371-3.3989933 1.6010371-5.2779132 0-2.5195593-1.0008897-4.9359201-2.7824847-6.717515-1.781595-1.781595-4.1979571-2.782485-6.7175153-2.782485zm0 16c-1.2855765 0-2.5422852-.3812174-3.611204-1.0954463-1.0689192-.7142289-1.9020405-1.7293902-2.3940101-2.9171092-.4919695-1.1877193-.6206913-2.4946545-.3698872-3.7555303.250804-1.2608762.869869-2.419064 1.7789103-3.328105.9090407-.9090414 2.0672299-1.5281061 3.3281057-1.7789105 1.2608761-.2508043 2.5678093-.1220819 3.7555286.3698873 1.1877193.4919693 2.2028815 1.3250913 2.9171104 2.3940105.7142289 1.0689188 1.0954463 2.3256269 1.0954463 3.6112035 0 .8535939-.1681273 1.6988277-.4947821 2.4874445-.3266552.7886165-.8054431 1.5051701-1.4090231 2.1087502-.6035801.6035801-1.320136 1.082368-2.1087515 1.4090232-.7886155.3266548-1.6338503.4947821-2.4874433.4947821z"/></g></svg>