<svg height="54" viewBox="0 0 53 54" width="53" xmlns="http://www.w3.org/2000/svg"><g fill="none" fill-rule="evenodd" transform="translate(0 .969338)"><g fill="#fff" fill-rule="nonzero"><path d="m22.5539626 42.2777524c1.2866361 0 2.2827416-1.0428605 2.2827416-2.294293 0-1.2514326-1.0376098-2.294293-2.2827416-2.294293h-9.7950366c-1.2866362 0-2.2827416 1.0428604-2.2827416 2.294293 0 1.2514325 1.0376098 2.294293 2.2827416 2.294293z"/><path d="m23.4670592 18.3753908c1.162123 0 2.0752196-.9177172 2.0752196-2.0857209s-.9130966-2.0857209-2.0752196-2.0857209h-8.259374c-1.162123 0-2.0752197.9177172-2.0752197 2.0857209s.9130967 2.0857209 2.0752197 2.0857209z"/><path d="m36.5824472 28.47028c-.8300879.8342883-.8300879 2.1274353 0 2.9617237.8300878.8342883 2.116724.8342883 2.9468118 0l5.5615886-5.5897321c.8300878-.8342883.8300878-2.1274353 0-2.9617237-.8300879-.8342883-2.116724-.8342883-2.9468119 0z"/><path d="m32.8470519 36.1457329c.1245131-1.3348614 1.3281405-2.3360074 2.6562811-2.2108641 1.3281405.1251432 2.3242459 1.3348613 2.1997328 2.6697227l-1.5356625 11.2211785c-.1245132 1.3348614-1.3281406 2.3360074-2.6562812 2.2108642-1.3281405-.1251433-2.3242459-1.3348614-2.1997327-2.6697228z"/><path d="m45.0908476 22.7136903-5.395571-5.4228744c-1.9922108-1.9605776-4.6484919-3.0868669-7.4292862-3.0868669h-8.8404356c-1.0791142 0-2.0337152.7925739-2.1582284 1.8771488-.1245132 1.2514325.8715923 2.294293 2.0752196 2.294293h5.7276062l-5.395571 5.4228743c-2.0337152 2.0440065-1.9507065 5.3394456.1245132 7.3000232.0830087.0834289.1660175.1668577.2905307.2502865l9.629019 6.9663079c1.0791142.8342883 2.6147767.6257162 3.4448646-.4588586.8300878-1.0845749.6225659-2.6280084-.4565483-3.4622967l-5.4370754-3.9628698 7.8858345-7.884025 3.0298206 3.0451525c.7470791.7508596 1.9922109.8760028 2.8638031.2085721.8300878-.7925739.8715922-2.2108641.0415044-3.0868669z"/><path d="m47.0830584 10.3662225c.6225659-3.04515252-1.3696449-6.00687621-4.3994656-6.63259248-3.0298206-.62571627-5.9766324 1.3765758-6.5576939 4.42172832-.5810615 3.04515256 1.3281405 6.00687626 4.3579611 6.63259246 3.0298207.5840019 6.0181369-1.3765758 6.5991984-4.4217283z"/><path d="m17.3244092 22.588547c.6225658-3.0451525-1.369645-6.0068762-4.3994656-6.6325925-3.02982066-.6257162-5.97663251 1.3765758-6.5991984 4.4217284-.62256588 3.0451525 1.36964495 6.0068762 4.3994656 6.6325924 3.0298206.5840019 5.9766325-1.3765758 6.5991984-4.4217283z"/><path d="m23.0105109 32.3914353c-.0830088-.0834288-.207522-.1668577-.2905307-.2502865-.3320352-.3337154-.6225659-.6674307-.8715923-1.0845749l-1.7016801 8.1343115c-.3320351 1.3348614.4565483 2.6697228 1.7846889 3.0034382 1.3281406.3337153 2.6562811-.4588586 2.9883162-1.79372l1.2036274-5.7565897z"/></g><path d="m0 0h53v53h-53z"/></g></svg>