<svg height="53" viewBox="0 0 53 53" width="53" xmlns="http://www.w3.org/2000/svg"><g fill="none" fill-rule="evenodd"><g fill="#fff" fill-rule="nonzero"><path d="m23.2937706 14.4002638c2.8222987 1.3348614 6.1011457.1251433 7.4707906-2.7114372 1.3281406-2.83658039.1245132-6.13201943-2.6977855-7.50859523s-6.1011456-.12514325-7.4707906 2.71143718c-1.3281405 2.83658044-.0830088 6.21544835 2.6977855 7.50859525z"/><path d="m13.498734 28.0408786c-1.162123 0-2.0752196-.9177172-2.0752196-2.085721 0-1.1680037.9130966-2.0857209 2.0752196-2.0857209h10.6666288c1.162123 0 2.0752197.9177172 2.0752197 2.0857209 0 1.1680038-.9130967 2.085721-2.0752197 2.085721z"/><path d="m32.9227896 38.2191966c0-1.3765758-1.0791142-2.4611507-2.4487591-2.4611507-1.369645 0-2.4487592 1.0845749-2.4487592 2.4611507v7.8005962c0 1.3765758 1.0791142 2.4611506 2.4487592 2.4611506 1.3696449 0 2.4487591-1.0845748 2.4487591-2.4611506z"/><path d="m24.1653628 42.5992105c.9546011-.9594316.9546011-2.5028651 0-3.4622967-.954601-.9594316-2.4902635-.9594316-3.4448645 0l-5.1050403 5.1308734c-.954601.9594316-.954601 2.5028651 0 3.4622967.9546011.9594316 2.4902636.9594316 3.4448646 0z"/><path d="m26.8631483 33.7557538c.3320352-1.3348613-.4565483-2.6697227-1.7846888-2.9617236-1.3281406-.3337154-2.6562811.4588586-2.9468119 1.7937199l-1.8676976 7.5503097c-.3320352 1.293147.4565483 2.6280084 1.7431844 2.9617237 1.3281406.3337154 2.6562812-.4588586 2.9468119-1.79372z"/><path d="m41.5557032 16.9031289h-13.5719363c-1.1621229 0-2.1997328.9594316-2.1582284 2.1691498.0415044 1.1262892.9546011 2.002292 2.0752197 2.002292h13.654945c1.162123 0 2.0752196-.9177172 2.0752196-2.0857209s-.954601-2.0857209-2.0752196-2.0857209z"/><path d="m32.1342062 36.1751901-2.8638031-2.7531516v-16.5189096h-6.7652159c-1.8676977 0-3.6108822.7508595-4.9390227 2.0440065l-5.4370754 5.4645888c-.8300879.8342883-.8715923 2.2525786-.0415044 3.0451525.8300878.7925739 2.0752196.7508595 2.9053075-.0417144l4.6069875-4.6303004v7.2583087c0 1.6268623.7470791 3.1285814 2.0752196 4.088013l7.0972511 5.6314465c.9961054 1.001146 2.6977855.9594316 3.6108821-.1668577.8300879-1.0011461.6640703-2.5028651-.2490263-3.4205823z"/></g><path d="m0 0h53v53h-53z"/></g></svg>