<svg height="53" viewBox="0 0 53 53" width="53" xmlns="http://www.w3.org/2000/svg"><g fill="none" fill-rule="evenodd"><g fill="#fff" fill-rule="nonzero"><g transform="translate(9.908529 6.961346)"><path d="m4.16081533.70401769c-.91309663-.95943162-2.49026354-.9177172-3.44486456 0-.95460103.9177172-.95460103 2.50286509 0 3.46229671l6.18415445 6.2154483c.91309663.9594316 2.49026353.9594316 3.44486458 0 .954601-.9177172.954601-2.50286509 0-3.46229671z"/><path d="m9.59789071 6.50232181c-1.24513176-.50057302-2.6562811.12514326-3.15433381 1.3765758-.49805271 1.25143255.12451318 2.66972279 1.36964495 3.17029579l8.79893115 3.3788679c1.2451318.500573 2.6562811-.1251433 3.1543338-1.3765758.4980527-1.2514326-.1245132-2.6697228-1.3696449-3.17029582z"/></g><path d="m40.5076426 22.4322678c-.415044 1.293147.2905307 2.6697228 1.6601757 3.0868669 1.3696449.4171442 2.6562811-.2920009 3.071325-1.6685767l3.0298206-9.5526017c.4150439-1.293147-.2905307-2.6697228-1.6601757-3.086867-1.3696449-.4171442-2.6562811.2920009-3.071325 1.6685767z"/><path d="m33.2858783 25.8945645c-1.162123.6674307-1.5771669 2.1691497-.8715922 3.3788679.6640702 1.1680037 2.1582284 1.5851479 3.3618557.8760028l8.0103478-4.6720149c1.1621229-.6674307 1.5771669-2.1691497.8715922-3.3788679-.7055747-1.2097181-2.1582284-1.5851478-3.3618558-.8760027z"/><path d="m32.7463212 39.9523234c-.1660176-1.3348614-1.4111493-2.3360074-2.6977855-2.1274353-1.3281405.1668577-2.324246 1.4182902-2.116724 2.7114372l1.0791142 8.7183134c.1660176 1.3348613 1.4111493 2.3360074 2.6977855 2.1274353 1.3281406-.2085721 2.324246-1.4182902 2.116724-2.7114372z"/><path d="m35.8176462 29.1065747c.3735396-1.293147-.3735395-2.6697228-1.6601757-3.0451525-1.2866361-.3754298-2.6562811.3754297-3.0298206 1.6685767l-3.1543338 11.6800371c-.3735395 1.2931469.3735395 2.6697227 1.6601757 3.0451525 1.2866361.3754298 2.6562811-.3754298 3.0298206-1.6685767z"/><path d="m27.9318117 14.8819581c3.1128294 0 5.603093-2.5028651 5.603093-5.63144644 0-3.12858136-2.4902636-5.63144645-5.603093-5.63144645s-5.603093 2.50286509-5.603093 5.63144645c0 3.12858134 2.531768 5.63144644 5.603093 5.63144644z"/><path d="m16.8916434 22.5156966c-1.2036274.5422875-1.7846889 2.0440065-1.2036274 3.2537246.5395571 1.2097182 2.0337152 1.79372 3.2373426 1.2097182l7.9273389-3.7125832c1.2036274-.5422875 1.7846889-2.0440065 1.2036274-3.2537247-.5810615-1.2097181-2.0337152-1.7937199-3.2373426-1.2097181z"/><path d="m7.96819902 25.0602761c-1.28663616.3754298-2.03371522 1.7520056-1.66017569 3.0451526.37353953 1.2931469 1.74318447 2.0440065 3.02982063 1.6685767l9.04795754-2.5862939c1.2866361-.3754298 2.0337152-1.7520056 1.6601757-3.0451526-.3735396-1.2931469-1.7431845-2.0440065-3.0298207-1.6685767z"/><path d="m24.6114603 17.8853962-3.6938909 3.9211553 9.9195498 9.969746 6.5161896-6.7577358-7.0557467-7.0914511c-1.5771669-1.6268623-4.1089349-1.6268623-5.6861018-.0417144z"/></g><path d="m0 0h53v53h-53z"/></g></svg>