<svg height="53" viewBox="0 0 53 53" width="53" xmlns="http://www.w3.org/2000/svg"><g fill="#fff" transform="translate(6 3)"><circle cx="35.2" cy="5.5" r="5.5"/><path d="m14.2307 31.9803c-1.1150733-.8882259-1.9365624-2.091901-2.3573-3.454l-11.2838 14.322c-.93982296 1.193156-.73445597 2.922277.4587 3.8621s2.92227704.734456 3.8621-.4587l10.6128-13.4717c-.4591001-.217914-.8925886-.4861234-1.2925-.7997z"/><path d="m45.0153 20.2961c-.333611-1.1681795-1.5509647-1.8448154-2.7192-1.5114l-6.0632 1.7325s-4.3626-7.4393-4.367-7.4448c-.5021216-.9643516-1.3198188-1.7273027-2.3166-2.1615-.0605-.0308-10.01-4.1437-10.01-4.1437-.8892276-.36735901-1.914015-.11428109-2.53.6248l-5.5 6.6c-.50303.6040289-.6456032 1.430538-.3740138 2.1681892.2715895.7376511.9160807 1.2743777 1.6907 1.408.7746194.1336222 1.5616838-.1561603 2.0647138-.7601892l4.4693-5.3559 3.7312 1.54-8.25 10.3125c-.9619164 1.1753899-1.3235859 2.7307763-.9789341 4.2099787s1.3565573 2.714548 2.7389341 3.3437213c.0462.0242 6.82 3.0558 6.82 3.0558l-6.16 6.5472c-.6735885.7152457-.914431 1.7355152-.6318043 2.6764829.2826267.9409676 1.0457848 1.659678 2.002 1.8854.9562152.2257219 1.9602158-.0758372 2.6338043-.7910829l8.8-9.35c.6086625-.6465505.8676741-1.5472143.6954594-2.4183284-.1722147-.871114-.7544604-1.6054657-1.5633594-1.9717716l-5.4604-2.464 6.7837-8.481 2.783 4.6684c.5082965.8640095 1.5363964 1.2751589 2.5003.9999l7.7-2.2c1.1681795-.333611 1.8448154-1.5509647 1.5114-2.7192z"/></g></svg>