<svg height="53" viewBox="0 0 53 53" width="53" xmlns="http://www.w3.org/2000/svg"><g fill="#fff" fill-rule="evenodd" transform="translate(2)"><path d="m18.8798586 43.1058217c-.046816-.0636002-.0861264-.1307329-.1294092-.196541-.2680903-.4058893-.4712558-.8426983-.6059636-1.2984962-.1347083-.4557984-.2014002-.930588-.196541-1.4115612.0022088-.2349659.0158995-.4703729.0521165-.7066637l.1095316-.7013629c-1.2101628-1.3086541-2.9366303-2.1332433-4.8596401-2.1332433-3.65875364 0-6.62497641 2.9662228-6.62497641 6.6249764 0 1.6182609.58211504 3.1000478 1.54582783 4.2505853l-3.75415329 2.8160562h-3.09165565c-.73183906 0-1.32499528.5931558-1.32499528 1.3249953s.59315622 1.3249953 1.32499528 1.3249953h3.53332074c.28664065 0 .56577254-.0931909.79499673-.2654399l4.67944205-3.5103568c.8811224.4337156 1.8691263.6836998 2.9176392.6836998 3.3906638 0 6.1815442-2.548408 6.5733016-5.833513-.3528904-.2747152-.6717709-.5980145-.9433958-.9690132z"/><path d="m48.5831602 50.3495678h-4.045654l-1.2401947-2.811197c3.0863552-1.2353364 5.2695058-4.2483783 5.2695058-7.775957 0-4.6273256-3.751063-8.3788271-8.3788285-8.3788271-1.3086528 0-2.5426642.3087243-3.645944.8440233l-4.1057178-9.3063265c.4036823-.1673902.7548056-.4553558 1.0030196-.8382817h6.7521769c.5419217 0 1.0290805-.3299242 1.230039-.8329808l4.4166509-11.0416242c.2716232-.67972303-.0587432-1.45042994-.738025-1.72249431-.6783989-.27118193-1.4508711.05873925-1.7220531.73802148l-4.0836328 10.20864603h-6.0459547c-.2075831-.2371754-.4637497-.4372475-.7715898-.5719554l-12.2341218-5.3472406c-.0958409-.0543217-.1947734-.1051154-.2981235-.1501643l-1.7224947-.7053392c-1.5643774-.6836993-3.3871288.0300337-4.071268 1.5948527l-6.04286222 12.6885964h-2.36644157c-.73183906 0-1.32499528.5931558-1.32499528 1.3249953 0 .7318399.59315622 1.3249953 1.32499528 1.3249953h2.70122326l1.12182978 5.6745131c1.12359595-.5185148 2.36909155-.8161971 3.68525355-.8161971.5419226 0 1.0701545.0565309 1.5855777.1501648l-.7755639-3.9237509 7.3753658 1.1439113-1.2521201 8.0109196c-.2243659 1.4464541.7662889 2.8005966 2.2123 3.0249638 1.4464536.2243677 2.8005979-.7662854 3.0249638-2.2122982l1.2543306-8.0104785h.0039728l.4372476-2.8187084.0035346-.0238499c.204933-1.3219036-.7004804-2.5603299-2.022384-2.7652625l-2.8434394-.4412239-4.4237189-.686348 3.1521642-7.2406579 8.2710626 3.6150279 3.1314037 7.0975593-3.3588608 2.5197003-.5874154 3.7528256 5.0442561-3.7837422.8471132 1.9199186c-1.5533352 1.5210946-2.5196967 3.6388761-2.5196967 5.9845581 0 4.6273243 3.7515046 8.3788289 8.3788285 8.3788289.158117 0 .3118164-.0150184.4677224-.0234092l.9844702 2.2317346h-3.6574282c-.7318377 0-1.3249953.5931571-1.3249953 1.3249953 0 .7318378.5931576 1.3249953 1.3249953 1.3249953h10.5999622c.7318382 0 1.3249953-.5931575 1.3249953-1.3249953 0-.7318382-.5931571-1.3249953-1.3249953-1.3249953z"/><path d="m22.1534988 11.835491c3.2431468.5719563 6.3352424-1.5935277 6.9071987-4.83667444.5719562-3.24314678-1.5935259-6.33524409-4.8366727-6.90720039-3.2431472-.57195629-6.3352441 1.59352766-6.9072004 4.83667444-.5719563 3.24314721 1.5935277 6.33524409 4.8366744 6.90720039z"/></g></svg>