<svg height="53" viewBox="0 0 53 53" width="53" xmlns="http://www.w3.org/2000/svg"><g fill="none" fill-rule="evenodd"><g fill="#fff" fill-rule="nonzero" transform="translate(6 2.999719)"><path d="m10.488184 32.9854013-.1718894-.17187-.48383675-.4835707-3.84073536-3.8395545.01760087 7.7620255-5.35740639 5.4956828c-.41971231.425746-.65420051 1.0018583-.65191697 1.6016054.00235148.5997466.24128521 1.1740041.66427503 1.5964518.4229621.4224747.99534589.6585448 1.59124145.6563154.59589555-.0022939 1.16649379-.2427018 1.58627762-.6683758l6.00714075-6.2080368c.36535105-.3782063.58766545-.8731772.62838905-1.3990783.0123869-.0935906.0187655-.1878871.0190985-.2823038z"/><path d="m10.6686869 10.1764917c2.7921143 0 5.0555698-2.27808495 5.0555698-5.08824587 0-2.8101609-2.2634555-5.08824583-5.0555698-5.08824583-2.79211418 0-5.05557044 2.27808493-5.05557044 5.08824583 0 2.81016092 2.26345626 5.08824587 5.05557044 5.08824587z"/><path d="m26.892465 23.5363489c-.0775674-.3506416-.2524826-.6719006-.5043848-.9263886l-11.7831638-10.0012917-.0146054.0146999c-.4093034-.3642774-.9369622-.5651218-1.4833413-.5646389h-2.3490614c-2.44709615 0-4.44935852 1.9608914-4.51620041 4.4228848l-.25859823 9.5249728 3.183136 3.200317 6.56213084 6.6086906v7.9229626c0 .5997726.2367287 1.1749793.6581074 1.5990834.4213788.4241038.9928931.6623592 1.5888126.6623592.5959199 0 1.1674337-.2382554 1.5888129-.6623592.4213788-.4241041.6581072-.9993108.6581072-1.5990834v-8.8772933c-.0000127-.2978244-.058475-.5927116-.1720321-.8677328s-.2799692-.5247606-.4896852-.7348757l-3.8321228-3.8395515-.3744867-.3769071v-10.3133082l8.3622283 6.5699275c.2668495.2681344.6073826.4496751.9776949.5212206.3703122.0715457.7534248.0298127 1.0999545-.1198164.0044564.0035095.8317693-.3552763 1.0986975-.9107199.2236807-.4654508.0345045-1.0971758 0-1.2531517z"/><path d="m37.2491343 25.9905312c-.136818-1.6446422-1.5987316-2.9905312-3.2490135-2.9905312h-6.000025c-1.6505819 0-3.1125129 1.345814-3.2490135 2.9905312l-1.7510823 19.2319225h2.0067583l.8328035-8.2223078h10.320293l.3663015 4.4022959c-.9072288.5156303-1.5261814 1.4804903-1.5261814 2.598527 0 1.6563673 1.3436557 2.9990312 3.0000125 2.9990312 1.656357 0 3.0000126-1.3427889 3.0000126-2.9990312 0-1.4840904-1.0811545-2.7087782-2.4960104-2.9502807zm-10.5051688.1650017c.0506828-.6045063.6483527-1.1552871 1.2560553-1.1552871h6.000025c.6072276 0 1.205955.5507808 1.2557552 1.1561621l.1536132 1.8438692h-8.8197868zm-.737403 8.8448421.4172767-5.0000521h9.1525381l.4169018 5.0000521zm11.9933 10.0001042c-.5516523 0-.9999042-.4469796-.9999042-.9999104 0-.5516558.4482519-.9999105.9999042-.9999105s.9999041.4482547.9999041.9999105c0 .5529308-.4482518.9999104-.9999041.9999104z"/></g><path d="m0-.000281h53v53h-53z"/></g></svg>