<svg height="53" viewBox="0 0 53 53" width="53" xmlns="http://www.w3.org/2000/svg"><g fill="#fff" fill-rule="evenodd" transform="translate(8)"><path d="m25.0208241 8.79263807c1.4487814-3.08301025.1239776-6.75675234-2.9590326-8.20553381-3.0830103-1.44878147-6.7567524-.12397764-8.2055338 2.9590326-1.4487813 3.08300983-.1239769 6.75675064 2.9590333 8.20553214 3.0830103 1.4487815 6.7567518.1239789 8.2055331-2.95903093z"/><path d="m35.070344 3.58759589c-1.0563129-.70588783-2.484991-.42216178-3.1908751.63415117l-3.7149202 5.5584453-5.324981 4.38425504h-5.5383415c-.965851 0-1.8407834.382867-2.4868177 1.0028594l-5.41817974 4.5364004c-.01918911.0159891-.0365516.0342649-.05574071.0507109l-.29925781.253574c-.9462063.8018293-1.65346249 1.8494628-2.04318371 3.0273064l-2.30726194 6.6577085c-.39931577 1.2061721.25494011 2.507831 1.46111269 2.9066913 1.20617303.3993162 2.50783473-.2549387 2.90669362-1.4611113l2.2524359-6.5608478 2.3954405-2.1523762v10.7564059l-13.14271184 15.4115969c-.9197066 1.2025193-.68989463 2.9231387.51262289 3.8428453 1.20251751.919707 2.92314188.6898918 3.84284802-.5126239l14.02541173-16.5035449 5.999793 4.7292007-1.2596261 9.7581194c-.1937186 1.5013207.8662512 2.8760779 2.3675701 3.0697979 1.5013194.1937204 2.8760797-.8662494 3.0697983-2.3675701l1.4684274-11.3750276c.0246722-.1914337.0251286-.380584.0068528-.5651649-.0424911-.6839552-.3527118-1.3491785-.9279296-1.8133718l-4.5405119-3.5632362v-14.8806936l5.0179543-3.8455889c.5226734-.4006864.9749909-.8858986 1.337756-1.4359873l1.7224491-2.6124579 2.4986971-3.7391377c.7058842-1.05631294.4221586-2.48498736-.6341544-3.19087153z"/></g></svg>