<svg height="53" viewBox="0 0 53 53" width="53" xmlns="http://www.w3.org/2000/svg"><g fill="none" fill-rule="evenodd"><g fill="#fff" fill-rule="nonzero"><path d="m17.4238589 17.8436818-1.2866362.8760028v15.1423338h10.3760981v-16.0183366z"/><path d="m38.4250813 22.0151236c1.162123 0 2.0752197-.9177172 2.0752197-2.0857209s-.9130967-2.0857209-2.0752197-2.0857209h-6.1841544c-1.162123 0-2.0752196.9177172-2.0752196 2.0857209s.9130966 2.0857209 2.0752196 2.0857209z"/><path d="m32.3654401 22.0151236c1.162123 0 2.0752196-.9177172 2.0752196-2.0857209s-.9130966-2.0857209-2.0752196-2.0857209h-6.557694c-1.162123 0-2.0752196.9177172-2.0752196 2.0857209s.9130966 2.0857209 2.0752196 2.0857209z"/><path d="m17.4238589 17.8436818h-.7470791l-6.2256588 4.1714418h5.7691105c1.162123 0 2.0752196-.9177172 2.0752196-2.0857209 0-.8342884-.1660176-1.7520056-.8715922-2.0857209z"/><path d="m7.5043091 17.2596799c-.95460102.6257163-1.20362738 1.9188633-.58106149 2.8782949.62256588.9594316 1.90920204 1.2097181 2.86380306.5840018l5.47857983-3.6708687c.954601-.6257163 1.2036273-1.9188633.5810614-2.8782949-.6225658-.9594316-1.909202-1.2097181-2.863803-.5840019z"/><path d="m31.4523434 39.3266071c-.6640702-1.1680037-2.1582284-1.5851478-3.3618557-.8760027-1.2036274.7091451-1.5771669 2.1691497-.8715923 3.3788678l4.3579612 7.5920241c.6640703 1.1680037 2.1582284 1.5851479 3.3618558.8760028s1.5771669-2.1691497.8715922-3.3788679z"/><path d="m26.6793383 31.0671524c-.6640702-1.1680038-2.1582284-1.5851479-3.3618557-.8760028-1.162123.6674307-1.5771669 2.1691497-.8715923 3.3788678l4.648492 8.0508827c.6640702 1.1680038 2.1582284 1.5851479 3.3618557.8760028 1.2036274-.7091451 1.5771669-2.1691497.8715923-3.3788678z"/><path d="m14.1035075 39.8271802c.4980527-1.2514326-.1245132-2.7114372-1.369645-3.1702958-1.2451317-.500573-2.6977855.1251432-3.15433379 1.3765758l-3.1958382 8.1760259c-.49805271 1.2514326.12451317 2.7114372 1.36964494 3.1702958s2.69778555-.1251432 3.15433385-1.3765758z"/><path d="m20.3291663 33.8620184c.954601-.9594317.954601-2.5028651 0-3.4622967-.954601-.9594317-2.4902635-.9594317-3.4448645 0l-6.7237116 6.6325924c-.95460102.9594317-.95460102 2.5028651 0 3.4622968.954601.9594316 2.4902635.9594316 3.4448646 0z"/><path d="m21.3252717 14.8819581c3.1128294 0 5.603093-2.5028651 5.603093-5.63144644 0-3.12858136-2.4902636-5.63144645-5.603093-5.63144645s-5.6030929 2.50286509-5.6030929 5.63144645c0 3.12858134 2.5317679 5.63144644 5.6030929 5.63144644z"/><path d="m39.6287087 34.1957337c-.2075219 0-.4150439-.0417144-.5810615-.1668577-.4565483-.3337153-.5810615-.9594316-.2905307-1.4600046 2.4487591-3.6291544 3.7353953-7.8423106 3.7353953-12.2223245 0-5.0474446-1.7846889-10.0114604-4.9805271-13.89090126-.3735395-.4588586-.2905307-1.08457487.1245132-1.46000463.4565483-.37542977 1.0791142-.29200093 1.4526537.12514325 3.5278734 4.25487065 5.4370754 9.67774504 5.4370754 15.22576264 0 4.7971581-1.4111493 9.4274585-4.0674304 13.3903282-.1660176.2920009-.4980527.4588586-.8300879.4588586z"/></g><path d="m0 0h53v53h-53z"/></g></svg>