<svg height="53" viewBox="0 0 53 53" width="53" xmlns="http://www.w3.org/2000/svg"><g fill="none" fill-rule="evenodd" transform="translate(0 -.000281)"><g fill="#fff" fill-rule="nonzero"><path d="m47.3011056 17.7538115h-2.4902636c-4.8145095 0-7.9688433 1.7520056-11.7872474 4.7554437-2.4072547 1.9188633-4.3994656 4.8805869-4.3994656 4.9223014l-.0830087.1251432 1.6186713 1.6268623.1245131-.2085721c0-.0417144 1.4941582-2.3777218 3.8599085-4.5051571 2.9053075-2.6280084 5.8521193-4.4217284 10.6666288-4.4217284h1.7016801v13.265185h-1.6601757c-.4980527 0-.9130966-.2502865-1.162123-.7091451l-1.4526537-3.0034381c-.2905307-.6257163-.9130966-.7508595-1.3696449-.5840019-.3320352.1251433-.6225659.3337154-.7470791.6674307-.0830088.2085721-.1660176.5422875.0415044.9594317l1.4941581 3.0034381c.6225659 1.2097181 1.8261933 1.9605776 3.1958382 1.9605776h2.4072548c.954601 0 1.5771669-.6257163 1.5771669-1.5851479v-14.766904c0-.8760028-.6225659-1.5017191-1.5356625-1.5017191z"/><path d="m26.4659006 30.76871s-1.7431844 2.3360074-5.1050402 3.295439l.0830088 2.4194363c4.5654831-1.3765758 8.259374-5.7148753 8.259374-5.7148753z"/><path d="m11.4413106 36.3167276h-4.06743041c-.66407027 0-1.16212298.500573-1.16212298 1.1680037 0 .6257163.5395571 1.1680037 1.16212298 1.1680037h4.06743041c.9130967 0 1.7846889-.0417144 2.4902636-.1668576l.1660175-.0417144v-2.3360075l-.2490263.0417145c-.7055747.1251432-1.5771669.1668576-2.4072548.1668576z"/><path d="m33.6461605 16.9195232c2.8222987-1.3765758 3.9014129-4.7554437 2.5317679-7.5503097-1.3696449-2.79486602-4.7315007-3.92115531-7.5537994-2.54457951-2.8222986 1.3765758-3.9014128 4.75544371-2.5317679 7.55030971 1.4111493 2.8365804 4.8145095 3.9628697 7.5537994 2.5445795z"/><path d="m11.6488326 20.2983911c-2.49026354 1.0845748-3.32035138 4.2548706-1.66017569 6.4657348l5.89362369 7.7171673c.8715922 1.0428605 2.4072548 1.2097182 3.4448646.3337154 1.0376098-.9177172 1.162123-2.4611507.3320351-3.5457256l-2.9053075-3.8377264 8.0518521-3.5457256c2.1582284-.9177172 2.9883163-3.1702958 2.0752197-5.3394455l-.0830088-.2502865c-.9130967-2.1691498-3.4033602-3.1285814-5.5615886-2.1691498z"/><path d="m20.2402418 32.9378598c0-1.3765758-1.0791142-2.4611507-2.4487591-2.4611507-1.369645 0-2.4487592 1.0845749-2.4487592 2.4611507v8.8017422c0 1.3765758 1.0791142 2.4611507 2.4487592 2.4611507 1.3696449 0 2.4487591-1.0845749 2.4487591-2.4611507z"/><path d="m23.1040449 29.1418477c0 1.1680037.9130966 2.0857209 2.0752196 2.0857209s2.0752196-.9177172 2.0752196-2.0857209v-8.7600278c0-1.1680037-.9130966-2.0857209-2.0752196-2.0857209s-2.0752196.9177172-2.0752196 2.0857209z"/><path d="m34.2687264 31.2275686c1.162123 0 2.0752196-.9177172 2.0752196-2.0857209s-.9130966-2.0857209-2.0752196-2.0857209h-9.0894619c-1.162123 0-2.0752196.9177172-2.0752196 2.0857209s.9130966 2.0857209 2.0752196 2.0857209z"/></g><path d="m0 0h53v53h-53z"/></g></svg>