<svg height="10" viewBox="0 0 11 10" width="11" xmlns="http://www.w3.org/2000/svg"><path d="m0 10h1.1c.3025 0 .55-.25.55-.55555556v-5c0-.30555555-.2475-.55555555-.55-.55555555h-1.1zm10.9065-3.95555556c.0605-.13888888.0935-.28888888.0935-.44444444v-.6c0-.61111111-.495-1.11111111-1.1-1.11111111h-3.025l.506-2.58333333c.0275-.12222223.011-.25555556-.044-.36666667-.12506569-.25021583-.28840432-.47894991-.484-.67777778l-.253-.26111111-3.5255 3.56111111c-.209.21111111-.3245.49444445-.3245.78888889v4.35555556c.00302841.71579964.57835188 1.29444444 1.287 1.29444444h4.4605c.385 0 .748-.20555556.946-.53888889z"/></svg>