<svg height="53" viewBox="0 0 53 53" width="53" xmlns="http://www.w3.org/2000/svg"><g fill="#fff" fill-rule="evenodd" transform="translate(7)"><path d="m19.664423 14.9082291c3.0861376 0 5.5879471-2.5018087 5.5879471-5.58794715 0-3.08613723-2.5018095-5.5879459-5.5879471-5.5879459-3.0861381 0-5.5879476 2.50180867-5.5879476 5.5879459 0 3.08613845 2.5018095 5.58794715 5.5879476 5.58794715z"/><path d="m37.2612584 0c-.3294089 0-.6453302.13085781-.8782573.36378498-.2329268.23293006-.3637846.5488484-.3637846.87825697v1.65605593h-1.6974565c-.0950228-.46795462-.3489012-.88867108-.718621-1.19086195-.3697199-.30218715-.832542-.46726902-1.3100483-.46726902-.4775064 0-.9403285.16508187-1.3100483.46726902-.3697199.30219087-.6235983.72290733-.7186211 1.19086195h-1.6974565v-1.65605593c0-.32940857-.1308578-.64532691-.3637846-.87825697-.2329271-.23292717-.5488484-.36378498-.8782573-.36378498-.329409 0-.6453303.13085781-.8782574.36378498-.2329284.23293006-.3637846.5488484-.3637846.87825697v5.38218177c0 .32940899.1308562.64533022.3637846.87825739.2329271.23292716.5488484.36378456.8782574.36378456.3294089 0 .6453302-.1308574.8782573-.36378456.2329268-.23292717.3637846-.5488484.3637846-.87825739v-1.65605593h1.6560559v7.73254001l-5.9398586 3.8884189-11.4487286.12876h-4.55415385v-5.1254952h1.65605594v1.6560559c0 .3294123.13085821.6453274.36378621.8782574.232928.2329272.5488459.3637846.8782557.3637846s.6453278-.1308574.8782558-.3637846c.232928-.23293.3637862-.5488451.3637862-.8782574v-5.38218173c0-.32940857-.1308582-.6453298-.3637862-.87825697-.232928-.23292716-.548846-.36378498-.8782558-.36378498s-.6453277.13085782-.8782557.36378498c-.232928.23292717-.36378621.5488484-.36378621.87825697v1.65605593h-1.69745651c-.09502283-.46795462-.34890283-.88867107-.7186227-1.19085864-.36971986-.30219046-.83254154-.46727233-1.31004664-.46727233-.47750551 0-.94032802.16508187-1.31004747.46727233-.36971945.30218757-.62359863.72290402-.71862104 1.19085864h-1.69745733v-1.65605593c0-.32940857-.1308574-.6453298-.3637854-.87825697-.23292799-.23292716-.54884633-.36378498-.87825655-.36378498-.32941023 0-.64532856.13085782-.87825656.36378498-.23292799.23292717-.36378539.5488484-.36378539.87825697v5.38218173c0 .3294123.1308574.6453274.36378539.8782574.232928.2329272.54884633.3637846.87825656.3637846.32941022 0 .64532856-.1308574.87825655-.3637846.232928-.23293.3637854-.5488451.3637854-.8782574v-1.6560559h1.65605593v6.7815511c0 .658818.2617148 1.2906543.7275712 1.7565115.46585598.4658572 1.09769266.7275724 1.75651269.7275724h6.41721678l.6210209 12.3645268v17.2933628c0 .6588209.2617152 1.2906538.7275712 1.756511.4658556.4658577 1.0976935.7275729 1.7565127.7275729s1.2906572-.2617152 1.7565127-.7275729c.465856-.4658572.7275712-1.0976901.7275712-1.756511v-17.2933628h2.0700699v17.2871526c0 .6588209.2617169 1.2906542.7275725 1.7565114.465856.4658573 1.0976922.7275725 1.7565114.7275725s1.2906555-.2617152 1.7565115-.7275725c.4658556-.4658572.7275724-1.0976905.7275724-1.7565114v-17.2871526l.6475191-13.0236412 6.9011987-4.5491823c.3475585-.2364078.6330965-.5530018.832491-.9230409.1993946-.3700324.3067803-.7826313.3130849-1.2029217v-8.55559941h1.6560559v1.65605593c0 .32940899.1308578.64533022.3637846.87825739.2329271.23292716.5488484.36378456.8782573.36378456.329409 0 .6453303-.1308574.8782574-.36378456.2329268-.23292717.3637846-.5488484.3637846-.87825739v-5.38218177c0-.32940857-.1308578-.64532691-.3637846-.87825697-.2329271-.23292717-.5488484-.36378498-.8782574-.36378498z"/></g></svg>