<svg height="53" viewBox="0 0 53 53" width="53" xmlns="http://www.w3.org/2000/svg"><g fill="#fff" transform="matrix(-1 0 0 1 53 9)"><circle cx="29.52" cy="5.04" r="5.04"/><path d="m27.80352 22.4406619h8.98704l-2.39616-8.38656c-.3145723-1.1018952-1.0540521-2.0336615-2.0557139-2.5902603-1.0016619-.5565989-2.1834279-.6924215-3.2852461-.3775797-.5864601.1710308-1.129509.4656324-1.59264.864l-5.90112 4.7304-5.7479504 1.156064c-.8210659.165138-1.4117296.8864279-1.4117296 1.723936 0 .79529.64471 1.44 1.44 1.44h6.48c.4916674.0001084.9686595-.1675246 1.35216-.4752l2.916-2.34144z"/><path d="m50.4 24.4406619h-28.71648l8.24688 10.08h14.7096c.1179692 0 .2354899-.0145211.34992-.0432 3.9696433-.9791066 6.7821297-4.5087564 6.85008-8.5968 0-.79529-.64471-1.44-1.44-1.44z"/><path d="m29.12544 42.6321819-6.63696-8.11152h-15.28848c-.1179692-.0000124-.23548987-.0145211-.34992-.0432-3.96964329-.9791066-6.78212971-4.5087564-6.85008-8.5968 0-.79529.64470996-1.44 1.44-1.44h15.84c.4319821 0 .8411154.1940603 1.11456.52848l12.96 15.84z"/></g></svg>