<svg height="55" viewBox="0 0 53 55" width="53" xmlns="http://www.w3.org/2000/svg"><g fill="#fff" fill-rule="evenodd" transform="translate(10 4)"><path d="m7.28893794 29.9532389c.06439322.1555059.14623603.3030381.24386858.4396229.37678332.5384518.86660591.9857465 1.43427066 1.3098175l2.90727092 1.6998751-2.69191752 15.4605014c-.05937115.3409232-.18581679.6663303-.37176126.9572572-.18594446.2904959-.42764248.5404775-.71070877.7344288-.28310886.1943822-.6018404.3288551-.93729801.3960916-.33545761.0672364-.68083169.0655124-1.01560833-.0051721-.65899843-.156885-1.23253646-.5659067-1.60072267-1.1412954-.36818622-.5753887-.50250545-1.2727513-.37491069-1.9459776zm4.13452996-17.7475746c.6472093-.4589318 1.4479324-.6387031 2.2260561-.4997909l4.6186069.8240774c.7201997.1282233 1.3680899.5216857 1.8190127 1.1046601l.0161728-.011637 4.2134361 6.0948106 4.6628692-3.3062225c.0944406-.0645642.194116-.1209394.2979198-.1685221.4309652-.1581052.7492442-.2259566.9548367-.2035539.2672959.0291261.6583497.1742706 1.1731613.4354334.1672606.1258959.3140925.2770917.435814.4482429l.0851199.1224048c.1549182.2238197.2651485.4763443.3238813.7432212.0583071.2669201.0646911.542848.0178752.8121386-.046816.2692905-.1455551.5265561-.2906846.7571857-.1447038.2306296-.3332444.4300115-.5545562.5868103l-.0161728.0116371-2.127998 1.5067858-2.670212 1.8946883-1.3193587.9361381c-.5344254.3789807-1.1955944.5274612-1.8381222.4127714-.6424851-.1146899-1.2137249-.4831542-1.5879546-1.0243644l-2.0003182-2.8911668-1.4091603 8.1929323 4.571791 2.6722173 1.2610516.7374458c.0068096.003879.0119168.0099131.019152.0137921.1099324.067495.2144171.1437394.3123901.2280005.0429856.0366352.0821407.0754255.1221471.1150777.0531999.0530134.1038463.1081817.1510878.1655051.0633293.0755117.1217641.155161.1749215.2383445.0195776.0314632.0387295.0624955.0570303.0948207.0631164.1089144.1174655.2227853.1625791.3404922l.0174496.0482723c.0457519.1276199.0806511.2589896.1042719.3926435.0029792.0168091.0055328.0336183.0080864.0504274.0192371.1249046.0285151.2511453.0276639.3775584 0 .0366353-.0029792.0737015-.0029792.1107677-.0049369.0988721-.0160025.1973562-.0331967.294806-.0131936.0737014-.0293664.1469719-.0493696.2198114-.0153216.0543063-.029792.1081817-.0493695.162057-.0429005.1225772-.0957174.2413616-.1578975.3551463l-.0097888.0219812-.0114912.0202571-1.3746867 2.4114607-3.9580763 6.9391451c-.167516.2943749-.390743.5525455-.6568704.7594269-.2660849.2073123-.5698779.3590253-.8940146.4473809-.3241366.088171-.6621904.1103367-.9949242.0659434-.3326912-.0443933-.6535081-.15473-.9441076-.3245451-.2907696-.1698151-.5456612-.3956606-.7501193-.6650373-.2044154-.2698078-.3544393-.5771127-.4413893-.9055369-.08695-.3284241-.1091663-.6706403-.0653721-1.0076845.0437516-.3366132.1527051-.6615893.3205616-.9559642l3.9555227-6.9391451-9.92242913-5.8099178c-.50050513-.3192437-.8958446-.7821407-1.13566998-1.3297298-.23982538-.547546-.31324131-1.1550444-.21092716-1.7450441l2.14161717-12.4314138c.1372133-.7879593.5779217-1.4885113 1.2251311-1.947443zm-4.30458901-1.2249676 2.28852184.5562637-3.34975701 14.5031686c-.13859865.6057683-.08780236 1.2401817.14525381 1.8154713l-4.1363453-.9671002c-.39894156-.0931566-.77132265-.2781392-1.08826333-.540567s-.56992247-.5952677-.73933668-.9727195c-.1694142-.3774517-.25070488-.7893163-.23758213-1.2037194.01316193-.4143862.12039555-.8201269.31337554-1.1857775l5.3908106-11.3544372c.1322418-.250637.34234318-.4501998.59780135-.5678041.25545818-.1176044.54210654-.1466981.81552131-.0827787zm9.40405241-1.01783719c2.6986958 0 4.8864211-2.23026207 4.8864211-4.98142976 0-2.75116768-2.1877253-4.98142975-4.8864211-4.98142975-2.6986959 0-4.8864211 2.23026207-4.8864211 4.98142975 0 2.75116769 2.1877252 4.98142976 4.8864211 4.98142976z" fill-rule="nonzero" transform="translate(.700762)"/><path d="m2.10295279 25.9308087c2.27069266 0 6.12286656-4.8948649 6.12286656-7.1943851s1.4096453-7.7626167-.86104737-7.7626167-7.36185817 5.4630965-7.36185817 7.7626167-.17065369 7.1943851 2.10003898 7.1943851z"/></g></svg>