<svg height="53" viewBox="0 0 53 53" width="53" xmlns="http://www.w3.org/2000/svg"><g fill="none" fill-rule="evenodd"><g fill="#fff" fill-rule="nonzero"><path d="m34.8082835 18.0477249c3.0298206-.7508595 4.8975183-3.7542976 4.1504392-6.7994501-.747079-3.04515256-3.7353953-4.92230138-6.7652159-4.17144185-3.0298207.75085952-4.8975183 3.75429765-4.1504393 6.79945015.7055747 3.0034381 3.7353954 4.9223013 6.765216 4.1714418z"/><path d="m42.9431444 32.3557703c.9961054.6257163 2.2412372.3337154 2.863803-.6674306.6225659-1.0011461.3320352-2.2525786-.6640702-2.8782949l-13.115388-8.384598c-.9961054-.6257163-2.2412372-.3337154-2.8638031.6674306-.6225658 1.0011461-.3320351 2.2525786.6640703 2.8782949z"/><path d="m17.0444036 20.7174477c.9961054.6257163 2.2412372.3337153 2.8638031-.6674307.6225658-1.001146.3320351-2.2525786-.6640703-2.8782949l-6.4746852-4.0462985c-.9961054-.6257163-2.2412372-.3337154-2.86380308.6674307-.62256588 1.001146-.33203514 2.2525785.66407028 2.8782948z"/><path d="m18.2895354 33.7323461c-.1660176-.208572-.3735396-.4588586-.5395571-.7091451l-3.1543339 5.7148753c-.6225658 1.2097181-.1660175 2.6697228 1.0376099 3.3371535 1.2036273.6257162 2.6562811.1668576 3.3203513-1.0428605l2.1997328-3.9628697z"/><path d="m21.4438692 46.7472446c-.6225659 1.2097181-.1660176 2.6697228 1.0376098 3.3371535 1.2036274.6257162 2.6562811.1668576 3.3203514-1.0428605l4.1089348-8.6348846c.6225659-1.2097181.1660176-2.6697227-1.0376098-3.3371534-1.2036274-.6257163-2.6562811-.1668577-3.3203514 1.0428605z"/><path d="m8.66051635 37.4449294c-1.36964494 0-2.44875914 1.0845748-2.44875914 2.4611506s1.0791142 2.4611507 2.44875914 2.4611507h7.92733895c1.3696449 0 2.4487591-1.0845749 2.4487591-2.4611507s-1.0791142-2.4611506-2.4487591-2.4611506z"/><path d="m20.6552857 1.61224417c-1.909202-1.16800371-4.1504392-.62571627-5.3125622 1.29314696-1.4526537 2.37772184-1.2451318 6.21544831-1.1206186 7.46688087l-2.0337152 3.295439 1.5356625.9594316 1.9922108-3.2537246c1.162123-.4171442 4.7315008-2.00229205 6.1841545-4.42172831 1.2451318-1.87714881.7055747-4.12972739-1.2451318-5.33944552zm-4.6484919 7.63373852c0-1.58514789.0830088-4.00458414.9130966-5.42287436.6225659-1.00114603 1.7846889-1.29314696 2.7807943-.66743069s1.2866362 1.8354344.6640703 2.79486602c-.7885835 1.3765758-2.9468119 2.62800834-4.3579612 3.29543903z"/><path d="m19.410154 25.8066067c-1.6186713 2.4194362-2.0337153 4.9223013-.1660176 7.0914511l6.6822071 7.8005962c.9130967 1.001146 2.3657504 1.1262893 3.4033602.2502865s1.1206186-2.5445795.1660176-3.6291544l-3.0713251-3.4622967 7.719817-12.0971813-5.395571-3.5040111c-1.3696449-.8760028-2.9468118-1.3348614-4.5654831-1.3348614l-5.810615-.0417144c-1.0791142 0-2.0337152.792574-2.1582284 1.8771488-.1245131 1.2514326.8715923 2.294293 2.0752197 2.294293l4.1089348.0417144z"/></g><path d="m0 0h53v53h-53z"/></g></svg>