<svg height="53" viewBox="0 0 53 53" width="53" xmlns="http://www.w3.org/2000/svg"><g fill="#fff" fill-rule="evenodd" transform="translate(4)"><path d="m38.9559863 53c.7737509 0 1.5158111-.3073694 2.0629354-.8544932.5471248-.5471243.8544957-1.2891875.8544957-2.0629378v-13.1172547c-.000161-.6850897-.2414136-1.3482704-.6814823-1.8733306-.4400682-.5250589-1.050881-.8785027-1.7253988-.9983931l-3.427981-.6126615v16.6016399c0 .7737503.3073727 1.5158135.8544971 2.0629378.5471248.5471238 1.2891831.8544932 2.0629339.8544932z"/><path d="m.7066292 51.4541323c-.50486856-.586343-.75613556-1.3492266-.69852478-2.1208298.05761073-.7716026.41938072-1.488719 1.00572443-1.9935882l19.16439395-16.5014341 3.8072184 4.4216176-19.16439403 16.5014341c-.58634371.5048692-1.34922953.7561388-2.12083234.698527-.77160286-.0576111-1.48871708-.4193837-1.99358563-1.0057266z"/><path d="m22.6631016 31.2077627-1.013321 5.7463632 20.2236333 3.4804977v-3.4770921c0-.6859006-.2416279-1.3498783-.6825043-1.8753193-.4408763-.5254405-1.0527885-.8787443-1.7282662-.9978625z"/><path d="m22.663105 13.1255217c3.6245128 0 6.5627597-2.9382478 6.5627597-6.56276108 0-3.62451275-2.9382469-6.56276062-6.5627597-6.56276062-3.6245132 0-6.5627621 2.93824787-6.5627621 6.56276062 0 3.62451328 2.9382489 6.56276108 6.5627621 6.56276108z"/><path d="m28.746434 15.4380721h-12.1661736v21.5160519h12.1661736z"/><path d="m.05496191 17.8673206c0-.6447921.25614267-1.2631776.71207976-1.7191147.4559371-.4559371 1.07432064-.7120778 1.71911277-.7120778h20.42201526v4.862385h-20.42201526c-.64479213 0-1.26317567-.2561407-1.71911277-.7120778-.45593709-.4559371-.71207976-1.0743226-.71207976-1.7191147z"/><path d="m22.4214435 20.3004571v-4.862385h20.4220153c.6447931 0 1.2631771.2561446 1.7191147.7120817s.7120778 1.0743187.7120778 1.7191108-.2561402 1.2631776-.7120778 1.7191147-1.0743216.7120778-1.7191147.7120778z"/></g></svg>