<svg height="54" viewBox="0 0 53 54" width="53" xmlns="http://www.w3.org/2000/svg"><g fill="none" fill-rule="evenodd" transform="translate(0 .133413)"><g fill="#fff" fill-rule="nonzero"><path d="m22.6297003 14.0674332c0-3.1285813-2.4902635-5.63144644-5.6030929-5.63144644s-5.603093 2.50286514-5.603093 5.63144644c0 3.1285814 2.4902636 5.6314465 5.603093 5.6314465s5.6030929-2.5445795 5.6030929-5.6314465z"/><path d="m39.4804836 38.1366525c-.3320351-1.3348614-1.6186713-2.1274353-2.9468119-1.8354344-1.3281405.3337153-2.116724 1.6268623-1.8261932 2.9617237l2.3657503 9.0520287c.3320352 1.3348614 1.6186713 2.1274353 2.9468119 1.8354344 1.3281406-.3337153 2.116724-1.6268623 1.8261933-2.9617237z"/><path d="m35.7865927 29.0011949c-.5395571-1.2514325-1.9922108-1.79372-3.2373426-1.2514325-1.2451318.5422874-1.7846889 2.002292-1.2451318 3.2537246l3.5278734 8.5931701c.5395571 1.2514326 1.9922108 1.79372 3.2373426 1.2514326 1.2451317-.5422875 1.7846888-2.0022921 1.2451317-3.2537247z"/><path d="m27.4442098 39.5966571c.3735396-1.2931469-.4150439-2.6697227-1.70168-3.0451525-1.2866362-.3754298-2.6562812.4171442-3.0298207 1.7102911l-1.8676976 8.8017423c-.3735396 1.2931469.4150439 2.6697227 1.70168 3.0451525 1.2866362.3754298 2.6562812-.4171442 3.0298207-1.7102912z"/><path d="m31.5531447 31.50406c.5395571-1.2514325 0-2.7114372-1.2451318-3.2537246-1.2451318-.5422875-2.6977855 0-3.2373426 1.2514325l-4.1089348 8.0925971c-.5395571 1.2514326 0 2.7114372 1.2451317 3.2537247 1.2451318.5422874 2.6977855 0 3.2373426-1.2514326z"/><path d="m26.9461571 33.1726367 9.2139751-3.1285813-7.0972511-17.853771-7.3462774 7.7171674 1.4526537 3.6291543z"/><path d="m26.6556264 30.1274842c1.162123 0 2.0752196-.9177172 2.0752196-2.0857209s-.9130966-2.0857209-2.0752196-2.0857209h-10.0855673c-1.162123 0-2.0752197.9177172-2.0752197 2.0857209s.9130967 2.0857209 2.0752197 2.0857209z"/><path d="m26.8631483 6.30855144c-.4150439-1.08457488-1.5771669-1.62686231-2.6562811-1.20971813s-1.6186713 1.58514789-1.2036273 2.66972276l3.2373426 8.59317013c.4150439 1.0845749 1.5771669 1.6268623 2.6562811 1.2097181 1.0791142-.4171441 1.6186713-1.5851479 1.2036273-2.6697227z"/><path d="m17.732182 1.177678c-1.0376098-.4588586-2.2827415 0-2.7392898 1.04286046-.4565484 1.04286045 0 2.294293 1.0376098 2.7531516l7.8858345 3.79601205c1.0376098.4588586 2.2827416 0 2.7392899-1.04286046.4565483-1.04286045 0-2.29429299-1.0376098-2.75315159z"/><path d="m27.0706703 20.4080248c.8300879-.8342884.8300879-2.1274354 0-2.9617237-.8300878-.8342884-2.116724-.8342884-2.9468118 0l-9.0064532 9.0937431c-.8300878.8342884-.8300878 2.1274354 0 2.9617237.8300879.8342884 2.116724.8342884 2.9468119 0z"/></g><path d="m0 0h53v53h-53z"/></g></svg>