<svg height="53" viewBox="0 0 53 53" width="53" xmlns="http://www.w3.org/2000/svg"><g fill="#fff" transform="translate(2)"><path d="m19.9638868 42.6539263c.0797353-.0239764.0797353-.1366095 0-.1600282l-9.4299542-2.8141544c-.3312081-.0986933-.68137437-.1159786-1.02094639-.0496254l-3.22621302.6306337c-.9428839.1845621-1.69005387.9741089-1.79822624 1.9682911-.0050183.0479526-.00947902.0964629-.01282455.1455308-.12490006 1.8361423 1.15588309 3.4609582 2.87827715 3.8640955l.06245003.0144973c.18177418.0423768.37079703.0368009.55034086-.0167277l11.99709636-3.5830703z"/><path d="m24.2863208 15.0549173c4.157276 0 7.5274587-3.3701826 7.5274587-7.52745865 0-4.15727601-3.3701827-7.52745865-7.5274587-7.52745865s-7.5274586 3.37018264-7.5274586 7.52745865c0 4.15727605 3.3701826 7.52745865 7.5274586 7.52745865z"/><path d="m44.0617911 42.1710537c-.1014813-.9707633-.8525544-1.7430248-1.7993414-1.9231262l-3.2574381-.6189244c-.339572-.0646804-.6897382-.0479527-1.0220616.0485103l-28.21124225 8.1842991c-1.22112107.3540693-2.09319109 1.5294681-1.95212094 2.809136.15166435 1.3755734 1.28803181 2.3290515 2.55376009 2.3290515.1867924 0 .3758153-.0206308.5653957-.0641228l13.3291778-3.0355174 13.3347536 3.0355174c.1895804.0429344.3786032.0641228.5653957.0641228 1.1486345 0 2.1913269-.7856436 2.4868493-1.9593696.3434752-1.3644216-.4460716-2.7583954-1.7820561-3.1453625l-2.5492993-.7393638 4.8699869-1.1090455c1.7179334-.3914279 2.9970438-1.9632728 2.8793924-3.7442137-.002788-.0440496-.0066911-.0880992-.0111518-.1315912z"/><path d="m46.3105496 32.5258701-8.9454088-1.6454468-6.6302971-11.2309683c-.0395888-.0736018-.0836384-.1438581-.1271304-.2152295l-.2141144-.3629908-.0200732.0156125c-.8129655-1.0912027-2.1099188-1.8015718-3.5752641-1.8015718h-5.0300151c-1.4653453 0-2.7622985.7098115-3.5752641 1.8015718l-.0200732-.0156125-.2129992.3607604c-.043492.0719291-.0886567.1427429-.1282456.2174599l-6.6302971 11.2304108-8.94540882 1.6454467c-1.50103102.2815827-2.48963725 1.7262971-2.20805454 3.2273282.28158271 1.501031 1.72629718 2.4896372 3.2273282 2.2080545l4.35867735-.8168687 5.04339731-.9445566c1.2568068-.2353028 2.3519126-.9986429 3.0076379-2.0959791l1.6231431-2.715461v7.6222489c0 .264855.1867925.4934667.4466293.5464377l6.3068951 1.2835711c.1466461.0301099.2977528.0301099.4449565 0l6.3068951-1.2835711c.2598368-.052971.4466293-.2815827.4466293-.5464377v-7.6222489l1.6231431 2.7160186c.6557253 1.0973362 1.7508311 1.8606763 3.0076379 2.0959791l5.0824286.9518053 4.3196461.80962c1.501031.2815827 2.9457454-.7070235 3.2273282-2.2080546.2815827-1.501031-.7070236-2.9457454-2.2080546-3.2273281z"/></g></svg>