<svg height="53" viewBox="0 0 53 53" width="53" xmlns="http://www.w3.org/2000/svg"><g fill="none" fill-rule="evenodd"><g fill="#fff" fill-rule="nonzero"><path d="m35.1403186 14.7553878c3.0298207-.7508596 4.8975183-3.7542977 4.1504393-6.79945018-.7470791-3.04515253-3.7353954-4.92230134-6.765216-4.17144182-3.0298206.75085953-4.8975183 3.75429764-4.1504392 6.7994502.7055747 3.0034381 3.7353953 4.9223013 6.7652159 4.1714418z"/><path d="m36.6344767 24.7251337c.9961055.6257163 2.2412372.3337154 2.8638031-.6674307.6225659-1.001146.3320352-2.2525786-.6640703-2.8782948l-6.4746852-4.0462986c-.9961054-.6257163-2.2412371-.3337153-2.863803.6674307s-.3320352 2.2525786.6640703 2.8782949z"/><path d="m18.4970573 30.940582c-.6225659-.6257163-1.1206186-1.3765758-1.4111493-2.1691497l-2.4902636 4.8388725c-.6225658 1.2097181-.1660175 2.6697227 1.0376099 3.3371534 1.2036273.6257163 2.6562811.1668577 3.3203513-1.0428604l1.5356626-2.9617237z"/><path d="m21.319356 44.2474814c-.6225659 1.2097181-.1660176 2.6697228 1.0376098 3.3371535 1.2036274.6257162 2.6562811.1668576 3.3203514-1.0428605l5.0220315-9.7611738c.6225658-1.2097182.1660175-2.6697228-1.0376099-3.3371535-1.2036273-.6257163-2.6562811-.1668577-3.3203513 1.0428605z"/><path d="m8.66051635 32.3171578c-1.36964494 0-2.44875914 1.0845749-2.44875914 2.4611507s1.0791142 2.4611507 2.44875914 2.4611507h7.92733895c1.3696449 0 2.4487591-1.0845749 2.4487591-2.4611507s-1.0791142-2.4611507-2.4487591-2.4611507z"/><path d="m45.2673903 6.20393205c-2.2412371 0-3.8599084 1.62686231-3.8599084 3.87944085 0 2.7948661 2.1582284 5.9651618 2.9468118 6.9663079v3.8794409h1.8261933v-3.8377265c.7885834-.9594316 2.9883162-4.1714418 2.9883162-7.0080223 0-2.25257854-1.6186713-3.87944085-3.9014129-3.87944085zm0 8.96859995c-.8300878-1.3348614-2.0337152-3.4622967-2.0337152-5.0891591 0-1.16800367.8300879-2.04400645 2.0337152-2.04400645 1.2036274 0 2.0337153.87600278 2.0337153 2.04400645 0 1.5851479-1.2036274 3.7542977-2.0337153 5.0891591z"/><path d="m45.9314606 25.1005635c1.162123 0 2.0752196-.9177172 2.0752196-2.0857209s-.9130966-2.0857209-2.0752196-2.0857209h-8.0518521c-1.162123 0-2.0752196.9177172-2.0752196 2.0857209s.9130966 2.0857209 2.0752196 2.0857209z"/><path d="m26.8809446 30.4817234 7.5953038-12.0137524-5.395571-3.5040111c-1.369645-.8760028-2.9468119-1.3348614-4.5654832-1.3348614h-5.3125622c-1.0791142 0-2.0337152.7925739-2.1582284 1.8771488-.1245132 1.2514325.8715922 2.294293 2.0752196 2.294293h3.6523865l-3.9014128 6.0903051c-1.2036274 1.9188632-.9546011 4.4217283.6225658 6.0485906l7.3047731 7.383452c.954601.9594316 2.4487591.9594316 3.4033601.0417144.9961055-.9594316.9546011-2.6280083-.0415043-3.6291544z"/><path d="m19.0781188 17.8005403c1.162123 0 2.0752196-.9177172 2.0752196-2.0857209s-.9130966-2.0857209-2.0752196-2.0857209h-8.2178697c-1.16212294 0-2.07521957.9177172-2.07521957 2.0857209s.91309663 2.0857209 2.07521957 2.0857209z"/></g><path d="m0 0h53v53h-53z"/></g></svg>