<svg height="53" viewBox="0 0 53 53" width="53" xmlns="http://www.w3.org/2000/svg"><g fill="#fff" transform="translate(7)"><path d="m37.5958424 6.29520809c.1000216-3.37523105-2.5551263-6.19247922-5.9303574-6.29247365-3.375231-.09999896-6.1925064 2.55511726-6.2924827 5.93034831-.1000216 3.37523105 2.5551264 6.19246115 5.9303574 6.29248275 3.3752311.0999763 6.1924611-2.55512636 6.2924827-5.93035741z"/><path d="m38.4854368 23.7645169-5.4971116-2.3084698-2.7986119-5.953279c-.2790458-.6958025-.7714529-1.3132366-1.4591015-1.7363353l-3.4799185-2.1426731c-.8760951-.5395187-1.8908071-.6586568-2.8135608-.4181157v-.001359l-14.86734258 4.2948591c-1.20179952.3469953-1.89443105 1.6027014-1.54743579 2.8045009s1.60270135 1.894431 2.80450086 1.5474358l8.63818881-2.4955573-3.0821877 5.0056104c-1.4640844 2.3782313-.7234353 5.4930347 1.654796 6.9571191l5.2873742 3.2556853 5.4010764 3.3431136v9.5505236.7093924c0 1.0006691.8113165 1.8119857 1.8119856 1.8119857h8.0076178c.8317014 0 1.5057601-.6740587 1.5057601-1.5057601v-.4172097c0-.7741709-.5875363-1.4224088-1.3580833-1.4985122-2.5662247-.2378231-4.5276992-2.3936331-4.5231692-4.9707298h-.008154v-5.2466045c0-.9503865-.4964841-1.8314646-1.3091596-2.3243247l-4.1277034-2.5023522-2.4928394-1.5429058 3.8654185-6.2776245.6804006 1.4473236.5562797 1.1832267c.1888995.4018078.5191339.7207173.9272836.8951209l6.4407032 2.6998587c1.1501579.4919541 2.4810614-.0416757 2.9730155-1.1918336s-.0416757-2.4810614-1.1918336-2.9730155z"/><path d="m28.5394473 53c1.0007144 0 1.8119857-.8113166 1.8119857-1.8119857s-.8112713-1.8119857-1.8119857-1.8119857-1.8119857.8113166-1.8119857 1.8119857.8112713 1.8119857 1.8119857 1.8119857z"/><path d="m35.7873901 53c1.0007144 0 1.8119857-.8113166 1.8119857-1.8119857s-.8112713-1.8119857-1.8119857-1.8119857-1.8119857.8113166-1.8119857 1.8119857.8112713 1.8119857 1.8119857 1.8119857z"/><path d="m2.1900044 40.7038651c.97892527-.2083784 1.60360733-1.1709958 1.39522898-2.149921-.20837836-.9789253-1.17099576-1.6036074-2.14992103-1.395229-.97892527.2083783-1.60360733 1.1709957-1.39522898 2.149921.20837836.9789253 1.17099576 1.6036073 2.14992103 1.395229z"/><path d="m2.79430162 43.501118c-.97892527.2083784-1.60315434 1.1705428-1.39477598 2.149468.20837835.9789253 1.17054275 1.6031544 2.14946802 1.394776.97892527-.2083783 1.60315435-1.1705427 1.39477599-2.149468-.20837835-.9784723-1.17054276-1.6031543-2.14946803-1.394776z"/><path d="m20.8498331 35.5415179c-.0231029-.1087192-.0892403-.2038484-.1830106-.263644l-3.3363187-2.1213822-2.7587482-1.7544552c-.0693084-.0439406-.1576427.0172139-.1404289.0973943l.4629624 2.1752888-2.3406325.4982961-.000906-.004077-1.1324911.2341991-5.39971735 1.149705c-.97892527.2083783-1.60315434 1.1709957-1.39477599 2.149468l1.66747984 7.8323081c.17304463.8131286.97303631 1.3322625 1.78616489 1.1592179l.40814978-.0869753c.75741002-.1612667 1.26884298-.8706591 1.18277366-1.6403001-.29988363-2.5422159 1.37575017-4.8923613 3.86904247-5.445923l6.4746779-1.3784681c.7343072-.1562837 1.2027055-.877907 1.0464217-1.6122142l-.2106433-.9888912z"/></g></svg>