<svg height="53" viewBox="0 0 53 53" width="53" xmlns="http://www.w3.org/2000/svg"><path d="m37.2877665 20.5134435c-.113446-.1184145-.2397272-.215299-.3713908-.3010046-.327503-11.20921384-8.2712099-20.2124389-17.9948602-20.2124389-9.72365041 0-17.67273977 9.00984965-17.99527431 20.2244459-.12421099.0828074-.2430395.1772077-.35027499.2894116-.79122401.8251751-.76389759 2.135601.06127742 2.9272391l4.23766496 4.0728783-.00579651.0062106 1.26115559 1.209401c.95394041.915021 2.46848642.8831401 3.38350738-.0708003l1.17752016-1.2603275.0202878-.0211159 2.2175802-2.3732579v25.5116953c0 1.3721174 1.1121024 2.4842198 2.4842199 2.4842198 1.3721174 0 2.4842198-1.1121024 2.4842198-2.4842198v-17.3895387h2.0701831v17.3833281c0 1.3721174 1.1121024 2.4842199 2.4842198 2.4842199 1.3721175 0 2.4842199-1.1121025 2.4842199-2.4842199v-25.5054847l2.2175802 2.3732579.0202878.02153 1.1775202 1.2603275c.9150209.9539404 2.4295669.9854072 3.3835073.0708002l1.2611556-1.209401-.0057965-.0062105 4.237665-4.0728784c.825175-.791224.8525014-2.102064.0608634-2.927239zm-18.366251-18.85729853c8.7390712 0 15.901491 8.12339878 16.3333312 18.30124733-.3246048.0873617-.6343042.2459378-.8943192.4951878l-4.2070262 4.0414116-5.8933975-6.2772094c-.4666193-.5071949-1.1340463-.8268312-1.8776561-.8268312h-6.8995065c-.7436098 0-1.4110368.3200504-1.8776561.8272452l-5.89381153 6.2767954-4.20702625-4.0414116c-.26539748-.2542185-.58254955-.4148647-.91460693-.5005703.43266829-10.1753643 7.59260381-18.29586483 16.33167511-18.29586483zm.0091088 2.90156874c-3.0863119 0-5.5882525 2.50194058-5.5882525 5.58825249 0 3.0863119 2.5019406 5.5882524 5.5882525 5.5882524 3.0863118 0 5.5882524-2.5019405 5.5882524-5.5882524 0-3.08631191-2.5019406-5.58825249-5.5882524-5.58825249z" fill="#fff" transform="translate(8)"/></svg>