<svg height="53" viewBox="0 0 53 53" width="53" xmlns="http://www.w3.org/2000/svg"><g fill="none" fill-rule="evenodd"><g fill="#fff" fill-rule="nonzero"><path d="m31.1232907 28.1560463c2.8222987 1.3348613 6.1011456.1251432 7.4707906-2.7114372 1.3281405-2.8365805.1245132-6.1320195-2.6977855-7.5085953s-6.1011457-.1251432-7.4707906 2.7114372c-1.3281406 2.8365804-.0830088 6.2154483 2.6977855 7.5085953z"/><path d="m37.4734627 42.0052331 4.3579612-4.3800139c.8300878-.8342884 2.116724-.8342884 2.9468118 0 .8300879.8342883.8300879 2.1274353 0 2.9617237l-1.4526537 1.4600046z"/><path d="m24.3165704 30.1583383h7.1387554c1.162123 0 2.0752196.9177172 2.0752196 2.0857209s-.9130966 2.0857209-2.0752196 2.0857209h-7.1387554z"/><path d="m31.6213434 30.1583383-9.1724707 11.8468948h11.6627342l4.0259261-5.2143023 3.7353953 3.6708688c.8300878.8342884 2.116724.8342884 2.9468118 0 .8300879-.8342884.8300879-2.1274353 0-2.9617237l-5.3540666-5.2560167c-1.3281405-1.2931469-3.071325-2.0440065-4.9390226-2.0440065z"/><path d="m4.64348841 48.8881121h1.86769765c4.89751834 0 6.01813684-3.0451526 9.42149704-3.0451526s4.5239788 3.0451526 9.4214971 3.0451526c4.8975182 0 6.0181368-3.0451526 9.421497-3.0451526s4.5239788 3.0451526 9.4214971 3.0451526h1.8676976c.5810615 0 .9961054-.4588586.9961054-1.0011461 0-.5840018-.4565483-1.0428604-.9961054-1.0428604h-1.8676976c-3.5278734 0-4.7315008-3.0451525-9.4214971-3.0451525s-5.8936237 3.0451525-9.421497 3.0451525c-3.5278734 0-4.7315008-3.0451525-9.4214971-3.0451525-4.7315007 0-5.8936237 3.0451525-9.42149704 3.0451525h-1.86769765c-.58106149 0-1.03760981.4588586-1.03760981 1.0428604 0 .5422875.45654832 1.0011461 1.03760981 1.0011461z"/><path d="m22.158342 7.17369392-17.88839312 32.37038848c-.70557467 1.293147 0 2.4611507 1.28663616 2.4611507h19.50706436v-34.414395c-.0415044-1.3765758-2.0337152-2.00229207-2.9053074-.41714418zm.7885834 32.74581828h-16.06219981c-.20752196 0-.29053074-.2085721-.20752196-.3337154l15.85467787-28.7412341c.1245132-.2085721.4565483-.1668577.4565483.0834289v28.9915206z"/></g><path d="m0 0h53v53h-53z"/></g></svg>