<svg height="53" viewBox="0 0 53 53" width="53" xmlns="http://www.w3.org/2000/svg"><g fill="#fff" fill-rule="evenodd" transform="translate(9)"><path d="m17.1886292 11.4390343c2.9397789 1.6624022 6.6704468.6273643 8.3333015-2.31241505 1.6624022-2.93977893.627363-6.67044503-2.3124164-8.33330021-2.9397794-1.66240312-6.6704432-.62736432-8.3332984 2.31241506-1.6624022 2.93977893-.6273661 6.67044503 2.3124133 8.3333002z"/><path d="m31.5627208 46.5768765-2.7508898.8271262-9.8661528-10.8481959c.1304551-.4257919.1390602-.8937111-.0027196-1.3516648l-2.0478784-6.6115598c-.0806297-.2604585-.1218514-.5313313-.1218514-.8040201v-11.0760392h-.0058886c-.021743-1.3466817-.6350653-2.6684495-1.7847038-3.5449468-2.0012238-1.5247014-4.859921-1.133332-6.37782558.8728753l-7.75304574 11.1738791c-1.22437961 1.697733-1.09528253 3.9562427.1721293 5.5026849l-.02355538.0077 7.64387936 10.1904807-.00498177 9.3669801c0 1.501146 1.21667956 2.7178238 2.71782381 2.7178238 1.5011442 0 2.7178237-1.2166778 2.7178237-2.7178238l.0022653-2.1316802.0113234-7.8363896c-.0221956-1.0481741-.3746067-2.0628287-1.0074062-2.8994655l-4.84270992-6.3624282 3.95443492-5.9805689.0086056 3.485156c.0004525.269518.0416742.5376748.120944.7954151l2.2272562 7.210839c.361018 1.1691176 1.571356 1.8372502 2.7477207 1.5459896l9.9789425 10.9727601c.4760717.5625877 1.1414864 1.3258459 1.9432445 2.1828655 1.3589118 1.4526772 3.7804949.9149993 4.4001553-.9752458.1707695-.5209167.2899007-1.0712746.3718884-1.6017019.2147077-1.3824672-1.0898464-2.5139883-2.429281-2.1108449z"/></g></svg>