<svg height="53" viewBox="0 0 53 53" width="53" xmlns="http://www.w3.org/2000/svg"><g fill="none" fill-rule="evenodd"><g fill="#fff" fill-rule="nonzero"><path d="m23.2804385 40.8923833c-.954601.9594316-.954601 2.5028651 0 3.4622967.9546011.9594316 2.4902636.9594316 3.4448646 0l6.4746852-6.5074492c.954601-.9594316.954601-2.5028651 0-3.4622967-.954601-.9594317-2.4902635-.9594317-3.4448646 0z"/><path d="m18.4244246 35.5112234c1.369645 0 2.4487592-1.0845749 2.4487592-2.4611507s-1.0791142-2.4611507-2.4487592-2.4611507h-8.3423828c-1.36964496 0-2.44875916 1.0845749-2.44875916 2.4611507s1.0791142 2.4611507 2.44875916 2.4611507z"/><path d="m20.4996443 30.3386355c-.4980528-.500573-.8715923-1.1262893-1.0376099-1.79372l-2.7807942 2.7531516c-.9546011.9594316-.9546011 2.5028651 0 3.4622967.954601.9594316 2.4902635.9594316 3.4448645 0l2.3657504-2.3777218z"/><path d="m29.257071 30.4220643 7.512295-7.4668808.0830088-2.6280084-3.6108821-3.6291543-3.6938909.0417144-8.1763653 8.4680269c-1.162123 1.1680037-1.162123 3.0868669.0415044 4.2548706l8.3008784 8.4263125c.9961055 1.001146 2.6977855.9594316 3.6108822-.1668577.8300878-1.001146.6640702-2.4611507-.2490264-3.3788679z"/><path d="m33.4490146 30.3386355c0 1.1680037.9130967 2.0857209 2.0752197 2.0857209 1.1621229 0 2.0752196-.9177172 2.0752196-2.0857209v-8.4263125c0-1.1680037-.9130967-2.0857209-2.0752196-2.0857209-1.162123 0-2.0752197.9177172-2.0752197 2.0857209z"/><path d="m28.7175139 28.294629c-1.162123 0-2.0752196.9177172-2.0752196 2.0857209s.9130966 2.0857209 2.0752196 2.0857209h6.8067204c1.1621229 0 2.0752196-.9177172 2.0752196-2.0857209s-.9130967-2.0857209-2.0752196-2.0857209z"/><path d="m18.4244246 16.1140189c-1.1621229 0-2.0752196.9177172-2.0752196 2.0857209s.9130967 2.0857209 2.0752196 2.0857209h6.5991984c1.162123 0 2.0752196-.9177172 2.0752196-2.0857209s-.9130966-2.0857209-2.0752196-2.0857209z"/><path d="m25.1896406 16.1140189c-1.162123 0-2.0752196.9177172-2.0752196 2.0857209s.9130966 2.0857209 2.0752196 2.0857209h6.5991984c1.1621229 0 2.0752196-.9177172 2.0752196-2.0857209s-.9130967-2.0857209-2.0752196-2.0857209z"/><path d="m35.1506947 15.8637324c2.1997328 2.2108642 5.7276062 2.2108642 7.9273389 0 2.1997328-2.2108642 2.1997328-5.7565897 0-7.96745386-2.1997327-2.21086417-5.7276061-2.21086417-7.9273389 0-2.1997328 2.21086416-2.1997328 5.75658966 0 7.96745386z"/><path d="m12.1987658 8.56370923c-1.4526537-1.46000464-3.48636896-1.46000464-4.89751829-.04171442-1.45265373 1.46000463-1.45265373 3.50401109 0 4.96401579 1.20362737 1.2097181 3.56937769 1.9188632 5.35406659 2.0857209l15.3566252 15.4343347 1.6186713-1.6268623-15.3566252-15.4343347c-.2490263-1.8771488-.9961054-4.2965851-2.0752196-5.38115997z"/></g><path d="m0 0h53v53h-53z"/></g></svg>