<svg height="53" viewBox="0 0 53 53" width="53" xmlns="http://www.w3.org/2000/svg"><g fill="#fff" transform="translate(8)"><path d="m34.7585881 15.8575924-7.4444255-.4879196-5.4501743-2.8319369c-.0266707-.01753-.0509206-.0375644-.0784678-.0542596l-3.6015893-2.2425936c-.7734089-.48165882-1.6674412-.60687342-2.4913115-.42322534l-.0100589.00166953c-.0179474.00417382-.0354775.00876502-.0534249.01293884l-7.77624422 1.91536607c-.33181869.0818068-.64360305.2308122-.91573612.4374163 0 0 0 0-.00041739 0 0 0-.00041738 0-.00083476.0004174l-6.12800265 4.6550615c-.89904085.6832544-1.0743413 1.9658693-.39150433 2.8649102l.05092061.0671985c.68325434.8990408 1.96586926 1.0743412 2.8649101.3915043l5.94059814-4.5127343 1.89074052-.454529-4.14710766 6.6605821c-.06678112.1072672-.12396246.217456-.18156118.3272275l-.45077257.7396009c-1.53596579 2.52057-.1414925 5.8045316 2.73886075 6.4498042l5.77243496 1.2934668-1.4178467 6.7874663c-.2792286 1.3685956.6085012 2.7029659 1.9787663 2.9734294 1.3477265.2662897 2.6599756-.5968563 2.9492631-1.9395742l2.0276-9.1394139c.2095258-.9720827-.1790151-1.9604432-.9603543-2.5385173l3.2004853.4428423 1.7392308.2408294 7.254475 6.5094898c1.025925.9207447 2.606968.82266 3.5114348-.2178734l.0492511-.056764c.8831803-1.0159078.7917737-2.5493693-.2082736-3.450497-1.591895-1.434542-3.9342428-3.5452428-5.7344114-5.1671893l-.0475816-.0429903c-.0212865-.0191996-.0413208-.037147-.0621899-.0559292l-.5668048-.5108756c-.3188798-.2875762-.6085429-.54844-.8639807-.7784175l-.5092061-.4591202s-.0004174-.0004173-.0008348-.0008347c-.3723047-.3355752-.8359744-.5505269-1.3322416-.6193949l-5.994023-.8293381 2.6432802-4.2451924 3.2747793 1.6782931c.3042715.1561008.6373006.2479249.9783017.2704635h.0004174.0008347l7.6789942.5033627c1.1269314.0738766 2.1002663-.7796696 2.1741429-1.906601l.005426-.0843112c.0738766-1.1269314-.7796696-2.1002662-1.906601-2.1741429z"/><path d="m24.7739757 11.2617991c3.1119168 0 5.6346571-2.52102906 5.6346571-5.63090067 0-3.10985909-2.5227403-5.63089843-5.6346571-5.63089843s-5.6346571 2.52103934-5.6346571 5.63089843c0 3.10987161 2.5227403 5.63090067 5.6346571 5.63090067z"/><path d="m32.5376985 41.4005366-1.3523178-.5334142c-.2875762-.1131105-.6077082-.1160322-.8977887-.0083477l-21.71388159 8.1159932c-.23373392.0876502-.43574681.242499-.58099575.445764l-1.1415398 1.5998252c-.40152149.5630484-.27088092 1.3448049.29216741 1.7467437.21996032.1573531.47456334.2328992.72582731.2328992.39108694 0 .77591316-.1823959 1.02049901-.5250666l.91907519-1.2880408 20.90499532-7.8138086.9053016.3568616c.643603.2541856 1.3702651-.0617726 1.6244507-.7053756.2533509-.6431857-.0617725-1.3702651-.7053756-1.6244508z"/><path d="m10.9559182 46.6211508c.9696997-.3610355 1.4622562-1.4420549 1.1001355-2.4141376-.3620789-.9720827-1.4416792-1.4670977-2.41138279-1.1060623-.96966188.3614528-1.46221439 1.4420548-1.1001355 2.4141375s1.4416792 1.4675152 2.41138279 1.1060624z"/><path d="m25.4351088 41.2089582c.969161-.3622875 1.4604197-1.4437243 1.0972973-2.4153896-.3631223-.9716654-1.443307-1.4658457-2.412468-1.1035581s-1.4604197 1.4437244-1.0972973 2.4153897c.3631223.9716653 1.443307 1.4658456 2.412468 1.103558z"/></g></svg>