<svg height="53" viewBox="0 0 53 53" width="53" xmlns="http://www.w3.org/2000/svg"><g fill="#fff" fill-rule="evenodd" transform="translate(2)"><path d="m34.1412805 31.7113622-2.8064821-1.7342812-3.2788538-2.029565-1.2206845 1.9824542 1.7363828 4.2732384 1.9883464 1.2307775.8946915 4.3935385c1.9328204.7584055 3.7882443 1.5735989 5.5435565 2.4102431.0164048-.2258809.0054662-.4568094-.0420661-.6898419l-1.668239-8.1931417c-.1388097-.6822704-.5539757-1.2770483-1.146231-1.6434219z"/><path d="m34.6873319 11.3400557c3.1273063-.2264738 5.4788962-2.94524989 5.2524225-6.07255613-.2264738-3.12730667-2.9452503-5.47889577-6.0725565-5.25242202-3.1273067.22647378-5.4788967 2.94524948-5.2524229 6.07255614.2264738 3.12730625 2.9452503 5.47889581 6.0725569 5.25242201z"/><path d="m13.1974202 18.9072144 8.2675928-2.3883692-3.7802514 6.1391765c-.535469.8698748-.5640731 1.9084231-.168255 2.772409l3.2065053 7.8999557-4.846984 1.9673134c2.573869.5611274 5.346278 1.2610658 8.2722186 2.090139l1.9811931-.8038363c.6456756-.2620564.9569467-.9981669.6948899-1.6438425l-1.4238489-3.5076817-.7188678-1.7712959 5.8602964-9.5172999.6216976 1.3632803h-.0004202l.6343164 1.3902005c.1741439.3810954.4837317.6835328.8690339.8484216l6.0441141 2.5848055c1.0679941.4568098 2.3038197-.0386981 2.7606295-1.1066922.4568094-1.0679937-.0386968-2.3038201-1.1066909-2.7606312l-5.1460559-2.2007648-2.6655667-5.8472554c-.2515401-.6814292-.7222326-1.2879861-1.3889395-1.6985256l-2.4682878-1.5197559c-.8135088-.5009778-1.7557362-.6116049-2.6125705-.3882466v-.0012628l-14.0517504 4.0591337c-1.1159461.3222081-1.7590971 1.4882077-1.4368902 2.6041539.3222064 1.1159461 1.4882086 1.7590979 2.6041547 1.4368915z"/><path d="m48.8433394 51.469453c-4.0090767-2.7337109-13.3993438-8.6120908-24.1680357-11.7441437-9.82731-2.8586388-17.30326547-4.0624995-21.59290696-3.9657533-1.3767402.0311274-2.56755949.9598924-2.95370293 2.2764809-.38992917 1.3296303.12492876 2.7677824 1.29093054 3.5232439 3.58802137 2.3256936 10.56930985 5.1662443 20.36759515 8.0164713 10.7501827 3.127004 21.7498035 3.4542597 26.5833256 3.4222914.8244452-.0054682 1.153805-1.0646294.473215-1.5285905z"/></g></svg>