<svg height="53" viewBox="0 0 53 53" width="53" xmlns="http://www.w3.org/2000/svg"><g fill="#fff" fill-rule="evenodd" transform="translate(0 10)"><path d="m11.7862884 7.71075095c.3354045-1.14156469.3247221-2.3569571-.0306962-3.49244965-.3554183-1.13549254-1.0396054-2.14007216-1.96602241-2.88667649-.92641657-.74660389-2.05344384-1.20169132-3.23852944-1.30769901-1.18508604-.10600812-2.37499041.14182568-3.41920874.71215289-1.04421832.5703272-1.89583985 1.43752653-2.44714637 2.49191084-.55130652 1.05438431-.77753181 2.2485857-.65006087 3.43155487s.60291085 2.3015637 1.36618417 3.21429521c.76327333.91273199 1.78008947 1.57859789 2.92183773 1.91337679 1.5303081.4487101 3.17617054.2713592 4.57575775-.4930615 1.39958718-.7644211 2.43833578-2.05334225 2.88788438-3.58340395z"/><path d="m30.2771977 27.3997776 12.0582985-14.1163566c.4716339-.5337695.7181609-1.2294855.687838-1.9411242-.0303224-.7116387-.3351381-1.38386153-.8504711-1.87557565-.2652197-.23896798-.5756174-.42239552-.9128772-.53945853-.3372594-.11706436-.6945482-.16539156-1.0507868-.1421349-.3562382.02325532-.7042125.11762531-1.0233909.27754445-.3191784.15991692-.6030882.38214327-.8349904.65356345l-12.9302681 15.13580958c-.0012114.001338-.0026885.0024052-.0043389.0031377-.0016508.0007329-.0034353.0011117-.0052402.0011117-.001805 0-.0035899-.0003788-.0052403-.0011117-.0016504-.0007325-.0031274-.0017997-.0043394-.0031377l-9.3938256-10.1878219c-.0012663-.0013973-.0022104-.0030544-.0027687-.0048544-.0005583-.0018001-.0007156-.0037018-.0004607-.00557.0002548-.0018678.0009143-.0036577.0019341-.0052434.0010199-.0015858.0023745-.0029287.0039691-.0039366l12.6678309-7.38923208c.262803-.14059503.4947208-.33249363.6820252-.56433169.1873044-.23183985.3261809-.49890553.4084119-.78538355.0822311-.28647756.1061458-.58654483.0703229-.88243049-.0358224-.29588565-.1306549-.58157635-.2788784-.84015404-.1482231-.25857769-.3468221-.48478249-.5840413-.6652252-.2372191-.18043914-.5082347-.31144831-.7969953-.38526578-.2887607-.07381435-.5893969-.08893813-.8841085-.04447396-.2947112.04446371-.5775075.14761132-.8316367.3033337l-16.97598644 9.90265969c-.81302232.3695962-1.52564839.9286248-2.0781918 1.6302659-.55254386.7016411-.92891841 1.5254684-1.09760134 2.4024799-.16868339.8770138-.1247637 1.7816779.12808003 2.6382274.25284417.8565494.70725167 1.6400429 1.32516288 2.2848617l9.96904737 10.0078092c.6033733.6057839 1.3397707 1.0624263 2.150628 1.3336157.8108573.2711889 1.6738078.3494429 2.5202202.2285337l2.7513569-.392544c.0015778-.0001292.0031074-.0005949.0044909-.001363.0013835-.0007682.0025852-.0018224.0035284-.00309l5.1493839-6.0289267z"/><path d="m52.9831223 26.8227701c-.0394462-.3505844-.1475654-.689966-.3181821-.9987628-.1706167-.3087972-.4003842-.5809615-.6761919-.8009524-.2758072-.2199919-.5922454-.3835005-.9312474-.4811895-.3390015-.0976899-.6939279-.1276469-1.0445079-.0881597l-16.3415043 2.4390166-5.1738886 6.0561065 22.1164582-3.1563754c.3505648-.0393923.6899389-.147459.9987321-.3180293.3087932-.1705699.5809597-.4003018.800956-.6760725.2199958-.2757706.3835116-.5921776.4812064-.931152.0976948-.3389743.1276554-.6938749.0881695-1.0444295z"/></g></svg>