<svg height="54" viewBox="0 0 53 54" width="53" xmlns="http://www.w3.org/2000/svg"><g fill="none" fill-rule="evenodd" transform="translate(0 .969338)"><g fill="#fff" fill-rule="nonzero"><g transform="translate(37.306367 38.064804)"><path d="m2.61585461 9.05202874h6.35017202c1.45265377 0 2.57327237-1.16800371 2.57327237-2.62800834 0-1.41829022-1.162123-2.58629393-2.57327237-2.58629393h-6.35017202c-1.45265373 0-2.61477671 1.16800371-2.61477671 2.58629393-.04150439 1.46000463 1.12061859 2.62800834 2.61477671 2.62800834z"/><path d="m6.93231141 5.17258785h1.90920204v-2.08572091c0-1.75200556-1.32814055-3.08686694-3.02982063-3.08686694h-2.19973279c-.5395571 0-.99610542.4588586-.99610542 1.00114604 0 .54228743.45654832.95943161.99610542.95943161h2.19973279c.66407027 0 1.12061859.50057302 1.12061859 1.12628929z"/></g><path d="m31.2062995 17.374453c3.0298206-.7508595 4.8975183-3.7542977 4.1504392-6.7994502s-3.7353953-4.92230132-6.7652159-4.17144179c-3.0298207.75085953-4.8975183 3.75429759-4.1504393 6.79945019.7055747 3.0034381 3.7353953 4.9223013 6.765216 4.1714418z"/><path d="m42.5369986 33.6430761c.9961054.6257162 2.2412371.3337153 2.863803-.6674307.6225659-1.0011461.3320352-2.2525786-.6640702-2.8782949l-16.3112262-10.3451757c-.9961054-.6257163-2.2412372-.3337153-2.8638031.6674307s-.3320351 2.2525786.6640703 2.8782949z"/><path d="m15.1440997 19.5436027c.6640702-.9594316.4565483-2.2525786-.5395571-2.9200092-.9546011-.6674307-2.2412372-.4588586-2.9053075.5422874l-5.81061492 7.8005962c-.66407028.9594316-.45654832 2.2525786.5395571 2.9200093.95460102.6674306 2.24123718.4588586 2.90530746-.5422875z"/><path d="m16.1817095 30.5979235c-1.369645 0-2.4487592 1.0845749-2.4487592 2.4611507s1.0791142 2.4611507 2.4487592 2.4611507h13.7379538c1.369645 0 2.4487592-1.0845749 2.4487592-2.4611507s-1.0791142-2.4611507-2.4487592-2.4611507z"/><path d="m32.3684225 33.0590742c0-1.3765758-1.0791142-2.4611507-2.4487592-2.4611507-1.3696449 0-2.4487591 1.0845749-2.4487591 2.4611507v12.0554669c0 1.3765758 1.0791142 2.4611506 2.4487591 2.4611506 1.369645 0 2.4487592-1.0845748 2.4487592-2.4611506z"/><path d="m16.0156919 47.2419764c1.3696449 0 2.4487591-1.0845749 2.4487591-2.4611507s-1.0791142-2.4611507-2.4487591-2.4611507h-9.96105415c-1.36964495 0-2.44875915 1.0845749-2.44875915 2.4611507s1.0791142 2.4611507 2.44875915 2.4611507z"/><path d="m14.5630382 36.8968007-.9546011 7.5920241c-.1660175 1.3348614.7885835 2.5862939 2.116724 2.7531516 1.3281406.1668577 2.5732724-.792574 2.7392899-2.1274353l1.0376098-8.2177404z"/><path d="m30.0856809 20.7950353-4.9390227-3.2120102c-1.3696449-.8760028-2.9468119-1.3348614-4.5654832-1.3348614l-7.0557466-.0417144c-1.0791142 0-2.0337153.7925739-2.1582284 1.8771488-.1245132 1.2514325.8715922 2.294293 2.0752196 2.294293l5.3540666.0417144-5.8106149 8.4680269c-1.9092021 2.794866.0830087 6.6325925 3.4448645 6.6325925h4.1919436z"/></g><path d="m0 0h53v53h-53z"/></g></svg>