<svg height="52" viewBox="0 0 49 52" width="49" xmlns="http://www.w3.org/2000/svg"><g fill="#fff" transform="translate(.21591 .969338)"><path d="m24.2863208 15.0549173c4.157276 0 7.5274587-3.3701826 7.5274587-7.52745865 0-4.15727601-3.3701827-7.52745865-7.5274587-7.52745865s-7.5274586 3.37018264-7.5274586 7.52745865c0 4.15727605 3.3701826 7.52745865 7.5274586 7.52745865z"/><path d="m26.7982616 17.2852754c1.4653453 0 2.7622986.7103691 3.5752641 1.8015718l.0200732-.0156125.2141144.3629908c.043492.0713714.0875416.1416277.1271304.2152295l6.6302971 11.2309683 8.9470816 1.6454468c1.501031.2815827 2.4896373 1.7262971 2.2080546 3.2273281-.2815828 1.5010311-1.7262972 2.4896373-3.2273282 2.2080546l-4.3196461-.80962-5.0824286-.9518053c-1.2568068-.2353028-2.3519126-.9986429-3.0076379-2.0959791l-1.6231431-2.7160186v7.6222489c0 .0713071-.0135397.1399871-.0383993.2033197-.1486161.0112663-.2965382.0165641-.4447747.0165641-.9711008 0-1.9287446-.2273617-2.7961641-.6639078-1.2092281-.6084649-2.5441242-.9254297-3.8977774-.9254297-1.3536945 0-2.6885906.3169648-3.8977773.9254297-.8675023.4364633-1.8251047.6639078-2.7961641.6639078l-.0359935-.0005963c-.0290257-.0676908-.0449549-.1419438-.0449549-.2192875v-7.6222489l-1.6231431 2.715461c-.6557253 1.0973362-1.7508311 1.8606763-3.0076379 2.0959791l-5.04339731.9445566-4.35867735.8168687c-1.50103102.2815827-2.94574549-.7070235-3.2273282-2.2080545-.28158271-1.5010311.70702352-2.9457455 2.20805454-3.2273282l8.94540882-1.6454467 6.6302971-11.2304108c.0395889-.074717.0847536-.1455308.1282456-.2174599l.2129992-.3607604.0200732.0156125c.8129656-1.0917603 2.1099188-1.8015718 3.5752641-1.8015718z"/><path d="m42.5390469 42.4210937-1.2765547-.7995546-.0981328-.0554844c-1.2094766-.6085063-2.5442485-.9254297-3.8979844-.9254297-1.3537773 0-2.6887148.3169234-3.8979844.9254297-.8674609.4365461-1.8250633.6639078-2.796164.6639078-.9711008 0-1.9287446-.2273617-2.7961641-.6639078-1.2092281-.6084649-2.5441242-.9254297-3.8977773-.9254297-1.3536946 0-2.6885907.3169648-3.8977774.9254297-.8675023.4364633-1.8251047.6637836-2.7961641.6637836-.9711007 0-1.9287031-.2273203-2.796164-.6637836-1.209311-.6085063-2.5442485-.9254297-3.8979844-.9254297-1.3537773 0-2.68871483.3169234-3.89798436.9254297l-2.16761719 1.2570937c-.28802188.1706766-.49799297.4471047-.58507031.7703633-.08711875.3232586-.04415782.6677586.11883593.9600039.10641407.1937399.26276407.3554313.45281875.4683047.19001329.1128734.40685782.1727469.62788438.1734924.21518828.0000826.42656719-.0570994.61239844-.1656252l2.07279687-1.2040938c.86468669-.4290101 1.81740309-.6509062 2.78266559-.6481734.9653039.0027328 1.9167368.2300117 2.7790219.6639078 1.2093109.6082992 2.5442484.9251399 3.8979844.9251399 1.3536945 0 2.688632-.3168407 3.8979844-.9251399.8674195-.4365461 1.8250218-.6639492 2.796164-.6639492.9711008 0 1.9287031.2274031 2.7961641.6639492 1.2091867.6082992 2.5439586.9250985 3.8975703.9250985 1.3535703 0 2.6883422-.3167993 3.8975703-.9250985.8593453-.4324054 1.8072586-.6596429 2.76925-.6639078.9620328-.0042234 1.9118922.21465 2.7750469.6394781l1.2264531.7685c.139125.0867461.2939844.1447563.4558828.1706352.1618985.0259203.3275235.0191711.4865235-.0198336.159414-.0390461.3088906-.1095195.4405625-.2072797.1316718-.0978016.2422265-.2209437.3254531-.3621391.1730781-.2868624.2269062-.6300375.1507187-.9561945-.0766015-.3261984-.2778359-.6095-.5602265-.789493z"/><path d="m41.1987266 47.4983281-1.9995078-1.014039c-.5999766-.3029282-1.2626422-.4607274-1.9347071-.4607274-.6721062 0-1.3347719.1577992-1.934707.4607274-1.475636.7458507-3.1058414 1.1344484-4.7592344 1.1344484s-3.2836398-.3885977-4.7592344-1.1344484c-.5999351-.303011-1.2626421-.4608516-1.934707-.4608516-.6721062 0-1.3348133.1578406-1.9347484.4608516-1.4756774.7458507-3.1059657 1.1344484-4.7594 1.1344484-1.6534758 0-3.2837641-.3885977-4.7594414-1.1344484-.5999352-.303011-1.2626422-.4608516-1.9347071-.4608516-.6721062 0-1.3348133.1578406-1.934707.4608516l-1.58378906.8036953c-.2974625.155232-.52254688.4203976-.62751172.7390601-.10492344.3186625-.08140469.6657297.0656289.9672914.06960391.1486899.16835782.2819352.29034063.3918274s.26475156.1941953.41990078.247982c.15514922.0537453.31949063.0758977.48329375.0650492.16384453-.010807.32383828-.0543664.47058202-.1280695l1.5833336-.8036953c.2583336-.1302641.5436227-.1981289.8329281-.1981289.2892641 0 .5745532.0678648.8328867.1981289 1.8174446.9181836 3.8252336 1.3965086 5.8614688 1.3965086s4.0439828-.478325 5.8614688-1.3965086c.2581679-.1302641.5432914-.1981289.8324726-.1981289.2891399 0 .5743047.0678648.8324727.1981289 1.8173203.9201711 3.8261031 1.3987031 5.863125 1.3966461 2.0364007.0013945 4.0444797-.4770547 5.8614687-1.3966461.258168-.1302641.5432914-.1981289.8324727-.1981289.2891398 0 .5743047.0678648.8324726.1981289l1.9978516 1.0140391c.1465781.0738687.3068203.1175109.470375.1284421.1639687.0109313.3283515-.0111382.483625-.0648836.1552734-.0537453.298125-.1380898.4202734-.247982.1217344-.1099336.2206953-.2432203.2902578-.3919515.1469922-.3017274.1701797-.6487946.0654219-.9675399-.1051719-.3187039-.3304219-.5839109-.6277187-.7392258z"/><path d="m41.0172249 25c.8267942 0 1.6019139-.1518902 2.3253588-.4556706.723445-.3037803 1.3588517-.7256975 1.9062201-1.2657515s.9760766-1.1644915 1.2861244-1.8733124c.3100479-.7088209.4650718-1.4682718.4650718-2.2783528 0-.8550855-.1760766-1.6539154-.5282297-2.3964897-.3521531-.7425742-.8727272-1.4176417-1.5617225-2.0252025-.122488-.1125112-.2028708-.2137714-.2411483-.3037804s-.0574162-.2175217-.0574162-.3825382l.0114832-10.10351036c0-.78007801-.1511962-1.46452145-.4535885-2.05333033-.3023924-.58880888-.723445-1.04635464-1.2631579-1.37263727s-1.169378-.48942394-1.8889952-.48942394c-.7272727 0-1.3626794.16314131-1.9062201.48942394s-.9684211.78382839-1.2746412 1.37263727-.4593301 1.27325232-.4593301 2.05333033l.0229665 10.10351036c0 .1650165-.0210526.2925292-.0631579.3825382s-.1244019.1912692-.2468899.3037804c-.6813398.6075608-1.2 1.2826283-1.5559809 2.0252025-.3559809.7425743-.5339713 1.5414042-.5339713 2.3964897 0 .810081.1550239 1.5695319.4650718 2.2783528.3100478.7088209.7406698 1.3332584 1.291866 1.8733124s1.1904306.9619712 1.9177033 1.2657515c.7272728.3037804 1.508134.4556706 2.3425838.4556706zm0-1.6314131c-.8038278 0-1.5330144-.1912692-2.1875598-.5738074-.6545455-.3825383-1.1751196-.8963397-1.5617225-1.5414042s-.5799043-1.3538854-.5799043-2.1264626c0-.7050705.1645933-1.3613861.4937799-1.9689469s.7961722-1.110111 1.4009569-1.5076508c.1760766-.120012.3023924-.2437743.3789474-.3712871.076555-.1275127.1148325-.3075308.1148325-.540054v-10.75607561c0-.71257126.1779905-1.27887789.5339713-1.69891989.3559809-.42004201.8248804-.63006301 1.4066986-.63006301.5665072 0 1.0277512.210021 1.383732.63006301.3559809.420042.5339713.98634863.5339713 1.69891989v10.75607561c0 .2325232.0363637.4125413.1090909.540054.0727273.1275128.200957.2512751.384689.3712871.6047847.3975398 1.0717704.90009 1.400957 1.5076508s.4937799 1.2638764.4937799 1.9689469c0 .7725772-.1952153 1.4813981-.585646 2.1264626-.3904306.6450645-.9110047 1.1588659-1.5617224 1.5414042-.6507177.3825382-1.370335.5738074-2.1588517.5738074zm-.0114833-1.5189019c.5129187 0 .9779905-.1237624 1.3952153-.3712872.4172249-.2475247.7521531-.5775577 1.0047847-.990099.2526316-.4125412.3789474-.870087.3789474-1.3726372 0-.5250525-.137799-.9957246-.4133971-1.4120162-.2755981-.4162917-.6354067-.7444495-1.0794259-.9844735-.183732-.0975097-.3119617-.200645-.384689-.3094059-.0727272-.1087609-.1090909-.2981548-.1090909-.5681818v-2.2052206c0-.2925292-.076555-.5231773-.229665-.6919442-.1531101-.1687668-.3406699-.2531503-.5626795-.2531503-.2220095 0-.4095694.0843835-.5626794.2531503-.15311.1687669-.2296651.399415-.2296651.6919442v2.2052206c0 .270027-.0363636.4594209-.1090909.5681818s-.2009569.2118962-.384689.3094059c-.4440191.240024-.8038277.5681818-1.0794258.9844735-.2755981.4162916-.4133971.8869637-.4133971 1.4120162 0 .5025502.1244019.960096.3732057 1.3726372.2488038.4125413.5837321.7425743 1.0047847.990099.4210526.2475248.8880383.3712872 1.4009569.3712872z"/></g></svg>