<svg height="53" viewBox="0 0 53 53" width="53" xmlns="http://www.w3.org/2000/svg"><g fill="#fff" fill-rule="evenodd" transform="translate(9)"><path d="m17.7508845 13.890116c3.8356496 0 6.9450588-3.1094081 6.9450588-6.94505826 0-3.83564962-3.1094092-6.94505774-6.9450588-6.94505774-3.8356501 0-6.9450593 3.10940812-6.9450593 6.94505774 0 3.83565016 3.1094092 6.94505826 6.9450593 6.94505826z"/><path d="m4.63106796 41.1773991c-.03087379-.1970777 0-9.2765437 0-9.2765437h-1.54368932c-.81882376 0-1.60411292.3252744-2.18310859.90427-.57899619.5789952-.90427005 1.3642839-.90427005 2.1831086v14.9223301c0 .8188228.32527386 1.6041094.90427005 2.183105.57899567.5789952 1.36428483.9042737 2.18310859.9042737s1.60410881-.3252785 2.18310499-.9042737c.57899567-.5789956.90427365-1.3642822.90427365-2.183105v-1.3111088l-2.1390378-3.233513c-.88093204-1.3311748-1.14541851-3.2345432.59534848-4.1885432z"/><path d="m32.4174876 31.9029126v-7.5856898c.0000154-.7994289-.3100583-1.5676994-.8649806-2.1431554l-4.2806505-4.4381052-1.8524262-1.9218932c-.375472-.3892202-.8465962-.6729889-1.3662118-.822896-.5196156-.1499067-1.0694891-.1606909-1.5945832-.0312767l-5.107555 1.3049295-6.2010005 1.5117884-2.62427133.6380572c-.0056602 0-.01029024.004114-.01543638.0051467l-.09262136.0226398c-.10973264.0276732-.21630432.0666446-.31800206.1162902-.56829945.2304409-1.05498764.6250825-1.39787706 1.1335058-.34288942.5084229-.52640732 1.1075323-.52710198 1.7207742l.02830097 13.6050501c.00134919.5961038.17523807 1.1790704.5006699 1.6785054l3.9544159 5.9745922-1.66666884 1.1032217-.84696881-1.2797179c-.22587365-.3414311-.578124-.5791603-.97926454-.6608935-.40114104-.0817337-.81832103-.0007775-1.15977738.2250586-.34143166.2258731-.57915982.5781198-.66089354.9792604-.0817332.4011405-.00077802.8183205.22505858 1.1597769l.84697294 1.2797184 1.70320285 2.5728155 1.14078795 1.7243036c.11184338.1691317.25591179.3145709.42397479.428011.16806351.1134401.3568274.1926627.5555136.2331341.1986857.0404709.4033994.0414013.6024458.0027442.1990469-.0386576.3885266-.1161492.5576177-.2280544.3413478-.2259534.5789709-.5782392.6606069-.9793741.0816354-.4011349.0005989-.8182752-.2252865-1.1596673l-1.1407875-1.7242999 1.6677011-1.1032218.5330853.8047741c.3633258.5542946.9319407.9415811 1.5807837 1.076676.6488435.1350944 1.3247798.0069368 1.8791417-.3562866.554184-.3634179.9413763-.9320256 1.0764635-1.5808274.1350867-.6488023.0070073-1.3246923-.3560782-1.8790944l-.5485217-.8233004 1.8910174-1.2509024 1.1407879 1.7242999c.1118429.1691312.2559113.3145704.4239748.4280105.168064.1134401.3568274.1926612.5555136.2331341.1986857.040473.4033989.0414074.6024458.0027478.1990475-.0386591.3885261-.1161544.5576177-.2280575.16909-.1118835.3144824-.2559802.4278731-.4240617.1133912-.1680815.1925608-.3568577.2329849-.5555409.0404241-.1986825.0413132-.403384.0026145-.6024103-.0386982-.1990268-.1162254-.3884782-.2281521-.5575389l-2.5542898-3.8592233-.2902151-.4384103-.8464542-1.2797185c-.2259545-.3413488-.5782398-.578972-.9793747-.6606069-.4011349-.0816355-.8182732-.000599-1.1596668.225286-.3414316.2258731-.5791603.578124-.660894.9792645-.0817332.4011411-.000778.8183206.2250586 1.1597774l.8464589 1.279718-1.8951354 1.2581068-3.644136-5.4734083v-11.239603l2.1920363-.5660189v10.9550491l.8469724 1.3280879c.0863962-.1474455.1835704-.2883051.2907292-.4214272.020068-.0252136.0406479-.0514594.0612309-.0740997.1108153-.132482.2312051-.2566533.3601963-.3715146.1179481-.1058847.2433029-.2032112.3751144-.2912396l.0380767-.0252156c.3785908-.2502974.8027838-.4235549 1.248347-.5098837.4455633-.0863283.9037674-.0840338 1.3484435.0067567.4446757.09079.8671099.2682932 1.2431727.5223711.3760628.2540784.6983861.5797552.948561.9584268l2.2203409 3.359582h6.9815927v11.8349515c0 .8188247.3252785 1.6041072.9042737 2.1831049.5789956.5789973 1.3642822.9042737 2.183105.9042737.8188227 0 1.6041113-.3252764 2.1831065-.9042737.5789957-.5789977.9042721-1.3642802.9042721-2.1831049v-14.9223301c0-.8188228-.3252764-1.6041094-.9042721-2.183105-.5789952-.5789952-1.3642838-.9042737-2.1831065-.9042737zm-9.2199413 0-.0102938-10.3427174 4.084604 3.7002223v6.6424951z"/></g></svg>