<svg height="54" viewBox="0 0 53 54" width="53" xmlns="http://www.w3.org/2000/svg"><g fill="none" fill-rule="evenodd" transform="translate(0 .133413)"><path d="m0 0h53v53h-53z"/><g fill="#fff" fill-rule="nonzero"><path d="m37.7224891 14.4002638c2.8222986 1.3348614 6.1011456.1251433 7.4707906-2.7114372 1.3281405-2.83658039.1245131-6.13201943-2.6977855-7.50859523-2.8222987-1.3765758-6.1011457-.12514325-7.4707906 2.71143718-1.3281406 2.83658044-.0830088 6.21544835 2.6977855 7.50859525z"/><path d="m32.1193961 31.7117474c0-1.3765758-1.0791142-2.4611507-2.4487591-2.4611507-1.369645 0-2.4487592 1.0845749-2.4487592 2.4611507v8.8017422c0 1.3765758 1.0791142 2.4611507 2.4487592 2.4611507 1.3696449 0 2.4487591-1.0845749 2.4487591-2.4611507z"/><path d="m18.9625037 26.4557307c-.0415043-.0417145-.1245131-.1251433-.1660175-.1668577v6.5908781c0 1.3765758 1.0791142 2.4611506 2.4487591 2.4611506 1.369645 0 2.4487592-1.0845748 2.4487592-2.4611506v-1.6685768z"/><path d="m22.9884298 34.7568999c.954601-.9594316.954601-2.5028651 0-3.4622967s-2.4902635-.9594316-3.4448646 0l-6.2256588 6.1737339c-.954601.9594316-.954601 2.502865 0 3.4622967.954601.9594316 2.4902635.9594316 3.4448646 0z"/><path d="m21.4527673 17.5288452c-3.1128294 1.3765758-3.9014129 5.4645888-1.4941581 7.884025l7.8858345 7.9257395c.9130966.9177172 2.3657504 1.0428604 3.3618558.2502865 1.1206186-.9594316 1.2036273-2.6280084.1660175-3.6291544l-4.025926-4.088013 5.5200842-2.794866v3.3788679c0 1.0845748.7885834 2.0440065 1.8676976 2.1691497 1.2451318.1251433 2.2827416-.8760028 2.2827416-2.0857209v-8.3011692c0-3.6291544-3.6938909-6.0068762-6.9727379-4.5468716z"/><path d="m33.489041 25.287727c-.8300878.8342883-.8300878 2.1274353 0 2.9617236l5.3125623 5.3394456c.747079.7508595 1.9922108.8760027 2.863803.2085721.954601-.792574.9961054-2.2108642.1660176-3.086867l-5.395571-5.4228743c-.8300878-.792574-2.1582284-.792574-2.9468119 0z"/><path d="m37.930011 22.1174312c0 1.1680037.9130966 2.0857209 2.0752196 2.0857209h7.5537994c1.0791142 0 2.0337152-.792574 2.1582284-1.8771488.1245132-1.2514326-.8715922-2.294293-2.0752196-2.294293h-7.6368082c-1.1206186 0-2.0752196.9177172-2.0752196 2.0857209z"/><path d="m33.0739971 15.2345522c-.8300878.8342883-.8300878 2.1274353 0 2.9617237l5.3125622 5.3394455c.7470791.7508595 1.9922109.8760028 2.8638031.2085721.954601-.792574.9961054-2.2108642.1660176-3.086867l-5.395571-5.4228743c-.8300879-.8342884-2.1582284-.8342884-2.9468119 0z"/><path d="m33.5720498 35.2991873v2.5028651c10.5006113.7925739 15.9376867 3.5457255 15.9376867 5.1725879 0 1.8771488-7.4707906 5.3811599-21.7067972 5.3811599-14.2360065 0-21.70679716-3.5040111-21.70679716-5.3811599 0-.9177172 1.74318448-2.1691498 5.10504026-3.2537247-.1245132-.9594316.1245132-2.002292.7470791-2.8365804-4.98052712 1.3348614-8.3423829 3.3788679-8.3423829 6.0903051 0 5.1725878 12.1607869 7.884025 24.1970607 7.884025s24.1970607-2.7114372 24.1970607-7.884025c0-4.3382995-8.5499048-6.9245935-18.4279502-7.675453z"/></g></g></svg>