<svg height="53" viewBox="0 0 53 53" width="53" xmlns="http://www.w3.org/2000/svg"><g fill="#fff" fill-rule="evenodd" transform="translate(6)"><path d="m27.9732015 6.96572559c.7591394-2.99239533-1.0512718-6.03361431-4.0436671-6.79275369-2.9923953-.75913939-6.0336143 1.05127178-6.7927537 4.04366711-.7591393 2.99239493 1.0512714 6.03361589 4.0436667 6.79275529s6.0336148-1.05127378 6.7927541-4.04366871z"/><path d="m32.2762256 10.9325587c.0919219-.679891-.3850784-1.30512483-1.0645549-1.39704675-.6765785-.09192192-1.3051261.38466385-1.397048 1.06455485l-.25382 1.8794306 2.4483536.4310393z"/><path d="m39.3256594 9.18066517c-.6467643-.2281498-1.3564699.11138163-1.5846192.75814925l-1.9510627 5.52897818-16.130228-2.8388152-.002069.010766-1.3345237-.235188c-1.5721966-.2774212-3.0719326.7726431-3.3489401 2.3452516l-2.078182 11.9117554c-.2161403 1.2268682.3772119 2.4065341 1.3949781 2.9986442l-.0016554.0028968 9.5640189 5.461488-3.8478832 6.6643398c-.685687 1.1875336-.2786642 2.7063156.9088677 3.3920026 1.1875319.6856871 2.7063135.2786626 3.3920009-.9088676l5.1948329-8.9979981c.345742-.5991479.3780368-1.2869073.1635531-1.8914389-.0136628-.0401641-.0285703-.0795005-.0443055-.1188368-.0256702-.0616946-.0513438-.1225601-.0828113-.1817715-.0521715-.101859-.1122093-.1995778-.1797024-.2931568-.0062105-.0082813-.0111797-.0169782-.0173906-.0252595-.1834298-.2484372-.4194455-.4641639-.7051501-.6268909l-5.6474013-3.225132 1.9489936-11.1494676 9.4555357 1.6641168-1.0078278 2.8557918c-.1904684.5469764-.2513373 1.1395002-.1792887 1.6910321l1.1432246 10.1432952-3.7911574-9.5039828c-.0596242-.1772196-.0786731-.366857-.056727-.5420072l.4533991-3.3576354-2.4483536-.4310393-.4678897 3.4657062c-.0732899.5743021-.009111 1.1668258.1846716 1.7138022.0053828.0149075.010766.029815.0169766.0447196l5.3819875 13.4918191-3.9986023.1747366-3.5245027 6.104939c-.6078432 1.052961-1.5895868 1.8065552-2.7646972 2.1216573-.3921169.1051711-.7904444.1573459-1.1862888.1573459-.7887891 0-1.567229-.2070342-2.2690653-.6124004-2.174657-1.2554369-2.9220402-4.0458051-1.6661876-6.220048l.6235789-1.0802901-3.3501814.1461625 1.1142419-6.3202528-2.8210093-1.6285083c-.5469764-.3159302-1.0318451-.7357882-1.3916656-1.2550232-.1014454-.1461646-.18757-.2923275-.236843-.4211014l-1.7361654 9.8464109-4.25076702.1854993c-3.93483797.1718364-6.79518362 3.779564-6.04283167 7.6212375.67989098 3.471503 4.06319742 5.7384989 7.55705861 5.0627469l28.59972698-5.5314642c2.3199918-.4488436 3.8346323-2.6814694 3.3833052-4.9869705-.2558891-1.3063675-1.0964389-2.3692702-2.2139933-2.9526833l-1.7742571-15.7376969c-.0252566-.1917098-.0049692-.3892169.0575547-.5676779l1.2065763-3.4193312c.7643602-.1950235 1.3842125-.8165284 1.5299617-1.6442401.1031016-.5863128-.0554823-1.1556491-.3863201-1.5970408l2.0036512-5.6784581c.2281498-.6467643-.1113846-1.3560529-.7581493-1.58461593zm-32.31966601 40.45227053c-1.68523524.3279373-3.31747047-.7722294-3.64540814-2.4578783s.77222655-3.3174676 2.45746222-3.6454053c1.68523524-.3279376 3.31746964.7722262 3.64540731 2.457461.32793725 1.6852353-.77222697 3.3174709-2.45787586 3.6454086z"/></g></svg>