<svg height="53" viewBox="0 0 53 53" width="53" xmlns="http://www.w3.org/2000/svg"><g fill="#fff" transform="translate(4 4)"><path d="m9 27c-4.97056275 0-9 4.0294373-9 9s4.02943725 9 9 9c4.9705627 0 9-4.0294373 9-9s-4.0294373-9-9-9zm0 16c-3.86599325 0-7-3.1340068-7-7s3.13400675-7 7-7c3.8659932 0 7 3.1340068 7 7s-3.1340068 7-7 7z"/><path d="m37 27c-4.9705627 0-9 4.0294373-9 9s4.0294373 9 9 9 9-4.0294373 9-9-4.0294373-9-9-9zm0 16c-3.8659932 0-7-3.1340068-7-7s3.1340068-7 7-7 7 3.1340068 7 7-3.1340068 7-7 7z"/><circle cx="32.5" cy="4.5" r="4.5"/><path d="m41 17h-7s-4.045-5.718-5.17-6.829c-1.5642717-1.55603119-4.0917283-1.55603119-5.656 0l-9 9c-.8697124.8571425-1.2968331 2.0666874-1.158214 3.279897s.8275702 2.2952343 1.868214 2.934103l5.616 3.925v9.19c0 1.3807119 1.1192881 2.5 2.5 2.5s2.5-1.1192881 2.5-2.5v-10.5c-.0001633-.8201971-.4026347-1.5881438-1.077-2.055l-3.374-2.337 7.369-7.37 2.982 3.962c.3777088.5036117.9704854.8 1.6.8h8c1.1045695 0 2-.8954305 2-2s-.8954305-2-2-2z"/></g></svg>