<svg height="54" viewBox="0 0 53 54" width="53" xmlns="http://www.w3.org/2000/svg"><g fill="none" transform="translate(0 .133413)"><g fill="#fff"><path d="m21.2344166 14.4002638c2.8222987 1.3348614 6.1011457.1251433 7.4707906-2.7114372 1.3281406-2.83658039.1245132-6.13201943-2.6977855-7.50859523-2.8222986-1.3765758-6.1011456-.12514325-7.4707906 2.71143718-1.3281405 2.83658044-.0830088 6.21544835 2.6977855 7.50859525z"/><g transform="translate(6.211757 16.277413)"><path d="m7.71788636 20.8154947-6.84822472 5.8400185c-1.03760981.8760028-1.16212299 2.4194363-.29053075 3.4622967.87159224 1.0428605 2.40725475 1.1680037 3.44486456.2920009l7.18025985-6.090305c.207522-.1668577.3320352-.3754298.4980527-.5840019l-3.48636893-3.6291544z"/><path d="m15.6867297 18.7714882 1.2866361-1.9188633c.207522-.2920009.3320352-.6257162.3735396-.9177172l4.980527-15.9349077h-8.9234443c-1.6601757 0-3.278847.66743069-4.44096997 1.8354344l-6.39167641 6.29887714c-.78858345.79257394-.83008784 2.08572086-.04150439 2.92000926.78858345.8760028 2.19973279.8342884 3.02982063-.0417144l3.44486456-3.17029579-1.49415812 4.75544369c-.70557467 2.2108641-.12451318 4.6303004 1.45265373 6.2571627l4.56548317 4.7554437c.9961054 1.001146 2.6977855.9594316 3.6108821-.1668577.8300879-1.001146.6640703-2.4611507-.2490263-3.3788679z"/></g><path d="m10.5262834 27.9991641c-1.16212298 0-2.07521961-.9177172-2.07521961-2.0857209s.91309663-2.0857209 2.07521961-2.0857209h10.6666288c1.162123 0 2.0752196.9177172 2.0752196 2.0857209s-.9130966 2.0857209-2.0752196 2.0857209z"/><path d="m24.0567153 38.4694831c0-1.3765758-1.0791142-2.4611507-2.4487592-2.4611507-1.3696449 0-2.4487591 1.0845749-2.4487591 2.4611507v7.8005962c0 1.3765758 1.0791142 2.4611507 2.4487591 2.4611507 1.369645 0 2.4487592-1.0845749 2.4487592-2.4611507z"/><path d="m36.5495374 16.2356982h-10.2100805c-1.162123 0-2.0752197.9177172-2.0752197 2.0857209s.9130967 2.0857209 2.0752197 2.0857209h10.2100805z"/><g transform="translate(36.259007 14.535728)"><path d="m2.40725475 1.15768322 1.78468887-.83428836c1.86769765-.83428837 4.06743044 0 4.93902268 1.87714881 1.4111493 3.12858137-1.82619326 6.38230598-4.93902268 4.96401576l-1.78468887-.83428836c-2.19973279-1.00114603-2.19973279-4.21315623 0-5.17258785z"/><path d="m1.90920204.86568229h-.91309662c-.5395571 0-.99610542.4588586-.99610542 1.00114604v3.87944089c0 .54228743.45654832 1.00114603.99610542 1.00114603h1.0376098c1.12061859 0 2.03371522-1.71029114 2.07521962-2.83658043 0-1.25143255-1.03760981-3.04515253-2.1997328-3.04515253z"/></g></g><path d="m0 0h53v53h-53z"/></g></svg>