<svg height="53" viewBox="0 0 53 53" width="53" xmlns="http://www.w3.org/2000/svg"><g fill="none" fill-rule="evenodd"><g fill="#fff" fill-rule="nonzero"><path d="m16.232112 41.9769582c-.9546011.9594316-.9546011 2.5028651 0 3.4622967.954601.9594316 2.4902635.9594316 3.4448645 0l6.4746852-6.5074493c.954601-.9594316.954601-2.502865 0-3.4622967-.954601-.9594316-2.4902635-.9594316-3.4448645 0z"/><path d="m11.3760981 36.5540838c1.3696449 0 2.4487591-1.0845749 2.4487591-2.4611507s-1.0791142-2.4611506-2.4487591-2.4611506h-7.92733896c-1.36964494 0-2.44875914 1.0845748-2.44875914 2.4611506s1.0791142 2.4611507 2.44875914 2.4611507z"/><path d="m13.4513177 31.381496c-.4980527-.5005731-.8715923-1.1262893-1.0376098-1.79372l-2.73928991 2.7531516c-.95460103.9594316-.95460103 2.5028651 0 3.4622967.95460101.9594316 2.49026351.9594316 3.44486451 0l2.3657504-2.3777219z"/><path d="m31.2151976 26.5843379c-1.162123 0-2.0752196.9177172-2.0752196 2.0857209s.9130966 2.0857209 2.0752196 2.0857209h5.8936237c1.162123 0 2.0752196-.9177172 2.0752196-2.0857209s-.9130966-2.0857209-2.0752196-2.0857209z"/><path d="m24.2009553 24.5403314 5.5615885 5.589732c.8300879.8342884 2.1167241.8342884 2.9468119 0s.8300878-2.1274353 0-2.9617237l-5.603093-5.5480176z"/><path d="m28.6419253 19.0757426h-4.8145095c-1.6601757 0-3.1958383.6674307-4.3579612 1.8354344l-5.1880491 5.3394455c-1.162123 1.1680037-1.162123 3.086867.0415044 4.2548707l8.3423829 8.4263124c.9961054 1.0011461 2.6977855.9594317 3.6108821-.1668576.8300878-1.0011461.6640703-2.4611507-.2490264-3.3788679l-4.5654831-4.6303004 7.2632686-7.5085953c1.2036274 0 2.1997328-1.0428604 2.0752197-2.294293-.0830088-1.0845749-1.0791142-1.8771488-2.1582284-1.8771488z"/><path d="m28.932456 19.0757426c-1.162123 0-2.0752196.9177172-2.0752196 2.0857209s.9130966 2.0857209 2.0752196 2.0857209h12.6173353c1.1621229 0 2.0752196-.9177172 2.0752196-2.0857209s-.9130967-2.0857209-2.0752196-2.0857209z"/><path d="m21.7521961 15.8637324c2.1997328 2.2108642 5.7276062 2.2108642 7.927339 0s2.1997328-5.7565897 0-7.96745386c-2.1997328-2.21086417-5.7276062-2.21086417-7.927339 0-2.1997328 2.21086416-2.1582284 5.75658966 0 7.96745386z"/><path d="m39.8066068 27.0431965c0 1.8771488 2.2412372 3.4205823 4.9390227 3.4205823 2.7392899 0 4.9390226-1.5434335 4.9390226-3.4205823 0-1.9188633-2.1997327-3.4622967-4.9390226-3.4622967-2.6977855 0-4.9390227 1.5434334-4.9390227 3.4622967z"/></g><path d="m0 0h53v53h-53z"/></g></svg>