<svg height="53" viewBox="0 0 53 53" width="53" xmlns="http://www.w3.org/2000/svg"><g fill="#fff" fill-rule="evenodd" transform="translate(0 3)"><path d="m15.0691462 34.8924946-2.3678564-1.486965.0192165-.0050126c-.7310781-.4256235-1.3146869-1.0379519-1.7136467-1.7526144l-1.60335921 3.8665272-7.85762784 3.3151837c-1.27834234.5308802-1.88451056 1.997381-1.35353895 3.2755029.53097161 1.2781223 1.99772323 1.8841854 3.27606558 1.3533052l7.27276492-3.1000753c1.6025237-.6829183 2.8750178-1.9647977 3.546356-3.572057l.7891466-1.888782-.0079378-.0050127z"/><path d="m27.6417069 10.2582708c2.5514503-1.78623602 3.1715292-5.30226931 1.3849862-7.85327979-1.7865435-2.55101118-5.3031813-3.1709838-7.8546317-1.3847478-2.5514499 1.78623575-3.1715296 5.30226859-1.3849861 7.85327977 1.786543 2.55101052 5.3031817 3.17098352 7.8546316 1.38474782z"/><path d="m51.3849419 42.7374854v-1.063851c0-.3813491-.1320127-.7551773-.3726402-1.0517351l-4.1746638-5.1525847h1.7220032l1.7320269 1.9957086c.4967166.5764086 1.3560463.6666269 1.9613782.2055004.6713394-.5112485.7599035-1.4878012.1921687-2.1118252l-2.1610657-2.3369598c-.3956169-.4310535-.9537424-.6762333-1.5386054-.6762333h-4.2728405l-2.7806026-3.4375659c1.27124-.4962118 2.1731803-1.7292222 2.1731803-3.1756729 0-1.8837681-1.5273258-3.4112516-3.4118372-3.4112516-1.1906122 0-2.2375148.6106576-2.8478602 1.5349977l-1.0456531-1.2927384c-.0334211-.0413523-.0685112-.0781092-.1056922-.1106871l-.7958303-.9819843c-.025066-.030908-.053474-.0576412-.0793751-.0872966.5890401-.6779065.7009999-1.6811907.1963471-2.479389-.6161936-.9748811-1.9062323-1.2660085-2.881699-.649921l-3.425625 2.0370593-3.4289657-5.3547474c-.0894004-.176266-.1959294-.3433383-.3191679-.4983011l-.0380156-.0597284-.0058486.0037571c-.3722237-.4469251-.8793818-.7885931-1.4838789-.9510733l-4.4457915-1.1962553c-1.5594941-.4197742-3.1641057.5041487-3.5839535 2.0633752l-3.5989928 12.6575896c-.5489352 1.8758333.2853289 3.8239227 1.902056 4.7653901l-.0175458.0045954 9.3903857 5.8977388 1.9981398 8.2296872c.309142 1.3491304 1.6534915 2.1924393 3.0028525 1.8829344 1.3493613-.3095048 2.1928154-1.6532053 1.8832556-3.0023361l-2.0223694-8.0375482c-.3312824-1.3161323-1.1028848-2.4727098-2.1773604-3.2851106-.1549877-.1198758-.3158257-.2326517-.4833475-.3374907l-3.5726736-2.2371297 2.6385646-9.6272718 1.7320299 2.6953357c.7122798 1.1269205 2.2036792 1.4635745 3.330792.7514173l.0167107-.0104426 3.9854207-2.308136c.0651696.0584762.1315936.1156997.1875725.1850357l.7573953.9352009 1.1972992 8.7150404c.2439712 1.7760048 1.0673728 3.3431662 2.2588217 4.5319039l-1.5695186 5.6763668c-1.30132.0910566-2.3294255 1.1728647-2.3294255 2.4973491 0 1.3842161 1.1221009 2.5061222 2.5065536 2.5061222s2.5065536-1.1219061 2.5065536-2.5061222c0-.8504121-.4244427-1.6005772-1.072388-2.0537672l1.3802759-4.9917744c1.2206904.7581012 2.6556944 1.1958359 4.1830207 1.1958359h3.5547116l1.9810116 2.4451382v1.0241703c-1.0013694.3283033-1.7253431 1.2693484-1.7253431 2.3803972 0 1.3842161 1.1220992 2.5061222 2.5065536 2.5061222s2.5065536-1.1219061 2.5065536-2.5061222c0-1.0701125-.6721745-1.9815052-1.6167283-2.3407165z"/></g></svg>