<svg height="53" viewBox="0 0 53 53" width="53" xmlns="http://www.w3.org/2000/svg"><g fill="none" fill-rule="evenodd"><g fill="#fff" fill-rule="nonzero"><path d="m26.0820879 18.3859692-1.1206186-1.3348613h-5.9351281l-.8715922 1.3765758-1.1206186.2502865-1.8261933 14.0994733.7055747 2.7531516h9.2969838l2.0752197-15.8931933z"/><path d="m20.3129774 20.8888343c.954601-.6257163 1.2036273-1.9188632.5810614-2.8782948-.6225658-.9594316-1.909202-1.2097182-2.863803-.5840019l-7.3047731 4.5051572c-.95460098.6257162-1.20362734 1.9188632-.5810615 2.8782948.6225659.9594316 1.9092021 1.2097182 2.8638031.5840019z"/><path d="m9.81236611 23.6419859c0 1.1680037.91309659 2.0857209 2.07521959 2.0857209s2.0752196-.9177172 2.0752196-2.0857209v-8.5097413c0-1.1680037-.9130966-2.0857209-2.0752196-2.0857209s-2.07521959.9177172-2.07521959 2.0857209z"/><path d="m28.6553602 27.6048556c.7055747.9177172 1.9922108 1.0428605 2.9053075.3337154.9130966-.7091451 1.0376098-2.0022921.3320351-2.9200093l-5.0220315-7.1748799c-.7055746-.9177172-1.9922108-1.0428605-2.9053074-.3337153-.9130967.7091451-1.0376098 2.002292-.3320352 2.9200092z"/><path d="m36.458186 28.3557152c1.1621229 0 2.0752196-.9177172 2.0752196-2.0857209s-.9130967-2.0857209-2.0752196-2.0857209h-6.1841545c-1.162123 0-2.0752196.9177172-2.0752196 2.0857209s.9130966 2.0857209 2.0752196 2.0857209z"/><path d="m20.0224466 33.4865886c.207522-1.3348614-.7470791-2.5862939-2.0752196-2.794866-1.3281406-.2085721-2.5732723.7508595-2.7807943 2.0857209l-1.2866361 8.676599c-.207522 1.3348614.747079 2.5862939 2.0752196 2.794866 1.3281405.2085721 2.5732723-.7508595 2.7807943-2.0857111z"/><path d="m18.1962534 43.4146201c.747079-1.1262893.4565483-2.6697227-.6640703-3.4205823-1.1206186-.7508595-2.6562811-.4588586-3.4033602.6674307l-4.89751828 7.2583088c-.74707906 1.1262893-.45654832 2.6697227.66407028 3.4205823 1.1206186.7508595 2.6562811.4588586 3.4033602-.6674307z"/><path d="m28.3233251 42.1631876c-.4980527-1.2514326.1245131-2.7114372 1.3696449-3.1702958 1.2451318-.500573 2.6977855.1251433 3.1543338 1.3765758l3.1958382 8.176026c.4980527 1.2514325-.1245131 2.7114371-1.3696449 3.1702957-1.2451318.5005731-2.6977855-.1251432-3.1543338-1.3765758z"/><path d="m20.7695257 34.0705905c-.9546011-.9594317-.9546011-2.5028651 0-3.4622967.954601-.9594317 2.4902635-.9594317 3.4448645 0l7.9688433 8.6348845c.9546011.9594316.9546011 2.5028651 0 3.4622967-.954601.9594316-2.4902635.9594316-3.4448645 0z"/><path d="m37.3297782 21.1808352 1.0791142.2085721 3.1958382-16.6440528c.0415044-.29200093-.1245132-.58400186-.4565483-.62571627-.2905308-.04171442-.5810615.12514325-.6225659.41714418z"/><path d="m39.7785373 23.5168427c.2490264-1.2514326-.5810615-2.5028651-1.8261932-2.7114372-1.2451318-.2085721-2.4902636.5840018-2.6977855 1.8354344z"/><path d="m24.1313814 14.8819581c3.1128295 0 5.603093-2.5028651 5.603093-5.63144644 0-3.12858136-2.4902635-5.63144645-5.603093-5.63144645-3.1128294 0-5.6030929 2.50286509-5.6030929 5.63144645 0 3.12858134 2.5317679 5.63144644 5.6030929 5.63144644z"/></g><path d="m0 0h53v53h-53z"/></g></svg>