<svg height="53" viewBox="0 0 53 53" width="53" xmlns="http://www.w3.org/2000/svg"><g fill="#fff" fill-rule="evenodd" transform="translate(4)"><path d="m26.7393416 17.4624023c2.5538628-.8641408 3.9239463-3.6349385 3.0598055-6.1891617-.8641404-2.55386321-3.6349371-3.9239481-6.1891603-3.05980769-2.5538628.86414077-3.9239473 3.63493929-3.0598069 6.18916249.8641404 2.5538624 3.6352989 3.9239473 6.1891617 3.0598069z"/><path d="m41.2520594 7.38063867c-.9214371-.37585676-1.9729666.0666653-2.3488204.9877424l-2.5956627 6.36429543-5.0763766 3.1603481-5.7942074 1.9603501c-.4540528.1535136-.8162124.455496-1.0500859.833511l-.0039647-.0028811-3.0439515 4.4706106-5.0050235-3.4010649c-.5956731-.4054037-1.3455787-.400719-1.9275588-.0576589l-2.2432343-1.7153086-4.70700634-7.3491593h-.00072108c-.25729618-.4281048-.59387059-.809724-1.00287819-1.1225169-1.75855096-1.3441365-4.2817833-1.0079225-5.62664235.7502674-.65116836.8515275-.93188787 1.9059384-.7899065 2.9682754.14198137 1.0626971.68864531 2.0064779 1.54017316 2.6580062.3744128.2864846.78846543.4987377 1.22485994.6374765v.0007204l8.48897156 2.6035916 2.2709819 1.7365695c-.1495492.6954925.1210802 1.4435988.7455824 1.8684622l6.1981718 4.2097111c.9870224.672071 2.3318807.4165741 3.0039506-.5704479l1.815128-2.6659355 3.0857539 9.1195998h.0007204l-.2857646 6.8262772-5.2835829 4.9235831c-.8778344.8093665-.9333293 2.1772878-.1239642 3.0551208.8093656.877833 2.1772923.9333279 3.0551252.1239613l5.9412353-5.5758289c.4108086-.3859439.6544123-.916755.6796374-1.4796343l.2331503-5.2421385-.0126111.0115308.138016-3.2432292 2.5859355 8.1293335-1.7938676 8.0107773c-.2608994 1.1654011.4720718 2.3214321 1.6374726 2.5823315 1.1654007.2608994 2.3214321-.4720718 2.5823315-1.6374725l.1744112-.7794543 1.7477423-7.7981642c.0421609-.1881084.0587392-.3798185.0500899-.570448-.007929-.1927934-.0414431-.3848635-.1009026-.570088l-.2792759-.8709872-2.7563853-8.6662703.003244-.0010803-3.7181821-10.9895003.0201797.0324312 1.0839578-.674232-.002521.0064882 4.6234041-2.8803493c.3863039-.2407194.6868432-.5971164.8587333-1.0187355l2.7736813-6.80068913c.3758539-.92143998-.0663053-1.97296661-.9877424-2.34882084zm-35.05066149 10.67851063c.37837638-.2464847.71819509-.5545926 1.00035567-.9239611.28792669-.3762138.49873623-.7935082.63711437-1.232066l2.11927012 3.3084567-3.75710052-1.1524296z"/><path d="m43.1028821.00121506c-1.1935084-.03963947-2.193143.89549162-2.2331428 2.08899998-.0396395 1.19350872.8954931 2.19314404 2.0890014 2.23278351 1.1935084.0396391 2.1931437-.89549199 2.2327832-2.08900035.0396394-1.19350835-.8954935-2.19314367-2.0890018-2.23278314z"/></g></svg>