<svg height="53" viewBox="0 0 53 53" width="53" xmlns="http://www.w3.org/2000/svg"><g fill="#fff" fill-rule="evenodd" transform="translate(10 3)"><path d="m10.5129663 34.1429796c1.1973297-.4579099 2.5275762.2250256 2.8514965 1.4640969l.4618278 1.7662747c.7436983 2.8435423-.9692673 5.7492336-3.8253964 6.4893193-2.26815523.5879245-4.5858428-.766158-5.17631148-3.0242757l-.75617123-2.5745824c-.24694918-.8408112.19385368-1.7302002 1.0130978-2.0434502z"/><path d="m4.11363084 29.9480839c-1.24599484.2496491-2.51198993-.4190297-2.9829881-1.6193167-.52133131-1.327832-.88866356-2.8444324-1.04666294-4.4708916-.54933121-5.6650544 1.65399425-10.5189209 4.92131491-10.8410151 3.26732066-.3220939 6.36130829 4.0093481 6.91063919 9.6747426.1289998 1.3291931.1063329 2.6138291-.0459998 3.8052722-.1486661 1.1621934-1.0073281 2.0985457-2.13732405 2.3250663z"/><path d="m23.4870351 21.1429796c-1.1973293-.4579099-2.527579.2250256-2.8514994 1.4640969l-.4618263 1.7662747c-.7436983 2.8435423.969267 5.7492336 3.8253964 6.4893193 2.2681548.5879245 4.5858431-.766158 5.1763114-3.0242757l.7561712-2.5745824c.2469496-.8408112-.1938544-1.7302002-1.0130981-2.0434502z"/><path d="m29.8863685 16.9480828c1.2459955.2496541 2.5119913-.4190371 2.9829895-1.6193478.5213309-1.3278587.8886632-2.8444886 1.0466622-4.4709801.5493309-5.6651695-1.6539929-10.5187937-4.9213136-10.84089405-3.2673207-.3221007-6.3613094 4.00942731-6.9106406 9.6749359-.1289996 1.32921915-.106333 2.61388225.0459998 3.80534925.1486661 1.1622167 1.0073304 2.0985893 2.1373261 2.3251144l5.6189766 1.1261635z"/></g></svg>