<svg height="53" viewBox="0 0 53 53" width="53" xmlns="http://www.w3.org/2000/svg"><g fill="#fff" fill-rule="evenodd" transform="translate(0 1)"><path d="m11.6328174 36.2709183-.1902321-.1889892-.5354681-.5317368-4.25058892-4.221994.0194791 8.5351635-5.92910739 6.0430813c-.46450077.4681525-.72401174 1.1016485-.72146596 1.7611335.00258386.6594845.26701475 1.290941.73514277 1.7554667.46809735.4645554 1.10156151.7241393 1.76104644.7216704.65948492-.0025049 1.29097299-.2668587 1.75555291-.734932l6.64817645-6.8263895c.4043385-.4158776.6503765-.9601502.6954458-1.5384338.0137087-.1029127.020768-.2066016.0211365-.3104227z"/><path d="m11.8325823 11.190123c3.090067 0 5.595061-2.50499399 5.595061-5.5950615 0-3.0900675-2.504994-5.5950615-5.595061-5.5950615-3.09006714 0-5.59506196 2.504994-5.59506196 5.5950615 0 3.09006751 2.50499482 5.5950615 5.59506196 5.5950615z"/><path d="m33.7892606 46.003839h-1.9023226l-.4973376 3.2293862c-.0338542.1998332-.097124.3935492-.1877466.5748412.362664.2693885.8036054.412533 1.2553469.4075306.4517416-.005002.8894022-.1578769 1.2460124-.4352295.3566101-.277353.6125249-.6639071.7285868-1.1005134.1160623-.4366062.0858767-.899215-.0859364-1.3170372z"/><path d="m46.8763154 44.562387-.7227974 4.6741555c-.055835.3445128-.1984643.6691353-.414449.9432834.3647802.0664055.7407082.0333933 1.088324-.095603.3476154-.1289869.6540963-.3491795.8872653-.6374611.233169-.2882821.3844292-.6340204.4378981-1.0009201.0534693-.3669001.0071766-.7414285-.1340179-1.0842673z"/><path d="m52.7453289 37.4661871-4.9837496-5.3546802v-.4061613c0-.2747967-.1091617-.5383394-.3034724-.7326501-.1943111-.1943111-.4578539-.3034724-.7326501-.3034724-.2747963 0-.538339.1091613-.7326501.3034724-.1943111.1943107-.3034724.4578534-.3034724.7326501v1.684736l-.4003594.4003561-1.8434683 1.8438857v-.0070481c-5.2829819-.8964541-10.9389657-4.6339543-14.7311745-7.5873175.133727-.3716832.1591493-.7737008.0733045-1.1592665-.0858449-.3855673-.2794257-.7388254-.558209-1.0186617l-12.0405719-11.9974722-.0161639.016164c-.4529812-.4005613-1.0369477-.6214108-1.6416321-.6208461h-5.39654085c-.33432275 0-.66523582.067184-.97279801.1982424-.3075626.1310616-.58540797.3230327-.81679319.5643465l-3.61316638 3.5816678v-.0227951l-3.00185369 2.9993674c-.25743707.2569783-.45536299.5673061-.57982037.9090955-.12445696.3417928-.17241493.706728-.140492 1.0690704l.38875317 4.5552081c.04968704.5464937.31410716 1.0509681.73525697 1.402759.4211494.351791.96463917.5221764 1.51124808.4737774.54660933-.0483989 1.05170413-.3116321 1.40448685-.7319513.35278271-.4203193.52444625-.9634062.47733459-1.5101274l-.35684059-4.0935157 2.47716208-2.3333466v8.2753044l3.52281564 3.5190852h-.0024862l7.2648769 7.2669504v8.7121308c0 .6595131.2619906 1.2920133.7283357 1.7583604.466345.4663467 1.0988468.7283336 1.7583583.7283336.6595119 0 1.2920133-.2619869 1.7583587-.7283336.4663451-.4663471.7283353-1.0988473.7283353-1.7583604v-9.7615177c-.0000141-.3274893-.064715-.6517488-.19039-.9541635-.125675-.3024148-.3098454-.5770295-.5419406-.8080732l-4.2410574-4.2219907-.414449-.414449v-11.3405672l8.2545807 8.2243264c.2953256.2948419.6721978.494465 1.0820269.5731369.4098291.078672.8338246.0327821 1.2173333-.1317508.5963933.4666696 1.239619.9532323 1.9234603 1.4505715 4.597898 3.3292692 8.8124262 5.4487606 12.5528292 6.3207617l-1.4862137 1.4857992-12.1433536-.0538775-1.682665-1.6810047c-.1946273-.1928771-.457732-.3008071-.7317429-.3001685-.2740105.0006387-.5366107.1097909-.7303383.3035736-.1937275.1937831-.3028072.4564169-.3033684.7304274-.0005611.2740104.1074414.5370869.300374.7316604l1.6685721 1.6685687v.4061613l-1.2043884 7.8011727c-.0838687.5431644.0514713 1.0973992.3762414 1.5407772.3247697.4433779.8123685.7395809 1.3555329.8234496.5431641.0838687 1.0973955-.0514708 1.5407735-.3762426.4433783-.3247713.7395813-.8123702.82345-1.3555346l.6809389-4.410151h10.5800541l-.5910022 3.827851c-.0833407.5428449.0522201 1.0965703.376897 1.5395247s.8119151.7389045 1.354668.8228333c.5429054.0833312 1.0966876-.0522806 1.5396544-.3770458.4429673-.3247655.7388764-.8121049.822707-1.3549341l.7153381-4.6331253 1.2081193-5.6273898.5698674-.4583818 1.7692815 1.657796c.4021805.3767233.9350935.5822909 1.4860807.573241.5509871-.0090495 1.0768615-.232002 1.4664544-.6217303l.9117894-.9117866c.1739986-.1735207.2737341-.4078816.2782943-.6535749.0042555-.2456932-.0870095-.48348-.2546711-.6631304z"/></g></svg>