<svg height="53" viewBox="0 0 53 53" width="53" xmlns="http://www.w3.org/2000/svg"><g fill="none" fill-rule="evenodd"><g fill="#fff" fill-rule="nonzero"><path d="m20.5236899 49.8490691c1.2451317.5422875 2.6562811 0 3.2373426-1.2097181.5395571-1.2514325 0-2.6697228-1.2036274-3.2537246l-10.2930893-4.6720149c-1.2451318-.5422874-2.65628112 0-3.23734261 1.2097182-.5395571 1.2514325 0 2.6697227 1.20362741 3.2537246z"/><path d="m42.230487 45.2187687c1.2451318.5422874 2.6562811 0 3.2373426-1.2097181s0-2.6697228-1.2036274-3.2537246l-10.2930892-4.6720149c-1.2451318-.5422874-2.6562812 0-3.2373426 1.2097182-.5395571 1.2514325 0 2.6697227 1.2036273 3.2537246z"/><path d="m21.8518304 36.7924562c-.2905307-1.3348613-1.5771669-2.1691497-2.9053075-1.8771488-1.3281405.292001-2.1582284 1.5851479-1.8676976 2.9200093l2.0752196 10.2617469c.2905308 1.3348613 1.5771669 2.1691497 2.9053075 1.8771488 1.3281405-.292001 2.1582284-1.5851479 1.8676976-2.9200093z"/><path d="m25.0061642 22.6929829h-10.791142l3.4448646 17.8954854 15.1491032.0417144c1.4111493 0 2.5732723-1.2514325 2.4487591-2.6697228-.1245132-1.2931469-1.2451318-2.2108641-2.5732723-2.2108641h-5.2295534z"/><path d="m9.19299076 19.606116c0 1.1680037.91309664 2.0857209 2.07521964 2.0857209s2.0752196-.9177172 2.0752196-2.0857209v-8.2594548c0-1.1680037-.9130966-2.08572094-2.0752196-2.08572094s-2.07521964.91771724-2.07521964 2.08572094z"/><path d="m14.9205969 26.2387084c.8300878.8342884 2.116724.8342884 2.9468118 0 .8300879-.8342883.8300879-2.1274353 0-2.9617236l-5.0635358-5.0474446c-.8300879-.8342884-2.116724-.8342884-2.94681186 0-.83008785.8342883-.83008785 2.1274353 0 2.9617237z"/><path d="m32.3109373 26.8644247c1.1621229 0 2.0752196-.9177172 2.0752196-2.0857209s-.9130967-2.0857209-2.0752196-2.0857209h-7.1387555c-1.162123 0-2.0752196.9177172-2.0752196 2.0857209s.9130966 2.0857209 2.0752196 2.0857209z"/><path d="m38.9931444 26.8644247c1.162123 0 2.0752196-.9177172 2.0752196-2.0857209s-.9130966-2.0857209-2.0752196-2.0857209h-7.1387555c-1.1621229 0-2.0752196.9177172-2.0752196 2.0857209s.9130967 2.0857209 2.0752196 2.0857209z"/><path d="m18.2824527 19.4392583c2.1997328 2.2108642 5.7276061 2.2108642 7.9273389 0s2.1997328-5.7565897 0-7.9674539c-2.1997328-2.21086414-5.7276061-2.21086414-7.9273389 0-2.1997328 2.2108642-2.1997328 5.7565897 0 7.9674539z"/><path d="m12.9698905 8.46836632c1.0791142 1.08457487 2.863803 1.08457487 3.9429172 0s1.1206186-2.87829486 0-4.00458415-2.863803-1.12628929-3.9429172 0-1.1206186 2.92000928 0 4.00458415z"/></g><path d="m0 0h53v53h-53z"/></g></svg>