<svg height="53" viewBox="0 0 53 53" width="53" xmlns="http://www.w3.org/2000/svg"><g fill="none" fill-rule="evenodd"><g fill="#fff" fill-rule="nonzero"><path d="m20.9297025 11.0948551c-1.7431844-2.41943621-5.1050402-2.96172365-7.512295-1.20971809-2.4072547 1.75200559-2.9468118 5.13087339-1.2036273 7.55030969 1.7431844 2.4194362 5.1050402 2.9617237 7.512295 1.2097181 2.3657503-1.7102911 2.9468118-5.1308734 1.2036273-7.5503097z"/><path d="m32.9244719 40.4618055c-.8300878-1.1262893-2.4072547-1.3765758-3.5278733-.5840018-1.1206186.8342883-1.369645 2.4194362-.5810615 3.5457255.8300878 1.1262893 2.4072547 1.3765758 3.5278733.5840019 1.162123-.8342884 1.4111494-2.4194363.5810615-3.5457256z"/><path d="m25.7027077 38.8766576 5.5200841-8.6348845-10.4591068-7.6337386c-2.2827416-1.6685767-5.4785798-1.1680037-7.1387555 1.1262893s-1.162123 5.5063032 1.1206186 7.17488z"/><path d="m38.1540253 28.239481c-.5395571-1.2514325-1.9507064-1.8354344-3.1958382-1.3348614-1.2451317.500573-1.8261932 1.9605777-1.3281405 3.2120102l4.5239787 10.8457487c.5395571 1.2514326 1.9507065 1.8354344 3.1958382 1.3348614 1.2451318-.5422874 1.8261933-1.9605776 1.3281406-3.2120102z"/><path d="m27.1553614 34.4549293c-1.369645 0-2.4487592 1.0845749-2.4487592 2.4611507s1.0791142 2.4611506 2.4487592 2.4611506h7.9273389c1.369645 0 2.4487592-1.0845748 2.4487592-2.4611506s-1.0791142-2.4611507-2.4487592-2.4611507z"/><path d="m36.4523453 34.8303591c-1.162123-.7091451-2.6562811-.3337154-3.3618558.7925739s-.3320352 2.6697228.7885834 3.3788679l8.2178697 5.089159c1.162123.7091451 2.6562811.3337153 3.3618558-.792574.7055747-1.1680037.3320351-2.6697227-.7885835-3.3788678z"/><path d="m25.9932384 31.9937786c-1.2451318.5840019-1.7431845 2.0440065-1.2036274 3.2537246.5810615 1.2514326 2.0337153 1.7520056 3.2373426 1.2097182l8.88194-5.0057302c1.2451317-.5840019 1.7431845-2.0440065 1.2036274-3.2537246-.5810615-1.2514326-2.0337153-1.7520056-3.2373426-1.2097181z"/><path d="m17.4433336 27.1131917c.3320351-1.3348614-.4565483-2.6697228-1.7846889-2.9617237-1.3281405-.3337153-2.6562811.4588586-2.9468118 1.79372l-3.81840411 15.4760491c-.33203514 1.3348614.45654831 2.6697228 1.78468891 2.9617237 1.3281405.3337154 2.6562811-.4588586 2.9468118-1.79372z"/></g><path d="m0 0h53v53h-53z"/></g></svg>