<svg height="53" viewBox="0 0 53 53" width="53" xmlns="http://www.w3.org/2000/svg"><g fill="none" fill-rule="evenodd" transform="translate(0 -.000281)"><path d="m22.5407796 20.9826918c.7470791-3.0451526-1.1206186-6.0485907-4.1504392-6.7994502-3.0298207-.7508595-6.0181369 1.1262893-6.765216 4.1714418-.747079 3.0451525 1.1206186 6.0485907 4.1504393 6.7994502 3.0298206.7508595 6.0596412-1.1680037 6.7652159-4.1714418z" fill="#fff" fill-rule="nonzero"/><path d="m21.6691874 41.4227567c.9961054-.6257163 2.0752196-1.1262893 3.1543338-1.5434335v-7.7171674c0-.2920009.2075219-.500573.4980527-.500573h2.5732723c1.1206186 0 2.0752196-.9177172 2.0752196-2.0857209v-12.5977543l-4.1089348 3.3371535v7.2165943h-7.3047731c-1.8261932 0-3.071325 1.2514326-3.071325 3.0451525v3.8794409c2.2827416 1.7102912 4.3994656 3.9628697 6.1841545 6.9663079zm11.3722034-13.9326157c1.1206186 0 2.0752197-.8760028 2.0752197-2.0440065v-13.5571859l-4.1504393 4.1297274v9.4274585c0 1.1680037.954601 2.0440065 2.0752196 2.0440065zm-7.2217642-5.6731609h2.2827416v-1.9605776l14.2360065-14.30804545c.4565483-.4588586.4565483-1.16800371 0-1.58514789-.4565483-.4588586-1.162123-.4588586-1.6186713 0l-14.3190153 14.34975984c-.4150439.4171442-.5810615.8760028-.5810615 1.5434335zm6.557694-14.22461656-5.9351281 5.92344736c-.2905308.2920009-.2905308.8342884.0415044 1.1262893l.5810615.500573c.2905307.2920009.747079.2502865 1.0376098-.0417144l5.8936237-5.88173296c.2905307-.29200092.2905307-.79257394 0-1.08457487l-.5395571-.54228743c-.2905308-.29200093-.7885835-.29200093-1.0791142 0zm-30.25670201 28.15723226c6.10114567 0 12.86636161 2.3360074 16.80927891 12.472611.3735395 1.0428605 1.5771669 1.2514326 2.2827415.5422875 4.5239788-4.5468716 9.7535322-6.0485907 17.2243228-3.9211554.6225659.1668577 1.1206186-.0834288 1.369645-.7091451 1.5356625-3.5874399 4.7730051-5.4228743 8.6329136-5.4228743.6225659 0 1.1206186-.500573 1.1206186-1.1262893s-.4980527-1.1262893-1.1206186-1.1262893c-4.2749524 0-8.2593741 2.1274353-10.3345937 5.9651618-7.2632687-1.79372-12.9493704-.3337154-17.5978623 3.8794409-4.3994656-10.2617469-12.03627379-12.8063264-18.38644581-12.8063264-.66407027 0-1.12061859.500573-1.12061859 1.1262893 0 .6674307.49805271 1.1262893 1.12061859 1.1262893z" fill="#fff" fill-rule="nonzero"/><path d="m0 0h53v53h-53z"/></g></svg>