<svg height="54" viewBox="0 0 53 54" width="53" xmlns="http://www.w3.org/2000/svg"><g fill="none" fill-rule="evenodd" transform="translate(0 .133413)"><g fill="#fff" fill-rule="nonzero"><path d="m39.0690678 14.7667504c-2.8222987 0-5.1465447 2.294293-5.1465447 5.1308735 0 2.8365804 2.2827416 5.1725878 5.1465447 5.1725878 2.7807943 0 5.1050402-2.3360074 5.1050402-5.1725878 0-2.8365805-2.2827416-5.1308735-5.1050402-5.1308735zm0 8.2177404c-1.7431845 0-3.0298207-1.3348614-3.0298207-3.0451525s1.3281406-3.0034381 3.0298207-3.0034381 3.0298206 1.3348614 3.0298206 3.0034381c0 1.7102911-1.3281405 3.0451525-3.0298206 3.0451525z"/><path d="m26.6592545 48.5971436h10.58362c1.0791142 0 1.369645-1.3765758.4980527-1.9605777l-3.7353953-2.4611507c.3735395-.5840018.6225659-1.2514325.7885835-2.002292l4.3994655-17.5617701-2.0752196-.500573-4.3579612 17.6034845c-.7055746 2.8365804-3.1543338 4.7554436-6.1011456 4.7554436-.5810615 0-1.0376098.5005731-1.0376098 1.0845749-.0415044.5422874.4150439 1.0428605 1.0376098 1.0428605z"/><path d="m12.6722743 41.4222636 3.7768997-.7925739c.4565483-.0834288.747079-.500573.747079-1.001146 0-.5005731-.3735395-.8760028-.7885834-.9177172l-6.350172-1.0845749c-1.03760984-.1668577-1.36964498.7508595-1.03760984 1.4182902l.37353953.7091451c.62256591 1.3348614 1.70168011 2.0022921 3.27884701 1.6685767z"/><path d="m9.93298439 48.5971436h8.13486091c.6225659 0 1.0791142-.5005731 1.0791142-1.0428605 0-.5840018-.4565483-1.0845749-1.0791142-1.0845749-1.2036274 0-2.116724-.500573-2.4487592-1.9605776l-1.1206186-5.0057302-2.0752196.4588586.8715923 4.088013-3.98442169 2.6280083c-.87159224.5840019-.5395571 1.9188633.62256588 1.9188633z"/><path d="m30.0626146 20.8570555c-.6640702-.9594316-1.9507064-1.2097181-2.9053074-.5422874l-3.8184041 2.7531516-4.6069875-3.2954391c-.9546011-.7091451-2.1167241-1.2097181-3.5693778-1.2097181-2.4072547 0-4.233448 1.5434335-4.3994656 3.7125832l-.6225658 9.0103143c-.20752201 2.6697228 1.1206185 4.6720149 4.0674304 5.089159l8.5914092 1.2514326-1.6601757 6.1320195c-.3320351 1.2931469.4150439 2.5862939 1.6601757 2.9617236 1.2866362.3754298 2.6147767-.4171441 2.9468118-1.6685767l2.4487592-8.9268855c.3735395-1.3765758-.5395571-2.794866-1.9507064-3.0034381l-8.0103478-1.2097181.4980528-7.0080222 3.5278733 2.4194362c.6640703.500573 1.5356625.500573 2.2412372 0l5.0635358-3.6291544c.8715923-.6674307 1.1206186-1.9188632.4980527-2.8365804z"/><path d="m15.4530686 17.019329c2.8222986 1.3348614 6.1011456.1251433 7.4707906-2.7114372 1.3281405-2.8365804.1245131-6.13201942-2.6977855-7.50859522-2.8222987-1.3765758-6.1011457-.12514325-7.4707906 2.71143718-1.3281406 2.83658044-.0830088 6.21544834 2.6977855 7.50859524z"/></g><path d="m0 0h53v53h-53z"/></g></svg>