<svg height="138" viewBox="0 0 783 138" width="783" xmlns="http://www.w3.org/2000/svg"><path d="m24.963 116.808 2.355-14.287h24.178l2.355 14.287h25.905l-21.823-109.586h-36.424l-21.509 109.586zm23.236-34.854h-17.427l8.635-51.182h.471zm59.974 34.854v-52.281c0-6.751 3.925-10.99 9.891-10.99 6.123 0 9.891 4.239 9.891 10.99v52.281h24.178v-58.247c0-17.113-10.676-27.789-26.847-27.789-8.007 0-14.601 2.669-19.625 7.85h-.314v-6.908h-21.352v85.094zm90.118 21.195 35.482-106.289h-24.649l-14.758 50.711h-.314l-13.502-50.711h-25.905l26.533 83.053-7.693 23.236zm98.439-21.195c33.598 0 54.322-21.195 54.322-54.793 0-33.755-20.724-54.793-54.322-54.793h-34.226v109.586zm-.314-23.864h-8.478v-61.858h8.478c17.898 0 27.475 12.717 27.475 30.929s-9.577 30.929-27.475 30.929zm73.319-67.353c8.478 0 13.973-5.024 13.973-12.874 0-7.693-5.495-12.717-13.973-12.717s-13.973 5.024-13.973 12.717c0 7.85 5.652 12.874 13.973 12.874zm12.089 91.217v-85.094h-24.178v85.094zm25.277 1.256c17.898 0 29.359-9.734 29.359-26.219 0-9.263-3.611-15.7-11.932-23.707l-7.536-7.379c-2.512-2.669-3.611-4.396-3.611-6.28 0-2.512 1.884-3.925 5.338-3.925 3.14 0 7.222 1.099 11.775 3.454v-21.823c-4.867-1.099-9.263-1.727-13.816-1.727-16.956 0-27.475 8.635-27.475 24.021 0 8.007 2.826 14.758 9.891 21.823l6.437 6.594c3.611 3.768 5.181 5.809 5.181 8.321 0 3.454-2.512 4.867-6.437 4.867-4.396 0-8.949-1.884-14.758-5.809v24.963c5.652 1.884 11.775 2.826 17.584 2.826zm64.056-.157c5.338 0 10.205-.785 14.444-2.041v-23.393c-2.983 1.413-6.123 2.198-8.321 2.198-3.768 0-6.437-1.884-6.437-6.908v-34.854h15.543v-21.195h-15.543v-16.956h-16.799l-.471 4.082c-1.256 11.147-5.652 16.171-15.229 19.311v14.758h8.321v39.25c0 18.055 8.321 25.748 24.492 25.748zm46.315-.314c7.065 0 13.345-2.041 17.741-5.809h.314v5.024h22.451v-53.223c0-21.509-12.717-33.127-35.011-33.127-8.007 0-16.485 1.57-24.178 4.553v21.038c5.181-3.297 11.932-5.652 19.154-5.652 10.205 0 15.857 4.867 15.857 13.345v2.512h-.314c-4.396-2.826-9.734-4.396-15.857-4.396-15.7 0-26.69 10.519-26.69 27.789s10.833 27.946 26.533 27.946zm7.536-17.584c-5.966 0-10.205-4.396-10.205-10.833s4.239-10.676 10.205-10.676c5.652 0 9.891 4.239 9.891 10.676 0 6.594-4.239 10.833-9.891 10.833zm65.94 16.799v-52.281c0-6.751 3.925-10.99 9.891-10.99 6.123 0 9.891 4.239 9.891 10.99v52.281h24.178v-58.247c0-17.113-10.676-27.789-26.847-27.789-8.007 0-14.601 2.669-19.625 7.85h-.314v-6.908h-21.352v85.094zm92.944.942c3.925 0 8.321-.314 12.874-1.727v-24.178c-3.611 1.727-7.379 2.512-10.99 2.512-10.99 0-18.997-7.536-18.997-20.096 0-12.403 8.007-19.939 18.997-19.939 3.611 0 7.379.785 10.99 2.512v-24.178c-4.553-1.413-8.949-1.727-12.874-1.727-24.963 0-42.547 16.956-42.547 43.332 0 26.533 17.584 43.489 42.547 43.489zm63.899 0c8.792 0 18.683-1.57 26.847-5.181v-23.707c-7.379 5.338-16.799 8.007-25.434 8.007-11.461 0-20.096-5.024-23.236-14.915h55.578c5.809-32.813-11.304-51.182-37.837-51.182-24.963 0-42.233 16.956-42.233 43.646 0 26.062 17.113 43.332 46.315 43.332zm11.618-53.38h-33.598c2.355-8.792 8.792-14.13 17.741-14.13 8.478 0 15.229 4.71 15.857 14.13z"/></svg>