<svg height="53" viewBox="0 0 53 53" width="53" xmlns="http://www.w3.org/2000/svg"><g fill="#fff" fill-rule="evenodd" transform="translate(4 -10)"><g fill-rule="nonzero" transform="translate(0 20.067524)"><path d="m37 21.9324758c-4.9705627 0-9 4.0294373-9 9 0 4.9705628 4.0294373 9 9 9s9-4.0294372 9-9c0-4.9705627-4.0294373-9-9-9zm0 16c-3.8659932 0-7-3.1340067-7-7 0-3.8659932 3.1340068-7 7-7s7 3.1340068 7 7c0 3.8659933-3.1340068 7-7 7z"/><path d="m9 21.9324758c-4.97056275 0-9 4.0294373-9 9 0 4.9705628 4.02943725 9 9 9 4.9705627 0 9-4.0294372 9-9 0-4.9705627-4.0294373-9-9-9zm0 16c-3.86599325 0-7-3.1340067-7-7 0-3.8659932 3.13400675-7 7-7 3.8659932 0 7 3.1340068 7 7 0 3.8659933-3.1340068 7-7 7z"/><path d="m41 11.9324758h-7s-4.045-5.71799999-5.17-6.82899999c-1.5642717-1.55603118-4.0917283-1.55603118-5.656 0l-9 8.99999999c-.8697124.8571425-1.2968331 2.0666874-1.158214 3.279897s.8275702 2.2952343 1.868214 2.934103l5.616 3.925v9.19c0 1.3807119 1.1192881 2.5 2.5 2.5s2.5-1.1192881 2.5-2.5v-10.5c-.0001633-.820197-.4026347-1.5881438-1.077-2.055l-3.374-2.337 7.369-7.37 2.982 3.962c.3777088.5036117.9704854.8 1.6.8h8c1.1045695 0 2-.8954305 2-2s-.8954305-2-2-2z"/><path d="m19.4309061 1.9931465c.0688448-.39225521.1413445-.90570712.217499-1.54035573l-3.4732724-.72705052c-.3922415-.06927266-.7951657-.04724453-1.177511.06434531-.3823453.11158985-.733843.30976016-1.0272476.57914922-.2934047.26938907-.5208079.60270938-.6646118.97416485-.1437625.37145547-.2000336.77102578-.1644656 1.16773906l.8384766 9.36567971c.0243469.2719148.1375929.5282609.3222234.7293711.1846305.2011101.430418.3358047.6992688.3832148l2.2582968.3780391z" transform="matrix(.5591929 .82903757 .82903757 -.5591929 1.813692 -3.411058)"/></g><path d="m28.3140815 20.019445c.8140536 2.0353975 2.7754046 3.4717602 5.068783 3.4717602 3.0227023 0 5.4729729-2.491785 5.4729729-5.565701 0-2.8644807-2.1287833-5.2214524-4.8648648-5.5294208v3.3493151c.9352698.2696282 1.6216216 1.1424117 1.6216216 2.1801057 0 1.2524893-.9981081 2.2675078-2.2297297 2.2675078-1.2316217 0-2.2297298-1.0150185-2.2297298-2.2675078 0-1.0414049.6912154-1.9162494 1.6313506-2.1825785v-3.3460174c-.9595946.1067791-1.8445942.4629835-2.5885127 1.0084222-.3883784-.5862538-1.3621442-.3722611-2.9212973.6419782-1.9149025 1.2023555-2.8723537 2.4106755-2.8723537 3.62496 0 1.9446967 1.3354077 3.8758888-.5464842 6.2312106.9348649.3504335 3.0429734-1.4310035 4.4582441-3.8840343z" transform="matrix(.76604444 .64278761 -.64278761 .76604444 19.016484 -15.903749)"/></g></svg>