<svg height="53" viewBox="0 0 53 53" width="53" xmlns="http://www.w3.org/2000/svg"><g fill="none" fill-rule="evenodd"><g fill="#fff" fill-rule="nonzero"><path d="m23.5795643 10.583946c.7470791-3.04515256-1.1206186-6.04859067-4.1504392-6.7994502-3.0298206-.75085952-6.0181369 1.12628929-6.7652159 4.17144182-.7470791 3.04515248 1.1206186 6.04859058 4.1504392 6.79945018 3.0298206.7508595 6.0596413-1.1680037 6.7652159-4.1714418z"/><path d="m19.4291251 17.1331096c-.8715922-.7508595-2.1582284-.6674307-2.9053075.2085721-.747079.8760028-.6640702 2.1691497.207522 2.9200093l6.8897291 5.9234473c.8715923.7508596 2.1582284.6674307 2.9053075-.208572.747079-.8760028.6640703-2.1691498-.207522-2.9200093z"/><path d="m14.9466507 20.0531189c.7470791-.8760028.6640703-2.1691498-.2075219-2.9200093-.8715923-.7508595-2.1582284-.6674307-2.9053075.2085721l-7.71981694 8.4263125c-.74707906.8760027-.66407028 2.1691497.20752196 2.9200092.87159224.7508596 2.1582284.6674307 2.90530746-.2085721z"/><path d="m11.7923169 35.3205959c.8715923.7508596 2.1582284.6674307 2.9053075-.2085721.747079-.8760027.6640703-2.1691497-.207522-2.9200092l-7.47079058-6.6325925c-.87159224-.7508596-2.1582284-.6674307-2.90530746.2085721-.74707906.8760027-.66407028 2.1691497.20752196 2.9200092z"/><path d="m32.6275219 26.6857114c1.1621229 0 2.0752196-.9177172 2.0752196-2.0857209s-.9130967-2.0857209-2.0752196-2.0857209h-7.6368082c-1.162123 0-2.0752196.9177172-2.0752196 2.0857209s.9130966 2.0857209 2.0752196 2.0857209z"/><path d="m10.8377159 44.3726247c.8300879-.1668577 1.5771669-.5840019 2.4072548-1.0845749.7055746-.4171442 1.4941581-.8760028 2.4902635-1.2514326v-2.294293c0-.2920009.2490263-.5422874.5395571-.5422874.207522 0 .4150439.1251433.4980527.3337154l.8300878 2.002292c.5395571-.0834288 1.162123-.1668576 1.8261933-.1668576 1.4941581 0 2.6977855.2920009 3.7353953.6674306l-2.5317679-6.1737338v-16.1017654c0-1.8771489-1.5356625-3.4205823-3.4033602-3.4205823h-2.9883162c-1.8676977 0-3.4033602 1.5434334-3.4033602 3.4205823v19.4806332z"/><path d="m8.13993041 47.9600646h1.86769769c4.8975182 0 6.0181368-3.0451525 9.421497-3.0451525s4.5239788 3.0451525 9.4214971 3.0451525c4.8975182 0 6.0181368-3.0451525 9.421497-3.0451525s4.5239788 3.0451525 9.421497 3.0451525h1.8676977c.5810615 0 .9961054-.4588586.9961054-1.001146 0-.5840019-.4565483-1.0428605-.9961054-1.0428605h-1.8676977c-3.5278733 0-4.7315007-3.0451525-9.421497-3.0451525s-5.8936237 3.0451525-9.421497 3.0451525c-3.5278734 0-4.7315008-3.0451525-9.4214971-3.0451525-4.7315007 0-5.8936237 3.0451525-9.421497 3.0451525h-1.86769769c-.58106149 0-1.03760981.4588586-1.03760981 1.0428605 0 .5422874.45654832 1.001146 1.03760981 1.001146z"/><path d="m15.8597474 31.2742974 32.9959918-14.8920473c.415044-.2085721.9130967 0 1.1206186.4171442.207522.4171441 0 .9177172-.4150439 1.1262893l-33.0374963 14.8920472z"/></g><path d="m0 0h53v53h-53z"/></g></svg>