<svg height="53" viewBox="0 0 53 53" width="53" xmlns="http://www.w3.org/2000/svg"><g fill="#fff" transform="translate(6 3)"><circle cx="23.032258" cy="5.532258" r="5.532258"/><path d="m9.08829032 22.2380968c-.82019625 1.4760072-.92138744 3.2457838-.27477501 4.8056593s1.97021999 2.7390328 3.59412989 3.2018891l2.9569032 1.4146774-1.8683226 9.2436129 4.0575161.3019032 3.0206129-10.5223548c.3593831-1.2587852-.3694218-2.5706341-1.6280645-2.9305162l-1.2455484-.3556451 4.2961936-7.6961613 9.6263994 8.6427699c.8212072.7372959 2.0758932.7026526 2.8551651-.0788344.7681067-.7702901.7672606-2.0171232-.0018908-2.78637l-11.3479318-11.3493397c-.180271-.1802297-.388427-.3302088-.6164516-.4441613l-4.3225806-2.1612903c-.188784-.0939237-.3891532-.1624851-.5959033-.2039032l-14.1500901-1.42627358c-1.12404856-.11329968-2.15043501.64533808-2.37190986 1.75316068-.20251245 1.0129721.45449496 1.9983171 1.46746712 2.2008295.03832919.0076627.07688916.0141221.1156231.0193686l10.82449044 1.4661728z"/><path d="m21.1548462 32.7852592 5.3041861.4082892-.9009678 8.3774193 4.022742.298742 1.9410322-9.8c.2340476-1.1703069-.4382861-2.3321645-1.5695806-2.7123871l-9.1657022-1.7044182c.1734378.1999379.3259733.4170891.4552258.6480645.5091016.9181856.6297637 2.0018676.3350967 3.0095484z"/><path d="m40.2580645 48c-.040043 0-.0795591 0-.1185484 0l-37.67741933-3.1612903c-.87296621-.065036-1.52792308-.825437-1.46288709-1.6984032.06503598-.8729663.82543701-1.5279231 1.69840322-1.4628871l37.6774194 3.1612903c.8729662.0322997 1.554461.7661628 1.5221612 1.639129-.0322997.8729662-.7661628 1.5544611-1.639129 1.5221613z"/></g></svg>