<svg height="53" viewBox="0 0 53 53" width="53" xmlns="http://www.w3.org/2000/svg"><g fill="#fff" fill-rule="evenodd" transform="translate(11)"><path d="m6.89058615 32.6769467.02154365 9.1815334-6.16209815 6.2805813c-1.00561713 1.013373-.99915386 2.6501936.01421866 3.6558103 1.0133721 1.0056171 2.65019363.999156 3.65581075-.0142169l6.91049234-7.0961933c.4700635-.4825587.7333163-1.1297027.7333163-1.8035605v-5.0074054l-.0168025-.0168038c-.1408894-.1413202-5.07074077-5.0832338-5.15648105-5.1797451z"/><path d="m6.8673109 8.4357235c.86515774 2.1271344 2.94963702 3.6282351 5.3869875 3.6282351 3.2124594 0 5.8165515-2.60409162 5.8165515-5.81655146 0-2.99358516-2.2624227-5.45678743-5.170268-5.77863618v3.50027143c.9939836.28178046 1.7234227 1.19390104 1.7234227 2.27836475 0 1.30893994-1.0607667 2.36970616-2.3697062 2.36970616s-2.36970614-1.06076622-2.36970614-2.36970616c0-1.08834184.73460804-2.00261627 1.73376234-2.28094903v-3.496825c-1.0198354.11159161-1.96039285.48385048-2.75101257 1.05387252-.61913959-.91901513-1.66913484-1.52350563-2.86045076-1.52350563-1.90352032 0-3.44684532 1.54332542-3.44684532 3.44684532 0 2.03234574 1.56917634 6.58649098-.43085566 9.04796898.99355316.3662277 3.23400305-1.4955 4.73812061-4.0590908z"/><path d="m31.6544334 21.1119405h-5.6230985c-.1133151 0-.2050865.0917714-.2050865.2050864v.8823942c0 .1133154.0917714.2050864.2050865.2050864h.3227113l.1736344 1.5622826-5.204303-.9345255-3.8634841-7.2452697c-.3903543-.9319416-1.311095-1.5872714-2.3847878-1.5872714h-5.61016987c-.73891747 0-1.40372819.3115082-1.87465386.8087157l-.00129171-.0017226-3.71009813 3.6963086-.00086301-.0107688-3.11982457 3.1185329c-.54115472.5411564-.81517935 1.2938587-.74753501 2.0564749l.58596413 6.6618894c.10469793 1.185284 1.15081419 2.0607831 2.33566727 1.9560852 1.18485351-.1046979 2.06078308-1.1508176 1.95608515-2.3356707l-.54589327-6.1879486 2.53730902-2.3899556v6.4300883c0 1.371844.54546197 2.6876806 1.51574936 3.6575367l9.2646885 9.2569305v-.0142169l.4558479.4558449v9.0570186c0 1.427857 1.1572787 2.585134 2.585134 2.585134 1.4278556 0 2.585134-1.157277 2.585134-2.585134v-10.1479443c0-.6876457-.2740264-1.3468544-.7613241-1.8319979l-4.3977443-4.3779257-.2145635-.2145665c-.1615709-.1615709-.252484-.3808743-.252484-.6092274v-8.4378803l.6475787 1.1318608c.3800147.664379 1.0344814 1.1262541 1.7880484 1.261112l6.5817516 1.1831305c.1154701.0206815.2292173.02456.3429632.0262843l.0150782.1357174c.0486863.4364568.4174983.7664918.8565407.7664918h1.9043811c.4390411 0 .8078579-.330035.8565441-.7664918l.6811802-6.1289214h.3214192c.1133151 0 .2050865-.091771.2050865-.2050864v-.8823942c0-.113315-.0917714-.2050864-.2050865-.2050864z"/></g></svg>