<svg height="51" viewBox="0 0 55 51" width="55" xmlns="http://www.w3.org/2000/svg"><path d="m26.5025291 35.4595065c3.5492717 0 7.0302883.7169408 10.4430495 2.1508225 3.4127613 1.4338817 6.4062405 3.42969 8.9804376 5.9874249.3510269.348782.6240478.7750712.8190627 1.2788674.195015.5037963.2925224 1.0657229.2925224 1.6857798 0 1.1626068-.3997806 2.1217574-1.1993418 2.8774518s-1.7453836 1.1335416-2.8374673 1.1335416c-1.1310866 0-2.2036687-.5425498-3.2177463-1.6276495-1.5991224-1.6276495-3.5687732-2.9452705-5.9089524-3.952863s-4.7973673-1.5113888-7.3715644-1.5113888c-2.3791822 0-4.7583643.4941079-7.1375465 1.4823236-2.3791821.9882158-4.3878359 2.3155252-6.0259613 3.9819282-.5070389.4650427-.9945762.8525783-1.462612 1.1626068s-1.0725821.4650427-1.8136389.4650427c-1.17008955 0-2.14516421-.3778472-2.92522393-1.1335416s-1.17008959-1.714845-1.17008959-2.8774518c0-.5425498.09750747-1.0463461.2925224-1.5113888s.50703882-.9300854.93607167-1.3951281c2.30117618-2.6739956 5.18739715-4.7085574 8.65866295-6.1036855 3.4712657-1.3951282 7.0205375-2.0926922 10.6478152-2.0926922zm-21.58815284-17.6134926c1.44311049 0 2.62295082-.4650427 3.53952099-1.3951281.91657018-.9300854 1.37485526-2.1314457 1.37485526-3.604081v-7.84759569c0-1.47263524-.45828508-2.66430718-1.37485526-3.57501582-.91657017-.91070863-2.0964105-1.36606295-3.53952099-1.36606295s-2.62295082.46504271-3.539521 1.39512812c-.91657017.93008542-1.37485526 2.11206897-1.37485526 3.54595065v7.84759569c0 1.4726353.45828509 2.6739956 1.37485526 3.604081.91657018.9300854 2.09641051 1.3951281 3.539521 1.3951281zm17.25882134 13.6024992h.2632702.2632701c3.00323 0 5.3141569-.7944479 6.9327808-2.3833438 1.618624-1.588896 2.4279359-3.8947327 2.4279359-6.9175103v-18.19479598c0-1.20136033-.3705283-2.16051092-1.1115851-2.87745176-.7410567-.71694084-1.7356329-1.07541126-2.9837284-1.07541126-1.2090926 0-2.1841672.35847042-2.925224 1.07541126-.7410567.71694084-1.1115851 1.67609143-1.1115851 2.87745176v18.54357798c0 .2712749-.078006.4747311-.2340179.6103686-.1560119.1356374-.3510269.2034561-.5850448.2034561h-1.8136389c-1.1310866 0-2.0866597.3778472-2.8667194 1.1335416-.7800598.7556944-1.1700896 1.6954682-1.1700896 2.8193215 0 1.317621.4387836 2.3445903 1.3163508 3.0809079s2.076909 1.1044764 3.5980254 1.1044764zm26.3855202-13.6024992c1.4431105 0 2.6327015-.4650427 3.5687732-1.3951281s1.4041075-2.1314457 1.4041075-3.604081v-7.84759569c0-1.43388168-.4680358-2.61586523-1.4041075-3.54595065-.9360717-.93008541-2.1256627-1.39512812-3.5687732-1.39512812-1.4041075 0-2.5741971.45535432-3.5102688 1.36606295-.9360716.91070864-1.4041075 2.10238058-1.4041075 3.57501582v7.84759569c0 1.4726353.4680359 2.6739956 1.4041075 3.604081.9360717.9300854 2.1061613 1.3951281 3.5102688 1.3951281z" fill="#fff" transform="translate(.673915 .139115)"/></svg>