<svg height="53" viewBox="0 0 53 53" width="53" xmlns="http://www.w3.org/2000/svg"><g fill="#fff" fill-rule="evenodd" transform="translate(0 3)"><path d="m36.188989 39.2463952c0-.6758953-.2684958-1.3241101-.7464266-1.8020405-.4779309-.4779304-1.1261443-.7464267-1.8020406-.7464267h-13.2520295c-.6758953 0-1.3241102.2684963-1.8020406.7464267-.4779303.4779304-.7464267 1.1261452-.7464267 1.8020405s.2684964 1.3241021.7464267 1.8020324c.4779304.4779309 1.1261453.7464349 1.8020406.7464349h6.089307c.3788205-.7649954.9638293-1.408939 1.6890635-1.8592272.7252336-.4502876 1.5618459-.6890092 2.4154984-.6892401z"/><path d="m52.616922 42.4248395-8.4155474-13.5486635c-.5742589-.8794577-1.4633488-1.5057762-2.484806-1.7504071-1.0214578-.2446314-2.0978075-.089023-3.0081608.4348837l-3.2758008 1.8812831c-.0988805.0570857-.1906233.1233443-.2854268.1855279-.1116784-1.8110427-.9096188-3.5113816-2.2312579-4.754609-1.3216397-1.2432275-3.0675421-1.9358101-4.8820243-1.9366496-1.8925075 0-3.7075045.7517968-5.0457092 2.0900026-1.3382053 1.3382057-2.0900029 3.1531976-2.0900029 5.0457056-.0017444 1.67876.5910694 3.3039007 1.6733259 4.587241h11.5787075c1.2166113 0 2.3833939.4832934 3.2436687 1.3435683.8602749.8602748 1.3435723 2.027061 1.3435723 3.2436727h4.587241l1.210522 2.0387738h-13.4431646c-.6758958 0-1.3241107.2685035-1.8020406.7464343-.4779303.4779309-.7464266 1.1261361-.7464266 1.8020329 0 .6758964.2684963 1.3241015.7464266 1.8020324.4779299.4779309 1.1261448.7464349 1.8020406.7464349h19.2618249c.4659557.0083681.9255926-.1086861 1.3307903-.3389039.4051976-.2302183.7410509-.5651226.9724023-.9696744.2313514-.4045524.3496889-.8638642.3429238-1.3298417-.0073625-.465977-.1395709-.9214916-.383078-1.318844z"/><path d="m20.8701526 19.0079971c0-.4945316-.196417-.9688141-.5460565-1.3185489s-.823869-.5462828-1.3184006-.5464179h-2.796688l4.1127165-4.1127164c.2831872-.2833651.4737615-.6459615.5465621-1.0399035.0728-.3939416.0244-.8007055-.1388094-1.1665645l-.0081546-.014777c-.043906-.1010962-.0966058-.1981413-.1574943-.2900156-.0693698-.1053689-.1492963-.2033988-.238538-.2925666-.006626-.0066265-.0142709-.0096826-.0208975-.0163091-.3466491-.33743953-.8113631-.52617749-1.295131-.52600228h-7.4593646c-.4945321 0-.9688141.19642069-1.3185489.54606018-.34973482.349639-.5462828.823869-.54641787 1.3184006 0 .4946213.1964858.9689782.54623487 1.3187278.3497496.3497491.8241116.546239 1.3187319.546239h2.7763033l-4.0464578 4.0464537c-.1853409.1847338-.33214379.4044453-.43188927.6463718-.09974599.241927-.15044723.5012514-.14916128.7629306-.00305816.0463816-.01376172.0912361-.01376172.1386381.00013507.4945316.19668305.9687616.54641787 1.3184006.3497348.3496395.8240168.5460606 1.3185489.5460606h7.4557988c.4944847 0 .9687157-.1964374 1.3183695-.5460917.3496543-.3496538.5460876-.8238848.5460876-1.3183695z"/><path d="m7.36378445 2.0647656c.18142895-.22365145.28104956-.50254806.28237068-.79053199 0-.33794765-.13425223-.66205152-.37321742-.90101619-.23896467-.23896519-.56306854-.37321742-.90101619-.37321742h-5.09693445c-.33794765 0-.662051.13425223-.90101619.37321742-.23896518.23896467-.37321742.56306854-.37321742.90101619s.13425224.66205101.37321742.90101619c.23896519.2389657.56306854.37321742.90101619.37321742h1.92510858l-2.77782775 2.77782775c-.13915191.13520434-.24852295.29798564-.32110942.47791558-.07258646.17992944-.10678536.3730426-.10040502.56695751 0 .33794765.13425224.66205152.37321742.90101619.23896519.23896518.56306854.37321742.90101619.37321742h5.09693445c.33794765 0 .66205152-.13425224.90101619-.37321742.23896519-.23896467.37321742-.56306854.37321742-.90101619s-.13425223-.66205152-.37321742-.9010162c-.23896467-.23896518-.56306854-.37321741-.90101619-.37321741h-1.946006l2.71054617-2.71054617c.09146601-.09520615.16809638-.20362916.22732276-.32162268z"/></g></svg>