<svg height="53" viewBox="0 0 53 53" width="53" xmlns="http://www.w3.org/2000/svg"><g fill="#fff" transform="translate(1)"><path d="m48.8589015 43.8903134v-23.7876231l2.6942744-4.1000007c.3767927-.5734701.2173804-1.3436177-.3560897-1.7199963-.5738842-.3776208-1.3436177-.2169663-1.7204104.3556757l-9.5233303 14.4920245c-.3767927.5734701-.2173804 1.3436177.3560897 1.7199963.2103414.1382953.4471825.2041305.6811252.2041305.4045345 0 .8007878-.1970916 1.0392851-.5602203l3.5165933-5.3512835v17.3399143l-11.2089599 1.8342762c-.0082811-.0513431-.0153201-.1026863-.0273278-.1544435l-2.004454-7.9677151c-.3283479-1.3046963-1.0931127-2.4508084-2.1576554-3.2565649-.1536155-.1188346-.3134418-.2306303-.4790649-.3345588l-3.4263287-2.1456477 2.6565951-9.6947504 1.4003437 2.0268132-.021117.0149061.9912545 1.4156637c.5432439.7755304 1.4595539 1.1312061 2.3365284.9995357.3556757-.0525854.7051405-.1842558 1.0198245-.4045345l1.338649-.937427 4.5579487-3.1915579c.9365988-.6558676 1.1643306-1.9468999.508463-2.8834988-.6558676-.9365988-1.9469-1.1643306-2.8834988-.508463l-4.4565046 3.1203399-4.0614933-5.8775511c-.3747224-.5966573-.9643408-1.0608162-1.6984653-1.2583218l-4.4064036-1.1858616c-.2943951-.0790851-.5904465-.1097253-.8798729-.0968896v-.0033124h-8.855041v.0045546c-.6745002.0062109-1.3361647.322137-1.7522928.9167241l-4.49501194 6.4199668c-.66042226.9432238-.43144828 2.2433654.51177549 2.9037877.94322377.6604222 2.24336535.4310342 2.90378765-.5121896l3.915745-5.5922652h4.5322772l-3.0002632 10.5526782c-.5200566 1.7771363.2099274 3.6238342 1.67445 4.5985264l9.4152612 5.8651293 1.9344783 7.9697854-28.0412393 4.5890031c-.9026461.1474046-1.51462359.9991215-1.36680494 1.9017676.13291257.8123815.83556872 1.3891641 1.63221601 1.3891641.00828116 0 .01656232-.0020703.02484347-.0020703.00579681 0 .01076551.0016562.01656232.0016562h46.33514294c.6860938 0 1.2421735-.5560796 1.2421735-1.2421735 0-.6860938-.5560797-1.2421735-1.2421735-1.2421735h-31.0584788l30.4978444-4.9906392c.8007879-.1308423 1.38875-.8227329 1.38875-1.6342863z"/><path d="m7.16907358 42.8667624 7.20833302-3.0731373c1.5883259-.6769846 2.849546-1.9477281 3.514937-3.5410227l.8351547-1.9994853-.0082812-.0049687-.6202586-.3896284-.9490206-.5962433-.608665-.3821754.0190466-.0049687c-.8003738-.4662291-1.4251871-1.1568776-1.818128-1.9630482l-1.6914263 4.0797119-7.78801393 3.2863771c-1.267017.5262675-1.86781493 1.9800246-1.34154741 3.2470416s1.98002461 1.8678149 3.24704161 1.3415474z"/><path d="m26.5676835 11.0956901c3.0404268.5362049 5.9392457-1.49392072 6.4754506-4.53434746.5362049-3.04043088-1.4939207-5.93924984-4.5343474-6.47545267-3.0404268-.53620698-5.9392457 1.49392277-6.4754506 4.5343495-.5362049 3.04042674 1.4939207 5.93924573 4.5343474 6.47545063z"/></g></svg>