<?xml version="1.0" encoding="UTF-8"?>
<svg width="265px" height="265px" viewBox="0 0 265 265" version="1.1" xmlns="http://www.w3.org/2000/svg" xmlns:xlink="http://www.w3.org/1999/xlink">
    <title>activity_all</title>
    <g id="activity_all" stroke="none" stroke-width="1" fill="none" fill-rule="evenodd">
        <g transform="translate(51.1377, 24.4932)" fill="#FFFFFF" fill-rule="nonzero" id="Shape">
            <path d="M36.3671875,11.9677734 L126.357422,11.9677734 C125.800781,4.08203125 121.254883,0 112.719727,0 L49.9121094,0 C41.3769531,0 36.9238281,4.08203125 36.3671875,11.9677734 Z M20.2246094,37.6660156 L142.407227,37.6660156 C141.015625,29.2236328 137.026367,24.5849609 127.749023,24.5849609 L34.8828125,24.5849609 C25.6054688,24.5849609 21.6162109,29.2236328 20.2246094,37.6660156 Z M29.1308594,215.327148 L136.376953,215.327148 C152.983398,215.327148 162.724609,205.678711 162.724609,186.567383 L162.724609,81.3623047 C162.724609,62.2509766 152.890625,52.6025391 133.59375,52.6025391 L29.1308594,52.6025391 C9.74121094,52.6025391 0,62.1582031 0,81.3623047 L0,186.567383 C0,205.678711 9.74121094,215.327148 29.1308594,215.327148 Z"></path>
        </g>
    </g>
</svg>